SplineFontDB: 3.2
FontName: Dimock
FullName: Dimock
FamilyName: Dimock
Weight: Regular
Copyright: Copyright (c) 2018, Zach West
Version: 0.002
ItalicAngle: -9.5
UnderlinePosition: -100
UnderlineWidth: 50
Ascent: 800
Descent: 200
InvalidEm: 0
sfntRevision: 0x00000083
LayerCount: 2
Layer: 0 0 "Back" 1
Layer: 1 0 "Fore" 0
HasVMetrics: 1
XUID: [1021 209 259205530 3122]
StyleMap: 0x0040
FSType: 0
OS2Version: 4
OS2_WeightWidthSlopeOnly: 0
OS2_UseTypoMetrics: 0
CreationTime: 1537292998
ModificationTime: 1589590961
PfmFamily: 17
TTFWeight: 400
TTFWidth: 5
LineGap: 90
VLineGap: 0
Panose: 3 0 5 0 0 0 0 0 0 0
OS2TypoAscent: 800
OS2TypoAOffset: 0
OS2TypoDescent: -200
OS2TypoDOffset: 0
OS2TypoLinegap: 90
OS2WinAscent: 801
OS2WinAOffset: 0
OS2WinDescent: 190
OS2WinDOffset: 0
HheadAscent: 801
HheadAOffset: 0
HheadDescent: -190
HheadDOffset: 0
OS2SubXSize: 650
OS2SubYSize: 699
OS2SubXOff: 0
OS2SubYOff: 140
OS2SupXSize: 650
OS2SupYSize: 699
OS2SupXOff: 0
OS2SupYOff: 479
OS2StrikeYSize: 49
OS2StrikeYPos: 258
OS2CapHeight: 782
OS2XHeight: 556
OS2Vendor: 'PfEd'
OS2CodePages: 00000000.00000000
OS2UnicodeRanges: 00000001.00000000.00000000.00000000
Lookup: 3 0 0 "0308" { "0308-1"  } []
Lookup: 258 0 0 "ll" { "ll-1" [150,15,0] } ['kern' ('DFLT' <'dflt' > 'latn' <'dflt' > ) ]
MarkAttachClasses: 1
DEI: 91125
LangName: 1033 "" "" "" "FontForge 2.0 : Dimock : 25-4-2019"
MATH:ScriptPercentScaleDown: 80
MATH:ScriptScriptPercentScaleDown: 60
MATH:DelimitedSubFormulaMinHeight: 1500
MATH:DisplayOperatorMinHeight: 0
MATH:MathLeading: 0 
MATH:AxisHeight: 0 
MATH:AccentBaseHeight: 530 
MATH:FlattenedAccentBaseHeight: 791 
MATH:SubscriptShiftDown: 140 
MATH:SubscriptTopMax: 530 
MATH:SubscriptBaselineDropMin: 0 
MATH:SuperscriptShiftUp: 479 
MATH:SuperscriptShiftUpCramped: 0 
MATH:SuperscriptBottomMin: 530 
MATH:SuperscriptBaselineDropMax: 0 
MATH:SubSuperscriptGapMin: 200 
MATH:SuperscriptBottomMaxWithSubscript: 530 
MATH:SpaceAfterScript: 41 
MATH:UpperLimitGapMin: 0 

StartChar: zero
Encoding: 48 48 0
Width: 832
Flags: HMW
HStem: 375 60 666 81
VStem: 20 82 339 82
LayerCount: 2
Fore
SplineSet
376 435 m 0
 380 436 383 436 387 436 c 0
 402 436 419 430 421 417 c 0
 421 416 421 414 421 413 c 0
 421 394 407 379 383 375 c 0
 381 375 378 374 376 374 c 0
 357 374 341 386 339 402 c 0
 339 403 339 404 339 405 c 0
 339 420 356 431 376 435 c 0
549 666 m 0
 488 663 453 653 399 630 c 0
 337 604 286 563 256 543 c 0
 220 520 192 511 166 480 c 0
 137 446 129 422 117 381 c 0
 105 339 103 313 102 270 c 0
 102 242 107 226 113 198 c 0
 119 170 111 149 132 126 c 0
 158 97 184 84 226 75 c 0
 250 70 270 67 289 67 c 0
 313 67 333 71 361 78 c 0
 409 90 427 110 466 135 c 0
 515 167 511 156 586 222 c 0
 627 259 645 283 680 324 c 0
 696 344 712 354 717 378 c 0
 722 402 725 422 725 441 c 0
 725 458 722 475 716 496 c 0
 704 536 703 565 671 601 c 0
 651 623 634 625 605 639 c 0
 584 650 575 666 551 666 c 0
 550 666 550 666 549 666 c 0
567 747 m 0
 628 746 660 694 706 651 c 0
 752 607 779 574 799 524 c 0
 809 499 812 477 812 455 c 0
 812 399 783 350 743 291 c 0
 709 240 666 198 605 147 c 0
 553 104 504 86 436 51 c 0
 404 34 385 17 346 15 c 0
 337 14 330 14 322 14 c 0
 277 14 245 24 196 36 c 0
 155 46 127 52 99 78 c 0
 61 112 55 140 35 183 c 0
 25 204 20 218 20 238 c 0
 20 242 20 245 20 249 c 0
 25 308 31 342 53 399 c 0
 69 438 89 457 117 492 c 0
 148 531 164 554 203 588 c 0
 234 616 258 628 297 648 c 0
 343 672 371 683 421 702 c 0
 465 719 485 729 530 743 c 0
 541 747 556 747 567 747 c 0
EndSplineSet
Validated: 1
EndChar

StartChar: one
Encoding: 49 49 1
Width: 316
VWidth: 0
Flags: HMW
VStem: 20 75<112 128>
LayerCount: 2
Fore
SplineSet
218 736 m 0
 222 745 220 754 230 760 c 0
 238 765 247 763 256 760 c 0
 274 755 292 756 296 742 c 0
 296 740 296 737 296 735 c 0
 296 719 278 710 270 694 c 0
 241.993222108 630.984749744 221.259013789 555.147534473 196 492 c 1
 150 366 l 2
 138 332 129 313 120 278 c 0
 111 242 112 221 106 184 c 0
 102 166 96 156 96 138 c 0
 96 129 94 121 94 114 c 0
 94 104 96 95 96 82 c 0
 96 43 131 67 131 39 c 0
 131 36 131 33 130 28 c 0
 128 21 128 14 120 12 c 0
 114 10 109 10 104 10 c 0
 95 10 88 12 80 16 c 0
 62 26 60 38 50 52 c 0
 42 63 38 70 33 82 c 0
 27 96 20 104 20 120 c 0
 20 135 28 143 28 158 c 0
 28 162 28 166 28 170 c 0
 28 188 28 202 28 220 c 0
 28 224 28 228 28 232 c 0
 28 248 35 256 40 272 c 0
 44 284 45 290 50 302 c 0
 60 325 69 336 78 360 c 0
 86 382 82 396 90 418 c 0
 99 443 110 456 120 480 c 0
 131 505 135 519 146 544 c 0
 169.640163052 599.160380455 196.594397258 660.377589033 210 714 c 0
 212 723 214 728 218 736 c 0
EndSplineSet
Validated: 1
EndChar

StartChar: glyph16
Encoding: 50 50 2
Width: 791
Flags: W
HStem: 14 21G<61.5 73> 156 40<363.6 551.932> 731 46<524.479 676.807>
VStem: 692 79<636.661 723.514>
LayerCount: 2
Fore
SplineSet
207 609 m 4
 262 650 305 663 369 696 c 4
 421 723 448 745 507 762 c 4
 549 774 580 777 621 777 c 4
 629 777 637 777 646 777 c 4
 687 776 715 777 747 756 c 4
 765 745 771 730 771 713 c 4
 771 708 771 702 770 696 c 4
 760 646 741 620 710 576 c 4
 675 526 647 500 601 456 c 4
 490 350 414 308 306 200 c 4
 298 192 304 172 314 176 c 4
 339 187 358 188 379 188 c 4
 384 188 389 188 394 188 c 4
 408 188 424 189 444 192 c 4
 459 195 474 196 486 196 c 4
 516 196 543 190 579 183 c 4
 598 179 609 172 620 159 c 4
 634 145 642 134 642 117 c 4
 642 115 642 113 642 111 c 4
 641.131835938 100.578125 629.702148438 92.4189453125 617.540039062 92.4189453125 c 4
 615.69921875 92.4189453125 613.840820312 92.60546875 612 93 c 4
 588 99 588 119 567 129 c 4
 536 144 517 154 481 156 c 4
 477 156 475 156 471 156 c 4
 433 156 411 145 372 138 c 4
 326 129 300 125 256 111 c 4
 217 98 198 85 162 69 c 4
 100 42 118 30 80 15 c 4
 78 14 74 14 72 14 c 4
 51 14 20 38 20 55 c 4
 20 55 20 56 20 57 c 4
 28 96 83 92 121 120 c 4
 152 143 162 162 192 186 c 4
 227 214 254 224 290 252 c 4
 331 284 352 304 391 339 c 4
 431 375 452 396 492 432 c 4
 534 471 562 489 601 531 c 4
 623 555 625 574 646 600 c 4
 662 620 660 628 684 651 c 4
 690 657 692 664 692 672 c 4
 692 687 685 704 677 721 c 4
 673 728 661 731 645 731 c 4
 624 731 598 726 587 724 c 4
 543 715 531 713 490 697 c 4
 459 685 443 675 414 660 c 4
 382 643 357 640 327 621 c 4
 301 605 302 580 271 570 c 4
 267 569 265 569 261 569 c 4
 246 569 236 580 222 588 c 4
 213 594 198 603 207 609 c 4
EndSplineSet
Validated: 1
EndChar

StartChar: glyph18
Encoding: 51 51 3
Width: 650
Flags: HMW
HStem: 738 46<321 346>
VStem: 392 70
LayerCount: 2
Fore
SplineSet
53 796 m 4
 59 797 65 797 70 797 c 4
 114 797 144 782 193 780 c 4
 202 780 208 780 217 780 c 4
 265 780 299 784 353 784 c 4
 392 784 414 781 453 778 c 4
 492 774 514 771 553 766 c 4
 559 765 564 765 570 765 c 4
 574 765 578 765 583 765 c 4
 595 765 608 764 620 756 c 4
 628 750 630 744 630 736 c 4
 630 730 628 723 627 716 c 4
 623 700 617 691 603 678 c 4
 579 654 562 642 533 622 c 4
 494 595 471 581 430 558 c 4
 401 542 384 533 353 520 c 4
 318 506 295 502 260 488 c 4
 241 481 228 479 213 466 c 4
 207 461 207 453 213 448 c 4
 229 434 243 433 263 422 c 4
 291 407 305 398 333 382 c 4
 357 369 372 364 393 348 c 4
 412 334 421 323 433 306 c 4
 444 291 448 281 453 264 c 4
 459 242 462 229 463 206 c 4
 463 200 463 195 463 190 c 4
 463 181 461 173 457 164 c 4
 448 148 438 142 423 128 c 4
 404 110 394 100 373 84 c 4
 351 67 339 57 313 44 c 4
 297 36 286 32 267 30 c 4
 249 28 237 27 225 27 c 4
 213 27 201 28 187 30 c 4
 166 33 156 38 137 46 c 4
 118 53 109 58 93 68 c 4
 81 76 72 79 63 90 c 4
 51 105 48 116 40 132 c 4
 32 150 25 159 23 178 c 4
 22 185 20 191 20 198 c 4
 20 204 21 210 30 214 c 4
 41 220 54 224 65 224 c 4
 74 224 83 222 93 218 c 4
 105 212 86 200 87 188 c 4
 89 171 94 161 103 146 c 4
 112 131 118 122 133 110 c 4
 145 100 152 94 170 90 c 4
 178 88 185 87 193 87 c 4
 204 87 213 89 227 90 c 4
 248 92 263 92 283 100 c 4
 309 110 322 118 343 134 c 4
 359 147 367 155 377 172 c 4
 387 189 391 199 393 218 c 4
 393 224 394 229 394 234 c 4
 394 245 391 254 387 266 c 4
 382 281 375 288 363 300 c 4
 345 317 334 325 313 340 c 4
 292 355 277 361 255 374 c 4
 226 391 215 406 183 418 c 4
 175 421 169 421 163 421 c 4
 155 421 148 420 139 420 c 4
 134 420 128 420 123 422 c 4
 108 426 98 432 93 444 c 4
 91 450 89 455 89 460 c 4
 89 467 91 473 97 478 c 4
 119 496 144 496 173 508 c 4
 207 522 223 531 257 546 c 4
 283 558 299 566 325 578 c 4
 355 592 374 598 403 614 c 4
 429 629 440 640 465 656 c 4
 479 665 487 669 503 676 c 4
 519 683 533 679 547 690 c 4
 556 697 561 708 553 716 c 4
 542 728 526 728 507 730 c 4
 492 732 481 732 470 732 c 4
 460 732 448 732 437 732 c 4
 432 732 428 732 423 732 c 4
 385 734 365 738 327 738 c 4
 292 738 272 733 237 732 c 4
 223 732 211 732 201 732 c 4
 171 732 146 733 110 734 c 4
 94 735 81 733 67 740 c 4
 55 746 49 755 47 766 c 4
 45 778 38 795 53 796 c 4
EndSplineSet
Validated: 1
EndChar

StartChar: four
Encoding: 52 52 4
Width: 664
Flags: HMW
HStem: 404 72
VStem: 343 84
LayerCount: 2
Fore
SplineSet
311 657 m 0
 299 631 280 620 261 596 c 0
 237 564 227 544 203 512 c 0
 183 485 168 471 148 444 c 0
 137 429 132 420 123 404 c 0
 107 374 104 356 86 326 c 0
 78 314 70 308 66 296 c 0
 64 288 64 280 68 276 c 0
 69.43359375 273.849609375 82.169921875 269.64453125 93.689453125 269.64453125 c 0
 98.240234375 269.64453125 102.6015625 270.30078125 106 272 c 0
 124 280 134 284 153 294 c 0
 181 309 199 317 228 330 c 0
 247 338 257 341 276 350 c 0
 297 360 308 367 328 378 c 0
 353 391 367 401 393 412 c 0
 399 414 406 415 411 415 c 0
 413 415 415 414 416 414 c 0
 424 414 429 415 433 420 c 0
 453 443 448 461 458 488 c 0
 469 517 477 533 488 562 c 0
 498 586 504 600 513 624 c 0
 523 650 528 664 536 690 c 0
 544 717 535 736 553 760 c 0
 565 778 584 782 608 788 c 0
 619 791 630 788 638 780 c 0
 646 772 646 763 641 754 c 0
 636 745 622 747 616 738 c 0
 604 718 605 705 596 684 c 0
 587 662 586 651 578 629 c 0
 569 602 566 584 556 558 c 0
 544 527 527 511 516 480 c 0
 514 475 515 467 521 466 c 0
 522 466 523 466 523 466 c 0
 539 466 547 475 563 476 c 0
 575 477 591 479 593 470 c 0
 595 463 597 456 597 450 c 0
 597 437 594 426 586 412 c 0
 582 404 572 404 561 404 c 0
 561 404 561 404 560 404 c 0
 545 404 530 414 518 414 c 0
 514 414 511 413 506 410 c 0
 481 393 486 373 478 348 c 0
 463 303 458 276 448 230 c 0
 438 184 431 158 426 112 c 0
 426 106 426 101 426 95 c 0
 426 84 427 73 427 62 c 0
 427 58 427 55 426 52 c 0
 425 34 417 20 396 12 c 0
 393.723632812 11.1865234375 391.552734375 10.8232421875 389.474609375 10.8232421875 c 0
 378.774414062 10.8232421875 370.536132812 20.4638671875 363 28 c 0
 351 41 342 57 342 70 c 0
 342 98 356 114 365 142 c 0
 377 185 372 209 382 253 c 0
 391 291 413 335 413 352 c 0
 413 357 412 359 408 360 c 0
 407 360 404 361 402 361 c 0
 390 361 384 352 368 341 c 0
 332 317 308 316 268 296 c 0
 220 273 195 257 143 242 c 0
 125 236 111 235 96 235 c 0
 86 235 75 236 63 236 c 0
 52 236 46 240 36 246 c 0
 30 250 24 254 23 260 c 0
 21 273 20 283 20 293 c 0
 20 300 20 307 21 316 c 0
 23 334 29 344 38 360 c 0
 50 384 61 397 76 420 c 2
 111 476 l 2
 126 500 133 514 151 536 c 0
 171 561 187 573 206 598 c 0
 218 614 219 626 231 642 c 0
 243 657 249 667 268 676 c 0
 278 681 288 681 298 676 c 0
 308 671 315 666 311 657 c 0
EndSplineSet
Validated: 1
EndChar

StartChar: five
Encoding: 53 53 5
Width: 647
Flags: HMW
HStem: 726 48<373 453 429 453 429 454>
LayerCount: 2
Fore
SplineSet
195 720 m 0
 194 722 194 724 194 726 c 0
 194 736 205 745 217 750 c 0
 245 761 264 758 294 762 c 0
 326 766 345 769 377 772 c 0
 402 774 417 774 442 774 c 0
 466 774 478 773 502 770 c 0
 537 765 563 769 592 752 c 0
 613 739 627 724 627 703 c 0
 627 700 627 697 627 694 c 0
 626 687 615 685 605 685 c 0
 594 685 582 687 573 689 c 0
 552 694 546 705 525 710 c 0
 496 717 483 723 454 726 c 0
 444 727 436 727 430 727 c 0
 416 727 406 726 388 726 c 0
 372 726 360 729 349 729 c 0
 340 729 332 727 323 719 c 0
 303 702 312 689 307 666 c 0
 302 645 293 634 284 614 c 0
 274 590 269 576 257 552 c 0
 247 533 236 524 227 504 c 0
 222 494 212 483 212 475 c 0
 212 472 214 468 219 466 c 0
 223 464 226 463 230 463 c 0
 246 463 259 477 279 480 c 0
 290 482 298 483 307 483 c 0
 312 483 318 482 324 482 c 0
 342 481 353 482 369 476 c 0
 389 468 397 459 412 446 c 0
 432 428 443 418 457 396 c 0
 467 379 470 368 472 348 c 0
 472 341 473 336 473 330 c 0
 473 319 472 309 472 296 c 0
 472 283 473 273 473 262 c 0
 473 256 473 251 472 244 c 0
 467 220 459 206 449 184 c 0
 434 153 427 135 407 106 c 0
 392 84 383 72 362 54 c 0
 344 39 331 30 309 22 c 0
 294 17 283 15 269 15 c 0
 264 15 258 15 252 16 c 0
 223 18 210 26 182 32 c 0
 162 37 149 41 129 44 c 0
 108 47 95 48 74 48 c 0
 62 48 52 44 43 44 c 0
 39 44 36 44 32 46 c 0
 24 49 20 59 20 68 c 0
 20 72 21 76 23 78 c 0
 32 89 48 86 64 88 c 0
 73 89 80 90 89 90 c 0
 99 90 111 89 123 87 c 0
 145 84 160 81 182 79 c 0
 206 77 215 68 239 68 c 0
 257 68 269 68 284 76 c 0
 302 85 307 95 319 108 c 0
 334 124 343 133 354 150 c 0
 366 170 370 183 379 204 c 0
 389 227 398 240 402 264 c 0
 403 275 404 284 404 293 c 0
 404 305 403 315 399 330 c 0
 393 355 384 369 372 392 c 0
 364 406 365 420 347 426 c 0
 337 430 327 431 318 431 c 0
 306 431 293 429 279 426 c 0
 250 420 237 411 209 400 c 0
 188 392 179 383 157 378 c 0
 146 376 137 373 129 373 c 0
 123 373 117 374 112 378 c 0
 102 384 93 394 93 403 c 0
 93 407 94 411 98 414 c 0
 119 440 129 458 148 486 c 0
 164 510 174 523 188 548 c 0
 198 567 200 578 209 598 c 0
 217 616 224 625 229 644 c 0
 231 654 233 662 233 670 c 0
 233 677 232 684 228 693 c 0
 220 708 201 704 195 720 c 0
EndSplineSet
Validated: 1
EndChar

StartChar: glyph17
Encoding: 54 54 6
Width: 460
Flags: HMW
VStem: 20 65<134 161>
LayerCount: 2
Fore
SplineSet
278 390 m 0
 270 391 262 391 256 391 c 0
 240 391 224 388 212 378 c 0
 190 361 197 341 185 318 c 0
 177 304 165 299 160 284 c 0
 154 264 156 252 155 232 c 0
 154 230 154 228 154 226 c 0
 154 219 155 213 155 206 c 0
 155 203 155 200 155 196 c 0
 154 190 151 179 145 182 c 0
 123 191 125 219 101 219 c 4
 100 219 100 219 100 219 c 0
 86 218 85 208 85 197 c 0
 85 195 85 192 85 190 c 0
 85 187 85 183 85 180 c 0
 83 171 82 165 82 158 c 0
 82 150 84 142 85 132 c 0
 86 122 88 117 92 108 c 0
 96 99 95 92 105 86 c 0
 121 76 132 71 152 68 c 0
 174 65 191 63 211 63 c 0
 220 63 229 63 240 64 c 0
 266 66 283 67 305 78 c 0
 327 89 336 100 350 118 c 0
 364 137 370 150 375 172 c 0
 376 180 378 187 378 194 c 0
 378 205 374 216 372 230 c 0
 367 255 360 268 350 292 c 0
 342 310 335 319 325 336 c 0
 316 350 313 359 302 372 c 0
 294 381 290 389 278 390 c 0
372 770 m 0
 380 777 391 778 402 776 c 0
 413 774 423 771 428 762 c 0
 430 756 432 750 432 744 c 0
 432 740 431 735 430 730 c 0
 424 709 413 700 402 680 c 0
 388 656 383 641 365 618 c 0
 356 606 344 603 335 592 c 0
 319 571 316 558 302 536 c 0
 287 513 280 500 262 478 c 0
 254 469 246 467 240 458 c 0
 234 450 222 441 230 434 c 0
 244 422 260 428 280 422 c 0
 298 416 308 413 322 404 c 0
 343 390 355 381 370 362 c 0
 392 333 400 315 415 284 c 0
 425 263 430 250 435 228 c 0
 439 210 440 198 440 184 c 0
 440 178 440 172 440 166 c 0
 439 144 435 132 425 112 c 0
 415 93 408 83 390 68 c 0
 370 52 356 44 330 34 c 0
 301 23 283 19 252 16 c 0
 234 14 222 13 208 13 c 0
 193 13 178 14 158 16 c 0
 136 18 121 20 100 28 c 0
 84 34 77 41 65 52 c 0
 50 65 40 72 32 88 c 0
 22 109 20 123 20 146 c 0
 20 176 24 192 30 222 c 0
 35 245 39 258 50 280 c 0
 61 304 73 315 88 338 c 0
 108 369 119 387 140 418 c 0
 162 450 176 468 198 500 c 0
 218 528 231 542 250 570 c 0
 269 597 274 615 292 642 c 0
 312 672 329 687 348 718 c 0
 360 737 356 753 372 770 c 0
EndSplineSet
Validated: 1
EndChar

StartChar: seven
Encoding: 55 55 7
Width: 786
Flags: HMW
HStem: 620 56 712 62
LayerCount: 2
Fore
SplineSet
61.9912109375 692 m 0
 99.9912109375 692 116.991210938 678 154.991210938 676 c 0
 168.991210938 675 180.991210938 675 191.991210938 675 c 0
 196.991210938 675 202.991210938 675 207.991210938 675 c 0
 223.991210938 675 240.991210938 676 254.991210938 680 c 0
 285.991210938 690 308.991210938 698 319.991210938 700 c 0
 339.991210938 703 355.991210938 705 379.991210938 710 c 0
 410.991210938 717 428.991210938 722 459.991210938 730 c 0
 488.991210938 737 505.991210938 743 534.991210938 748 c 0
 575.991210938 756 599.991210938 759 641.991210938 764 c 0
 673.991210938 768 695.991210938 774 725.991210938 774 c 0
 730.991210938 774 734.991210938 774 739.991210938 774 c 0
 753.991210938 773 764.991210938 767 766.991210938 756 c 0
 766.991210938 754 766.991210938 753 766.991210938 752 c 0
 766.991210938 738 757.991210938 730 749.991210938 716 c 0
 729.991210938 683 719.991210938 664 694.991210938 634 c 0
 668.991210938 603 649.991210938 588 619.991210938 560 c 0
 575.991210938 518 570.991210938 502 531.991210938 458 c 0
 512.991210938 438 490.991210938 416 471.991210938 396 c 0
 451.991210938 375 450.991210938 372 428.991210938 352 c 0
 406.991210938 331 384.991210938 312 359.991210938 292 c 2
 319.991210938 260 l 2
 241.991210938 194 197.991210938 157 121.991210938 90 c 0
 113.991210938 83 113.991210938 73 111.991210938 64 c 0
 107.991210938 50 144.991210938 45 129.991210938 39 c 0
 117.991210938 34 108.991210938 32 99.9912109375 32 c 0
 84.9912109375 32 70.9912109375 38 46.9912109375 40 c 0
 35.9912109375 41 34.9912109375 50 29.9912109375 58 c 0
 24.9912109375 67 15.9912109375 75 21.9912109375 84 c 0
 45.9912109375 116 71.9912109375 126 101.991210938 154 c 0
 160.991210938 207 187.991210938 242 249.991210938 292 c 0
 259.991210938 300 265.991210938 307 275.991210938 315 c 0
 326.991210938 355 350.991210938 375 394.991210938 420 c 0
 408.991210938 434 409.991210938 443 421.991210938 456 c 0
 510.991210938 551 573.991210938 596 661.991210938 692 c 0
 667.991210938 698 666.991210938 712 656.991210938 712 c 0
 652.991210938 712 648.991210938 712 646.991210938 712 c 0
 614.991210938 712 593.991210938 703 559.991210938 696 c 0
 484.991210938 680 444.991210938 666 369.991210938 652 c 0
 334.991210938 645 314.991210938 647 279.991210938 642 c 0
 231.991210938 635 207.991210938 623 159.991210938 620 c 0
 155.991210938 620 152.991210938 620 148.991210938 620 c 0
 127.991210938 620 113.991210938 625 89.9912109375 630 c 0
 70.9912109375 634 56.9912109375 634 44.9912109375 646 c 0
 35.9912109375 655 36.9912109375 664 41.9912109375 676 c 0
 45.9912109375 684 50.9912109375 692 61.9912109375 692 c 0
EndSplineSet
Validated: 1
EndChar

StartChar: eight
Encoding: 56 56 8
Width: 621
Flags: HMW
HStem: 600 44 610 42<416 424 388 441>
VStem: 88 41 188 65<364 400> 302 61
LayerCount: 2
Fore
SplineSet
204 344 m 0x38
 172 334 168 318 146 296 c 0
 137 287 133 282 129 270 c 0
 124 255 118 249 109 235 c 0
 104 227 97 223 96 214 c 0
 95 206 95 200 95 193 c 0
 95 176 97 162 106 142 c 0
 114 123 128 115 144 100 c 0
 163 83 172 73 196 60 c 0
 212 51 225 49 244 44 c 0
 253 42 260 38 269 42 c 0
 289 52 290 59 300 76 c 0
 304 82 305 87 305 93 c 0
 305 99 302 106 302 115 c 0
 301 131 296 138 295 154 c 0
 295 155 294 157 294 158 c 0
 294 167 297 175 297 183 c 0
 297 187 296 190 296 193 c 0
 290 215 281 216 269 237 c 0
 260 252 260 269 251 284 c 0
 241 301 241 312 229 328 c 0
 223 336 215 347 204 344 c 0x38
234 420 m 0
 282 425 299 451 339 472 c 0
 367 487 383 495 409 512 c 0
 435 529 448 541 474 558 c 0
 486 566 495 569 509 576 c 0
 518 581 529 582 531 590 c 0
 532 596 524 599 516 600 c 0
 511 601 509 601 505 601 c 0
 496 601 490 600 481 600 c 0
 479 600 476 600 474 600 c 0xb8
 458 602 450 610 434 610 c 0x78
 400 610 383 603 349 600 c 0xb8
 323 598 307 598 281 596 c 0
 253 594 239 595 211 592 c 0
 209 592 206 592 204 592 c 0
 195 592 187 593 179 593 c 0
 169 593 161 591 156 584 c 0
 152 580 151 576 151 572 c 0
 151 560 164 549 169 534 c 0
 174 520 178 512 184 498 c 0
 190 482 191 473 201 458 c 0
 210 443 211 420 231 420 c 0
 231 420 233 420 234 420 c 0
139 636 m 0
 150 634 155 633 160 633 c 0
 166 633 170 635 190 639 c 0
 200 641 201 647 199 656 c 0
 193 682 200 699 184 722 c 0
 180 729 170 733 161 733 c 0
 157 733 153 732 149 730 c 0
 134 720 130 706 130 690 c 0
 130 688 130 687 130 685 c 0
 130 676 129 665 129 656 c 0
 129 646 130 638 139 636 c 0
226 640 m 0
 226 638 231 637 239 637 c 0
 259 637 298 642 326 644 c 0xb8
 356 646 374 652 404 652 c 0x78
 445 652 468 647 509 644 c 0
 525 643 536 645 551 640 c 0
 569 634 585 628 596 616 c 0
 600 611 601 606 601 600 c 0
 601 592 597 582 592 574 c 0
 577 551 558 544 534 526 c 0
 509 507 490 502 461 486 c 0
 439 474 425 467 404 454 c 0
 384 442 375 433 354 422 c 0
 335 413 323 412 304 404 c 0
 292 399 284 395 274 388 c 0
 265 382 254 380 254 372 c 0
 254 356 265 349 274 334 c 0
 289 310 299 297 314 274 c 0
 329 253 340 243 351 220 c 0
 360 202 363 191 364 172 c 0
 364 168 364 165 364 162 c 0
 364 141 360 127 359 104 c 0
 359 103 359 101 359 100 c 0
 359 88 360 78 360 68 c 0
 360 60 359 52 354 44 c 0
 342 25 321 20 296 12 c 0
 286 9 279 8 270 8 c 0
 261 8 254 9 244 10 c 0
 216 13 201 15 176 24 c 0
 155 32 145 39 129 52 c 0
 109 67 98 77 84 96 c 0
 70 113 68 124 59 144 c 0
 50 164 45 176 41 196 c 0
 40 201 39 206 39 211 c 0
 39 217 40 223 44 230 c 0
 52 251 60 261 74 280 c 0
 85 295 92 303 106 316 c 0
 121 331 130 339 146 352 c 0
 156 360 164 363 174 372 c 0
 182 380 189 384 189 394 c 0
 189 407 173 408 165 420 c 0
 154 438 147 448 137 466 c 0
 128 481 130 494 124 510 c 0
 114 538 124 559 104 584 c 0
 103 586 101 587 99 587 c 0
 92 587 82 578 74 574 c 0
 68 571 59 557 51 558 c 0
 41 559 42 569 37 576 c 0
 28 586 20 593 20 605 c 0
 20 606 20 606 20 607 c 0
 21 617 43 618 54 620 c 0
 87.319851663 626.748324387 95.2014098437 639.18913403 95.2014098437 656.27202596 c 0
 95.2014098437 671.609707406 88.8479728723 690.689437893 88.8479728723 712.7509771 c 0
 88.8479728723 724.376406788 90.6122025962 736.829828568 96 750 c 0
 101 762 109 771 124 776 c 0
 134 780 142 781 151 781 c 0
 161 781 172 779 184 774 c 0
 203 767 204 757 214 742 c 0
 220 732 218 736 220 725 c 0
 225 703 226 680 226 659 c 0
 226 652 226 646 226 640 c 0
EndSplineSet
Validated: 1
EndChar

StartChar: nine
Encoding: 57 57 9
Width: 489
Flags: HMW
VStem: 22 65 249 60
LayerCount: 2
Fore
SplineSet
309 740 m 0
 289 733 279 725 261 714 c 0
 240 701 228 694 209 680 c 0
 188 664 175 655 159 636 c 0
 141 617 136 603 124 582 c 0
 113 564 104 554 96 534 c 0
 90 518 86 508 86 494 c 0
 86 491 86 488 86 484 c 0
 87 474 92 462 104 462 c 0
 129 463 138 476 159 486 c 0
 179 496 191 499 209 512 c 0
 231 529 241 541 261 560 c 0
 280 579 290 590 309 610 c 0
 320 622 326 630 336 642 c 0
 345 653 354 657 359 670 c 0
 363 683 366 692 366 703 c 0
 366 708 365 714 364 720 c 0
 363 731 357 740 346 744 c 0
 341.455078125 745.623046875 337.4375 746.297851562 333.604492188 746.297851562 c 0
 325.629882812 746.297851562 318.455078125 743.376953125 309 740 c 0
309 116 m 0
 309 106 313 102 321 94 c 0
 330 84 347 85 349 72 c 0
 349 70 349 69 349 67 c 0
 349 57 342 49 331 42 c 0
 321 36 312 33 301 33 c 0
 299 33 295 34 291 34 c 0
 279 36 271 41 266 50 c 0
 255 67 253 78 251 98 c 0
 249 114 249 126 249 139 c 0
 249 147 249 154 249 164 c 0
 250 193 253 209 259 238 c 0
 264 264 273 278 279 304 c 0
 285 330 285 344 291 370 c 0
 296 391 303 402 309 422 c 0
 315 438 318 448 324 464 c 0
 332 487 339 499 344 522 c 0
 346 537 359 554 359 566 c 0
 359 572 355 576 346 578 c 0
 344 578 342 579 341 579 c 0
 320 579 323 546 304 530 c 0
 272 501 252 487 214 462 c 0
 188 445 172 435 141 424 c 0
 127 419 116 416 104 416 c 0
 99 416 92 417 86 418 c 0
 67 421 60 430 46 440 c 0
 35 447 23 450 21 462 c 0
 20 467 20 472 20 477 c 0
 20 493 27 506 29 526 c 0
 31 546 33 558 39 578 c 0
 44 596 49 606 59 622 c 0
 71 640 78 650 96 666 c 0
 111 679 123 683 139 696 c 0
 154 708 160 716 174 728 c 0
 188 739 194 746 209 756 c 0
 220 764 227 769 239 774 c 0
 254 780 265 779 281 782 c 0
 301 786 311 792 331 792 c 0
 346 792 355 790 369 784 c 0
 384 778 395 774 401 762 c 0
 402 760 403 757 403 755 c 0
 403 747 398 740 398 733 c 0
 398 730 399 727 401 724 c 0
 402.63671875 722.545898438 404.305664062 721.950195312 406.026367188 721.950195312 c 0
 413.768554688 721.950195312 422.545898438 734 434 734 c 0
 444 734 448 731 456 726 c 0
 464 721 469 716 469 708 c 0
 469 686 462 674 456 652 c 0
 451 634 447 625 439 608 c 0
 431 591 424 582 419 566 c 0
 411 545 411 533 406 512 c 0
 401 489 399 477 391 454 c 0
 387 441 383 434 379 422 c 0
 370 395 365 379 359 352 c 0
 351 324 350 308 344 280 c 0
 339 258 333 246 329 224 c 0
 325 204 328 192 324 172 c 0
 320 150 310 138 309 116 c 0
EndSplineSet
Validated: 1
EndChar

StartChar: A
Encoding: 65 65 10
Width: 517
Flags: HMW
HStem: 385 46
VStem: 20 72 358 55 373 48
LayerCount: 2
Fore
SplineSet
343 625 m 0xd0
 314 545 311 497 285 417 c 0
 277 393 239 368 239 352 c 0
 239 347 242 344 250 341 c 0
 256 339 263 338 269 338 c 0
 303 338 325 374 360 391 c 0
 371 396 387 396 388 407 c 0
 388 413 389 418 389 423 c 0
 389 461 377 487 373 529 c 0
 368 570 375 595 363 635 c 0
 361 642 345 632 343 625 c 0xd0
240 475 m 0
 211 428 205 398 183 349 c 0
 158 294 131 265 120 207 c 0
 120 206 120 206 120 205 c 0
 120 203 121 202 122 202 c 0
 129 202 152 227 160 239 c 0
 164 245 165 252 165 258 c 0
 165 259 165 260 165 261 c 0
 165 266 165 271 168 277 c 0
 172 288 180 293 185 303 c 0
 196 324 201 337 210 359 c 0
 226 399 240 420 250 461 c 0
 251 467 244 481 240 475 c 0
370 333 m 0
 370 341 357 347 348 343 c 0
 294 320 264 304 220 269 c 0
 201 254 206 238 195 219 c 0
 156 157 137 121 93 61 c 0
 83 47 76 39 58 31 c 0
 50 27 41 30 35 35 c 0
 25 42 20 49 20 59 c 0
 20 60 20 61 20 62 c 0
 20 77 28 86 33 101 c 0
 47 143 54 167 68 209 c 0
 78 238 81 255 93 283 c 0
 111 322 125 343 145 381 c 0
 166 423 178 447 198 489 c 0
 217 529 224 552 243 593 c 0
 253 614 260 625 270 645 c 0
 290 683 298 706 320 743 c 0
 325 750 329 756 338 759 c 0
 346.3359375 761.381835938 354.671875 764.47265625 361.953125 764.47265625 c 0
 366.899414062 764.47265625 371.359375 763.045898438 375 759 c 0
 395 738 392 720 398 695 c 0
 409 652 415 627 420 583 c 0
 421 572 422 562 422 553 c 0
 422 534 420 517 420 496 c 0
 420 492 420 488 420 483 c 0xd0
 420 482 421 480 421 479 c 0
 421 468 418 460 418 451 c 0
 418 444 419 437 425 429 c 0
 426.655273438 426.516601562 428.99609375 425.631835938 431.76953125 425.631835938 c 0
 438.640625 425.631835938 448.168945312 431.059570312 456.5234375 431.059570312 c 0
 457.020507812 431.059570312 457.512695312 431.041015625 458 431 c 0
 472 430 484 432 490 423 c 0
 494 417 497 412 497 406 c 0
 497 400 494 395 490 389 c 0
 484 381 471 388 460 385 c 0
 448 382 431 383 430 373 c 0
 421 319 420.75 276 420.75 233 c 0
 420.75 230.470703125 420.750976562 227.94140625 420.750976562 225.409179688 c 0
 420.750976562 184.903320312 420.529296875 143.823242188 413 93 c 0
 411 79 403 69 385 65 c 0
 373 62 360 69 358 79 c 0xe0
 355 91 354 102 354 112 c 0
 354 134 358 152 360 179 c 0
 362 229 372 261 372 305 c 0
 372 314 371 323 370 333 c 0
EndSplineSet
Validated: 1
EndChar

StartChar: B
Encoding: 66 66 11
Width: 666
Flags: HMW
HStem: 601 92
VStem: 27 120<81 119 81 119> 42 82
LayerCount: 2
Fore
SplineSet
189 641 m 0x80
 199 667 219 677 247 693 c 0
 250 695 252 695 255 695 c 0
 260 695 266 693 271 693 c 0
 274 693 276 694 279 695 c 0
 300 705 305 720 327 729 c 0
 358 742 377 745 412 751 c 0
 454 759 481 770 519 770 c 0
 526 770 534 770 542 769 c 0
 577 765 593 750 617 729 c 0
 636 713 642 699 644 677 c 0
 644 675 645 672 645 670 c 0
 645 652 636 641 627 623 c 0
 615 595 606 578 587 553 c 0
 554.214916051 509.286554734 524.407288416 497.66347197 524.407288416 485.972603104 c 0
 524.407288416 477.337779762 540.668044962 468.665977519 584 447 c 0
 606 436 626 431 637 413 c 0
 644 401 646 391 646 381 c 0
 646 372 644 362 644 351 c 0
 644 340 645 330 645 321 c 0
 645 307 644 295 637 279 c 0
 627 255 611 244 589 225 c 0
 564 203 547 193 517 175 c 0
 482 153 463 140 424 123 c 0
 399 112 381 114 357 103 c 0
 342 96 343 81 327 77 c 0
 300 70 280 65 256 65 c 0
 247 65 238 65 227 67 c 0
 215 69 213 84 219 93 c 0
 230 109 247 111 267 121 c 0
 296 135 314 139 342 153 c 0
 373 169 387 182 417 197 c 0
 436 206 449 205 467 215 c 0
 491 229 500 240 519 257 c 0
 531 268 537 274 547 287 c 0
 562 307 580 317 582 341 c 0
 582 343 582 346 582 348 c 0
 582 366 574 380 557 395 c 0
 538 411 520 416 492 419 c 0
 487 420 482 420 477 420 c 0
 461 420 449 416 432 409 c 0
 417 403 419 389 404 383 c 0
 393 378 383 373 372 373 c 0
 367 373 362 374 357 377 c 0
 333 388 318 401 317 423 c 0
 317 424 l 0
 317 437 340 437 352 447 c 0
 371 462 378 471 397 487 c 0
 421 508 435 518 459 539 c 0
 477 554 486 563 502 579 c 0
 517 595 524 605 539 621 c 0
 545 628 555 631 557 639 c 0
 560 647 562 654 562 661 c 0
 562 667 560 672 557 679 c 0
 551 690 541 695 527 699 c 0
 512 703 499 705 486 705 c 0
 479 705 471 704 462 703 c 0
 431 698 415 689 387 677 c 0
 362 667 349 661 327 647 c 0
 308 635 301 625 282 613 c 0
 273 607 265 601 254 601 c 0
 254 601 253 601 252 601 c 0
 236 602 229 609 217 617 c 0
 206 624 189 628 189 637 c 0
 189 638 188 640 189 641 c 0x80
52 649 m 0
 53 665 63 674 79 683 c 0
 86 687 94 690 102 690 c 0
 107 690 112 689 117 687 c 0
 133 681 142 673 147 659 c 0xc0
 151 649 139 643 137 633 c 0
 131 614 125 604 124 585 c 0
 124 580 124 576 124 572 c 0
 124 545 130 524 130 496 c 0
 130 494 129 491 129 489 c 0
 128 442 120 416 119 369 c 0
 119 365 119 362 119 359 c 0
 119 325 124 303 124 267 c 0xa0
 124 249 121 236 121 220 c 0
 121 215 121 211 122 205 c 0
 127 171 139 153 147 119 c 0
 149 110 151 102 151 95 c 0
 151 90 150 86 147 81 c 0
 128 54 117 31 79 23 c 0
 76 22 74 22 71 22 c 0
 50 22 36 39 27 55 c 0
 22 64 20 71 20 79 c 0
 20 91 25 104 27 119 c 0xc0
 29 132 42 138 42 151 c 0xa0
 45 213 45 266 45 317 c 0
 45 357 45 395 45 434 c 0
 45 499 46 566 52 649 c 0
EndSplineSet
Validated: 1
EndChar

StartChar: C
Encoding: 67 67 12
Width: 801
Flags: HMW
HStem: 39 60
LayerCount: 2
Fore
SplineSet
577 783 m 0
 607 775 628 763 633 738 c 0
 633 737 633 735 633 734 c 0
 633 716 610 709 595 693 c 0
 583 681 578 658 565 658 c 0
 563 658 561 659 558 660 c 0
 553 663 551 666 551 670 c 0
 551 680 561 694 561 704 c 0
 561 708 559 711 554 714 c 0
 546 718 538 720 530 720 c 0
 511 720 492 710 472 702 c 0
 397 670 353 651 292 603 c 0
 242 564 228 532 194 483 c 0
 166 444 153 421 134 378 c 0
 119 344 119 323 108 288 c 0
 103 274 93 265 93 251 c 0
 93 250 93 250 93 249 c 0
 95 225 107 213 119 192 c 0
 129 175 137 167 153 153 c 0
 173 136 183 124 209 114 c 0
 237 104 255 108 284 105 c 0
 319 102 339 99 374 99 c 0
 415 99 439 99 479 105 c 0
 509 110 526 116 554 126 c 0
 580 136 593 144 618 156 c 0
 634 164 648 165 659 177 c 0
 681 200 669 232 704 243 c 0
 710 245 716 246 721 246 c 0
 744 246 764 232 775 213 c 0
 779 207 781 200 781 194 c 0
 781 179 771 166 757 153 c 0
 717 117 685 100 629 81 c 0
 551 55 504 45 419 39 c 0
 395 37 373 36 353 36 c 0
 306 36 266 41 209 51 c 0
 165 59 142 69 108 93 c 0
 69 120 47 138 29 177 c 0
 22 192 20 205 20 218 c 0
 20 235 24 252 25 273 c 0
 27 307 33 327 44 360 c 0
 58 397 69 418 89 453 c 0
 104 481 115 495 134 522 c 0
 146 540 153 549 168 567 c 0
 190 594 202 611 228 636 c 0
 259 665 276 681 314 705 c 0
 349 728 371 740 412 756 c 0
 442 768 462 769 494 774 c 0
 518 778 535 786 556 786 c 0
 562 786 570 785 577 783 c 0
EndSplineSet
Validated: 1
EndChar

StartChar: D
Encoding: 68 68 13
Width: 720
Flags: HMW
VStem: 34 72 106 78
LayerCount: 2
Fore
SplineSet
106 51 m 0x80
 101 35 92 26 76 15 c 0
 68 10 59 8 51 13 c 0
 39 22 36 32 34 45 c 0x80
 27 78 20 100 20 128 c 0
 20 135 20 143 21 151 c 0
 22 159 42 137 46 145 c 0
 66 181 65 206 74 245 c 0
 78 261 75 271 79 287 c 0
 84 308 92 319 94 341 c 0
 103 426 98 474 106 559 c 0
 107 577 108 589 119 605 c 0
 123.647460938 611.971679688 133.094726562 618.942382812 141.765625 618.942382812 c 0
 144.2890625 618.942382812 146.74609375 618.352539062 149 617 c 0
 168 607 165 592 171 575 c 0
 179 554 184 541 184 519 c 0x40
 183 474 175 448 169 403 c 0
 160 336 155 298 144 231 c 0
 132 161 127 120 106 51 c 0x80
106 763 m 0x40
 136 753 137 724 169 719 c 0
 211 713 246 711 280 711 c 0
 312 711 342 712 376 712 c 0
 401 712 426 712 456 709 c 0
 501 705 526 699 566 683 c 0
 601 669 621 657 646 633 c 0
 672 608 682 590 694 559 c 0
 699 546 700 535 700 524 c 0
 700 516 700 507 699 497 c 0
 698 466 697 447 686 417 c 0
 668 374 656 349 626 311 c 0
 581 254 552 225 496 175 c 0
 474 155 458 149 429 135 c 0
 381 112 354 101 304 83 c 0
 300.083984375 81.576171875 296.16796875 81.29296875 292.251953125 81.29296875 c 0
 271 79 l 0
 250 68 249 46 224 43 c 0
 221 43 217 42 214 42 c 0
 193 42 173 51 169 67 c 0
 168 70 168 73 168 76 c 0
 168 95 187 108 199 127 c 0
 209 144 207 164 231 167 c 0
 232 167 232 167 233 167 c 0
 248 167 237 135 254 135 c 0
 285 135 296 155 324 167 c 0
 356 181 376 186 406 203 c 0
 428 215 437 225 456 241 c 0
 486 266 503 280 531 307 c 0
 552 329 566 342 581 367 c 0
 599 397 610 415 616 447 c 0
 623 479 634 504 634 530 c 0
 634 543 631 556 624 571 c 0
 608 606 573 618 529 631 c 0
 469 649 430 642 366 647 c 0
 288 653 244 650 166 659 c 0
 136 663 116 665 91 679 c 0
 70 691 60 703 54 723 c 0
 53 726 53 729 53 731 c 0
 53 739 57 746 66 753 c 0
 74 760 84 765 95 765 c 0
 99 765 102 764 106 763 c 0x40
EndSplineSet
Validated: 1
EndChar

StartChar: E
Encoding: 69 69 14
Width: 848
Flags: HMW
VStem: 246 85
LayerCount: 2
Fore
SplineSet
246 740 m 0
 247 746 253 749 261 751 c 0
 268.200195312 752.799804688 274.3203125 754.240234375 280.65625 754.240234375 c 0
 284.879882812 754.240234375 289.200195312 753.599609375 294 752 c 0
 312 746 327 741 331 727 c 0
 333 721 333 717 333 712 c 0
 333 695 325 681 321 661 c 0
 313 628 309 610 298 578 c 0
 287 545 278 527 263 494 c 0
 238 437 221 407 197 349 c 0
 178 304 174 278 156 233 c 0
 146 209 137 196 126 172 c 0
 117 152 112 141 103 121 c 0
 99 113 95 109 94 100 c 0
 93 91 88 80 99 77 c 0
 104 76 110 75 115 75 c 0
 129 75 140 80 156 85 c 0
 244 112 291 134 377 163 c 0
 442 185 480 193 544 217 c 0
 553 220 550 230 559 233 c 0
 567.938476562 236.192382812 575.654296875 238.569335938 583.708984375 238.569335938 c 0
 588.26953125 238.569335938 592.938476562 237.807617188 598 236 c 0
 612 231 618 223 623 211 c 0
 625 205 627 199 627 193 c 0
 627 187 626 182 621 176 c 0
 613 167 600 171 586 167 c 0
 414 110 319 70 143 19 c 0
 138 17 133 17 128 17 c 0
 115 17 105 21 91 25 c 0
 72 30 62 33 47 43 c 0
 33 52 22 59 21 73 c 0
 21 76 20 78 20 81 c 0
 20 102 29 116 36 139 c 0
 45 165 51 179 62 205 c 0
 76 239 87 258 99 293 c 0
 105 310 103 320 111 337 c 0
 126 372 140 391 156 425 c 0
 172 458 179 477 193 511 c 0
 214 563 234 592 246 646 c 0
 248 655 249 663 249 671 c 0
 249 689 244 704 244 723 c 0
 244 728 245 734 246 740 c 0
233 396 m 0
 244 405 252 408 268 412 c 0
 269.627929688 412.46484375 271.134765625 412.673828125 272.547851562 412.673828125 c 0
 283.28515625 412.673828125 288.627929688 400.651367188 301 398 c 0
 327 393 343 390 367 390 c 0
 370 390 374 390 378 390 c 0
 410 391 429 397 461 404 c 0
 505 413 529 418 573 430 c 0
 592 435 602 439 618 446 c 0
 628 450 631 458 641 460 c 0
 653 462 662 464 671 464 c 0
 679 464 687 463 696 460 c 0
 708 456 711 448 713 438 c 0
 714 430 708 427 703 420 c 0
 694 409 693 399 678 392 c 0
 657 382 642 386 618 380 c 0
 573 369 549 360 503 350 c 0
 468 343 448 339 413 336 c 0
 381 333 359 331 333 331 c 0
 318 331 302 332 283 334 c 0
 264 336 253 343 243 356 c 0
 235 365 227 375 227 384 c 0
 227 388 229 393 233 396 c 0
346 686 m 0
 364 701 391 689 411 700 c 0
 469 732 510 739 576 756 c 0
 628 770 659 773 713 780 c 0
 728 782 739 784 751 784 c 0
 758 784 765 783 773 782 c 0
 794 778 808 774 823 760 c 0
 831 752 829 743 823 734 c 0
 817 725 810 719 796 718 c 0
 795 718 792 718 791 718 c 0
 772 718 761 729 743 729 c 0
 741 729 739 728 736 728 c 0
 672 719 637 706 578 686 c 0
 512 663 479 652 413 618 c 0
 407 615 402 614 397 614 c 0
 389 614 381 616 373 620 c 0
 358 626 351 633 346 646 c 0
 342 655 338 663 338 671 c 0
 338 676 340 681 346 686 c 0
EndSplineSet
Validated: 1
EndChar

StartChar: F
Encoding: 70 70 15
Width: 647
VWidth: 0
Flags: W
HStem: 337 42.6221<147.323 252.85> 702 63<500.703 544.527>
VStem: 28.4727 78<36.2188 141.038> 80.4727 70<386.062 511.395> 103.473 65<420.008 613>
LayerCount: 2
Fore
SplineSet
25.47265625 643 m 0xc8
 21.47265625 651 15.47265625 662 25.47265625 665 c 0
 145.47265625 704 217.47265625 715 341.47265625 746 c 0
 370.47265625 753 385.47265625 762 415.47265625 762 c 0
 436.47265625 762 452.47265625 765 468.47265625 765 c 0
 483.47265625 765 498.47265625 764 517.47265625 760 c 0
 536.47265625 756 542.47265625 745 553.47265625 733 c 0
 558.47265625 728 559.47265625 723 557.47265625 717 c 0
 556.47265625 711 551.47265625 709 545.47265625 706 c 0
 537.47265625 703 533.47265625 702 525.47265625 702 c 0
 519.47265625 702 515.47265625 704 510.47265625 707 c 0
 505.47265625 710 505.47265625 714 500.47265625 716 c 0
 495.47265625 718 491.47265625 718 485.47265625 717 c 0
 451.47265625 713 434.47265625 709 400.47265625 702 c 0
 356.47265625 693 332.47265625 688 288.47265625 678 c 0
 248.47265625 669 226.47265625 663 186.47265625 653 c 0
 181.47265625 652 176.47265625 651 172.47265625 648 c 0
 168.47265625 644 168.47265625 641 167.47265625 636 c 0
 166.47265625 629 166.47265625 625 166.47265625 618 c 0
 166.47265625 595 167.47265625 581 167.47265625 558 c 0
 167.47265625 540 168.47265625 530 168.47265625 512 c 0xc8
 168.47265625 499 168.47265625 492 166.47265625 480 c 0
 164.47265625 464 160.47265625 455 156.47265625 439 c 0
 154.5546875 427.490234375 147.321289062 404.533203125 147.321289062 390.78125 c 0
 147.321289062 384.123046875 149.016601562 379.622070312 153.830078125 379.622070312 c 0
 154.624023438 379.622070312 155.502929688 379.745117188 156.47265625 380 c 0
 172.47265625 384 181.47265625 383 197.47265625 387 c 0
 225.47265625 393 240.47265625 397 266.47265625 405 c 0
 311.47265625 420 334.47265625 429 378.47265625 446 c 0
 409.47265625 458 426.47265625 466 457.47265625 480 c 0
 473.47265625 487 482.47265625 492 498.47265625 500 c 0
 528.47265625 514 545.47265625 523 577.47265625 536 c 0
 583.47265625 538 587.47265625 538 593.47265625 537 c 0
 598.47265625 536 600.47265625 533 605.47265625 530 c 0
 610.47265625 526 612.47265625 525 616.47265625 520 c 0
 621.47265625 513 626.47265625 509 627.47265625 501 c 0
 628.47265625 495 626.47265625 492 622.47265625 487 c 0
 618.47265625 481 616.47265625 476 608.47265625 473 c 0
 527.47265625 439 479.47265625 425 395.47265625 393 c 0
 340.47265625 372 312.47265625 353 253.47265625 339 c 0
 240.47265625 336 229.47265625 335 218.47265625 335 c 0
 203.47265625 335 189.47265625 337 174.47265625 337 c 0
 165.47265625 337 154.47265625 336 143.47265625 334 c 0
 134.47265625 332 135.47265625 323 133.47265625 316 c 0
 128.47265625 301 128.47265625 292 123.47265625 276 c 2
 111.47265625 236 l 1
 111.47265625 221 l 1
 116.47265625 217 l 1
 125.47265625 223 l 1
 132.47265625 238 l 1
 142.47265625 243 l 1
 150.47265625 236 l 1
 150.47265625 212 l 1xd0
 146.47265625 192 l 1
 136.47265625 177 l 1
 131.47265625 156 l 2
 126.47265625 132 123.47265625 118 118.47265625 94 c 0
 114.47265625 76 114.47265625 64 106.47265625 47 c 0
 104.47265625 40 101.47265625 35 92.47265625 32 c 0
 81.47265625 28 73.47265625 30 62.47265625 32 c 0
 52.47265625 34 47.47265625 38 38.47265625 42 c 0
 34.47265625 44 31.47265625 45 31.47265625 48 c 0
 29.47265625 62 28.47265625 72 28.47265625 83 c 0
 28.47265625 89 28.47265625 96 28.47265625 104 c 0xe0
 30.47265625 143 34.47265625 165 40.47265625 204 c 0
 48.47265625 252 80.47265625 310 80.47265625 349 c 0
 80.47265625 350 80.47265625 351 80.47265625 352 c 0xd0
 79.47265625 359 65.47265625 351 57.47265625 355 c 0
 53.47265625 358 56.47265625 362 56.47265625 366 c 0
 56.47265625 372 53.47265625 376 55.47265625 382 c 0
 59.47265625 389 65.47265625 390 71.47265625 395 c 0
 73.47265625 397 78.47265625 396 78.47265625 399 c 0
 87.47265625 458 90.47265625 491 95.47265625 550 c 0
 97.47265625 566 103.47265625 578 103.47265625 591 c 0
 103.47265625 597 101.47265625 603 97.47265625 610 c 0
 96.47265625 613 94.47265625 613 91.47265625 613 c 0
 84.47265625 613 75.47265625 608 65.47265625 608 c 0
 64.47265625 608 63.47265625 608 61.47265625 608 c 0
 52.47265625 610 51.47265625 617 45.47265625 622 c 0
 36.47265625 630 30.47265625 633 25.47265625 643 c 0xc8
EndSplineSet
Validated: 1
EndChar

StartChar: G
Encoding: 71 71 16
Width: 692
Flags: W
HStem: 14 53<123.001 282.417> 408 57.8115<461.445 556.176> 773 20G<394 402.5>
VStem: 20 67<100.716 292.622> 459 55<693.373 733.764> 594 78<336.869 393.45>
LayerCount: 2
Fore
SplineSet
405 729 m 0
 377 712 363 703 339 683 c 0
 318 665 309 653 291 633 c 0
 276 617 268 607 256 590 c 0
 238 566 230 552 214 528 c 0
 199 505 189 493 175 469 c 0
 157 439 148 421 136 389 c 0
 125 360 121 342 113 312 c 0
 102 268 96 243 90 199 c 0
 88 189 87 183 87 175 c 0
 87 170 88 165 89 159 c 0
 91 141 93 130 101 113 c 0
 106 103 111 97 121 90 c 0
 135 80 142 73 160 69 c 0
 166 67 171 67 176 67 c 0
 184 67 193 68 203 69 c 0
 223 71 234 70 253 76 c 0
 277 84 286 91 306 103 c 0
 332 118 345 127 369 144 c 0
 398 164 413 177 439 199 c 0
 467 223 482 238 508 264 c 0
 529 285 544 296 563 318 c 0
 575 332 580 341 588 357 c 0
 593 366 595 370 594 379 c 0
 593 385 590 388 584 391 c 0
 579 394 572 393 566 394 c 0
 550 397 541 399 525 402 c 0
 513 404 505 408 494 408 c 0
 491 408 489 408 486 407 c 0
 474 404 474 396 465 389 c 0
 455 381 450 376 440 369 c 0
 428 360 419 355 405 348 c 0
 397 344 393 341 384 340 c 0
 380.5 339.75 377.375 339.625 374.46875 339.625 c 0
 365.75 339.625 359 340.75 350 343 c 0
 341 345 335 348 330 354 c 0
 326 359 327 363 328 369 c 0
 329 375 333 378 338 383 c 0
 348 394 355 398 366 408 c 0
 381 421 386 432 405 442 c 0
 426 454 441 459 466 464 c 0
 472.283203125 465.256835938 477.512695312 465.811523438 482.499023438 465.811523438 c 0
 489.416992188 465.811523438 495.864257812 464.743164062 504 463 c 0
 525 458 535 451 556 444 c 0
 570 439 577 436 591 433 c 0
 605 430 614 433 626 428 c 0
 644 421 659 419 668 404 c 0
 671 399 672 394 672 389 c 0
 672 380 667 372 664 361 c 0
 660 349 654 344 648 333 c 0
 630 306 624 290 603 265 c 0
 577 234 556 219 525 191 c 0
 504 172 493 161 469 144 c 0
 435 120 414 108 378 85 c 0
 352 69 340 57 311 45 c 0
 279 31 259 25 223 19 c 0
 206 16 192 14 177 14 c 0
 168 14 159 15 148 16 c 0
 127 19 114 24 95 34 c 0
 79 43 71 51 59 63 c 0
 47 75 38 82 29 97 c 0
 23 107 21 114 20 125 c 0
 20 127 20 129 20 131 c 0
 20 143 23 152 24 166 c 0
 25 177 24 183 25 194 c 0
 26 213 27 224 31 243 c 0
 36 268 38 282 46 307 c 0
 50 318 54 324 58 335 c 0
 66 361 65 376 74 401 c 0
 85 434 94 451 110 482 c 0
 129 517 142 536 164 569 c 0
 179 592 190 603 208 625 c 0
 230 654 244 671 268 700 c 0
 286 720 293 734 314 752 c 0
 335 770 349 781 378 790 c 0
 385 792 391 793 397 793 c 0
 408 793 419 791 433 790 c 0
 435 790 438 790 440 790 c 0
 447 790 453 790 459 790 c 0
 467 790 476 790 485 786 c 0
 500 781 506 773 514 761 c 0
 518 755 514 749 514 742 c 0
 514 736 514 732 513 726 c 0
 512 717 513 712 509 703 c 0
 507 695 502 692 496 686 c 0
 491 682 487 681 481 680 c 0
 475 679 470 678 466 681 c 0
 461 685 466 688 465 693 c 0
 464 701 461 706 459 714 c 0
 457 722 462 729 454 734 c 0
 445 740 437 737 426 736 c 0
 417 735 413 734 405 729 c 0
EndSplineSet
Validated: 1
EndChar

StartChar: H
Encoding: 72 72 17
Width: 641
Flags: HMW
HStem: 501 54<215.673 250.673>
VStem: 27.6728 69 348.673 61<47 115> 486.673 64 547.673 74
LayerCount: 2
Fore
SplineSet
111 575 m 0xf0
 137 651 151 696 182 771 c 0
 187 782 193 788 204 796 c 0
 210 800 217 798 226 799 c 0
 234 800 236 799 244 799 c 0
 249 799 253 800 258 798 c 0
 262 796 265 794 266 791 c 0
 268 787 267 785 268 781 c 0
 269 777 270 775 269 771 c 0
 267 767 261 766 259 763 c 0
 255 759 254 757 253 753 c 0
 252 748 249 746 251 741 c 0
 255 735 264 735 268 729 c 0
 272 722 269 717 269 709 c 0
 269 702 272 697 266 692 c 0
 257 686 249 689 238 688 c 0
 235.92 688 234.0128 688.0064 232.261504 688.0064 c 0
 212.1216 688.0064 212.6 687.16 208 666 c 0
 204 654 202 647 197 635 c 0
 186 609 177 595 166 569 c 0
 165 567 164 564 166 563 c 0
 177 558 185 556 196 555 c 0
 215 554 230 554 245 554 c 0
 265 554 285 554 311 555 c 0
 327 555 336 555 352 557 c 0
 401 564 481 576 484 616 c 0
 487 664 518 718 538 753 c 0
 543 762 546 768 548 777 c 0xe8
 549 783 546 787 551 792 c 0xf0
 556 798 560 799 569 801 c 0
 574 802 577 800 582 800 c 0
 593 799 600.672851562 802 610.672851562 797 c 0
 618.672851562 793 621.672851562 788 621.672851562 781 c 0xe8
 622.672851562 770 617.672851562 764 612.672851562 753 c 0
 592.672851562 705 579.672851562 679 557.672851562 631 c 0
 555.672851562 627 551.672851562 625 550.672851562 621 c 0
 549.672851562 618 550.672851562 616 550.672851562 613 c 0
 550.672851562 610 549.672851562 608 550.672851562 605 c 0
 551.672851562 599 553.672851562 596 555.672851562 590 c 0
 556.672851562 586 559.672851562 583 560.672851562 579 c 0
 561.672851562 573 562.672851562 569 560.672851562 563 c 0
 556.672851562 554 549.672851562 551 543.672851562 543 c 0
 535.672851562 534 529.672851562 529 525.672851562 519 c 0
 452.672851562 329 l 0
 444.672851562 306 442.672851562 292 437.672851562 269 c 0
 431.672851562 241 427.672851562 224 422.672851562 196 c 0
 420.672851562 182 419.672851562 174 417.672851562 160 c 0
 416.672851562 151 413.672851562 147 412.672851562 138 c 0
 411.672851562 129 410.672851562 124 410.672851562 115 c 0
 410.672851562 108 408.672851562 103 410.672851562 96 c 0
 412.672851562 90 416.672851562 87 422.672851562 83 c 0
 427.672851562 80 431.672851562 80 437.672851562 78 c 0
 443.672851562 76 450.672851562 76 455.672851562 73 c 0
 460.672851562 70 462.672851562 67 463.672851562 62 c 0
 464.672851562 56 461.672851562 53 460.672851562 48 c 0
 458.672851562 42 455.672851562 39 453.672851562 34 c 0
 449.672851562 25 450.672851562 20 442.672851562 12 c 0
 440.672851562 9 435.672851562 10 430.672851562 9 c 0
 424.672851562 8 418.672851562 6 412.672851562 6 c 0
 402.672851562 6 396.672851562 6 387.672851562 10 c 0
 372.672851562 16 361.672851562 19 351.672851562 30 c 0
 345.672851562 37 348.672851562 43 348.672851562 51 c 0
 352.672851562 120 354.672851562 158 362.672851562 227 c 0
 363.672851562 236 368.672851562 240 370.672851562 249 c 0
 375.672851562 269 372.672851562 280 378.672851562 300 c 0
 389.672851562 340 401.672851562 362 413.672851562 401 c 0
 421.672851562 425 422.672851562 439 430.672851562 463 c 0
 436.672851562 482 443.672851562 492 447.672851562 511 c 0
 448.672851562 515 447.672851562 518 442.672851562 520 c 0
 434.672851562 523 430.672851562 523 421.672851562 521 c 0
 389.672851562 514 372.672851562 501 340.672851562 498 c 0
 331.672851562 497 321.672851562 497 313.672851562 497 c 0
 285.672851562 497 262.672851562 501 228.672851562 501 c 0
 215.672851562 501 205.672851562 501 195.672851562 501 c 0
 185.672851562 501 175.672851562 501 162.672851562 500 c 0
 156.672851562 499 152.672851562 498 150.672851562 494 c 0
 135.672851562 463 130.672851562 446 121.672851562 413 c 0
 119.672851562 404 118.672851562 397 118.672851562 390 c 0
 118.672851562 388 118.672851562 385 118.672851562 383 c 0
 118.672851562 378 118.672851562 373 117.672851562 367 c 0
 116.672851562 354 114.672851562 347 112.672851562 335 c 0
 111.672851562 326 107.672851562 322 106.672851562 313 c 0
 104.672851562 292 102.672851562 279 101.672851562 258 c 0
 101.672851562 253 101.672851562 248 101.672851562 243 c 0
 101.672851562 231 101.672851562 221 101.672851562 209 c 0
 101.672851562 166.699851165 110.834837959 143.609074814 115.672851562 117 c 0
 116.672851562 111 111.672851562 106 105.672851562 103 c 0
 93.6728515625 96 85.6728515625 93 70.6728515625 92 c 0
 60.6728515625 91 52.6728515625 93 46.6728515625 99 c 0
 31.6728515625 114 26.6728515625 125 20.6728515625 143 c 0
 18.6728515625 152 21.6728515625 157 22.6728515625 166 c 0
 23.6728515625 180 26.6728515625 188 27.6728515625 202 c 0
 28.6728515625 227 28.6728515625 240 30.6728515625 265 c 0
 35.6728515625 307 38.6728515625 330 47.6728515625 372 c 0
 52.6728515625 398 58.6728515625 413 66.6728515625 439 c 0
 82.6728515625 492 92 522 111 575 c 0xf0
EndSplineSet
Validated: 1
EndChar

StartChar: I
Encoding: 73 73 18
Width: 788
VWidth: 0
Flags: HMW
HStem: 0 62 73 25 694 60 748 40
VStem: 336 92 358 68
LayerCount: 2
Fore
SplineSet
79 762 m 0xe8
 87 770 95 773 107 776 c 0
 114 778 121 779 127 779 c 0
 132 779 137 778 143 776 c 0
 152 774 152 767 158 762 c 0
 163 759 167 756 173 756 c 0
 205 756 228 753 253 753 c 0
 267 753 283 754 301 754 c 0xe8
 319 754 327 761 343 761 c 0
 369 761 385 764 411 764 c 0
 435 764 447 770 471 774 c 0
 493 778 505 781 527 784 c 0
 548 787 561 788 583 788 c 0
 624 788 651 792 684 792 c 0
 699 792 715 792 733 792 c 0
 745 792 755 785 761 776 c 0
 767 767 773 753 762 748 c 0
 754 744 746 745 738 745 c 0
 726 745 713 748 698 748 c 0
 679 748 666 748 650 748 c 0
 646 748 642 748 637 748 c 0
 617 748 607 745 587 742 c 0
 569 739 561 737 543 734 c 0
 529 732 522 731 508 728 c 0
 496 725 489 722 477 720 c 0
 433.443298969 712.628865979 426.25868849 718.279838453 426.25868849 705.057320639 c 0
 426.25868849 698.547773408 428 687.463917526 428 668 c 0xd8
 428 649 429 633 429 618 c 0
 429 592 428 567 426 534 c 0xd4
 425 514 421 502 417 482 c 0
 413 465 410 455 408 438 c 0
 404 416 403 404 401 382 c 0
 399 362 397 352 393 332 c 0
 391 316 388 308 384 292 c 0
 378 269 374 255 368 232 c 0
 363 217 360 209 358 194 c 0
 356 180 353 172 353 158 c 0
 353 148 353 141 353 133 c 0
 353 129 353 125 353 120 c 0
 354 111 356 106 361 98 c 0
 363 95 366 92 371 92 c 0
 393 92 406 93 428 97 c 0xd8
 444 100 452 107 468 110 c 0
 493 115 507 114 532 118 c 0
 550 121 558 123 576 126 c 0
 602 130 617 133 643 137 c 0
 655 139 664 138 676 141 c 0
 682 143 682 147 688 150 c 0
 693 153 696 155 701 156 c 0
 711 158 717 161 728 158 c 0
 736 156 736 151 741 146 c 0
 745 142 747 139 748 134 c 0
 749 131 750 128 748 125 c 0
 743 118 739 115 731 110 c 0
 719 102 712 99 697 93 c 0
 686 88 678 86 666 83 c 0
 645 77 632 74 611 70 c 0
 592 66 581 67 561 63 c 0
 541 59 529 54 509 49 c 0
 493 45 484 44 468 42 c 0
 450 39 441 38 423 36 c 0
 405 34 395 33 377 30 c 0
 365 28 358 26 346 23 c 0
 335 20 327 19 316 16 c 0
 310 15 307 13 301 12 c 0
 283 9 274 5 256 4 c 0
 221 2 197 0 168 0 c 0
 159 0 151 0 141 0 c 0
 118 2 63 10 43 22 c 0
 33 28 27 33 23 43 c 0
 21 48 20 53 20 57 c 0
 20 63 22 68 23 76 c 0
 24 84 27 88 33 94 c 0
 39 100 46 103 56 104 c 0
 64 105 71 106 78 106 c 0
 86 106 94 105 104 104 c 0
 110 103 113 100 119 98 c 0
 125 96 131 95 137 92 c 0
 141 90 143 89 144 86 c 0
 146 82 150 79 146 76 c 0
 141 72 135 73 127 73 c 0
 121 73 118 73 112 73 c 0
 108 73 103 76 103 73 c 0
 103 69 107 65 111 64 c 0
 120 61 124 62 133 62 c 0
 181 63 208 63 256 66 c 0
 266 67 277 66 279 73 c 0
 291 121 285 149 291 198 c 0
 295 229 301 247 307 278 c 0
 311 299 316 311 318 332 c 0
 324 374 323 397 331 439 c 0
 340 486 362 529 362 590 c 0
 362 605 361 621 358 640 c 0xd4
 357 651 341 651 336 662 c 0
 335 664 336 666 336 668 c 0
 336 676 340 684 340 691 c 0
 340 695 338 698 333 700 c 0
 323 705 315 706 306 706 c 0
 266 706 224 701 193 701 c 0
 187 701 182 701 176 701 c 0
 170 701 164 701 157 703 c 0
 139 707 131 713 116 722 c 0
 101 731 92 735 81 748 c 0
 77 752 75 758 79 762 c 0xe8
EndSplineSet
Validated: 1
EndChar

StartChar: J
Encoding: 74 74 19
Width: 848
Flags: HMW
HStem: 687 87 739 37 739 47
VStem: 438 89
LayerCount: 2
Fore
SplineSet
21 732 m 0x90
 21 733 20 735 20 736 c 0
 20 750 32 759 48 767 c 0
 51 769 55 769 58 769 c 0
 67 769 75 765 86 763 c 0
 98 761 106 757 118 754 c 0
 149 747 167 742 198 736 c 0
 211 734 220 732 232 732 c 0
 235 732 238 732 241 732 c 0
 267 734 281 738 306 744 c 0
 328 749 342 752 363 760 c 0
 373 764 374 773 384 774 c 0x90
 386 774 389 774 391 774 c 0
 402 774 410 771 423 768 c 0
 435 765 441 759 453 758 c 0
 468 757 480 756 492 756 c 0
 506 756 520 757 538 760 c 0
 557 763 565 768 584 771 c 0
 589 772 595 773 599 773 c 0
 609 773 617 776 628 776 c 0
 631 776 634 776 638 776 c 0x50
 666 778 680 785 708 787 c 0
 716 788 722 788 728 788 c 0
 738 788 747 787 759 786 c 0
 764 786 769 785 774 785 c 0
 776 785 777 785 779 785 c 0
 791 785 802 785 813 777 c 0
 821 771 828 762 828 754 c 0
 828 750 826 746 821 743 c 0
 810 738 799 736 789 736 c 0
 775 736 761 739 744 739 c 0
 741 739 737 739 733 739 c 0x30
 698 736 679 733 644 728 c 0
 616 724 601 723 573 718 c 0
 551 714 538 715 517 707 c 0
 503.611874208 701.644749683 499.584159388 698.281076169 499.584159388 692.553944267 c 0
 499.584159388 685.447767032 505.785083439 674.702894751 508 652 c 0
 508 649 509 646 509 643 c 0
 509 598 528 536 528 482 c 0
 528 460 528 438 527 410 c 0
 527 339 487 266 463 206 c 0
 455 187 452 177 444 158 c 0
 428 125 417 84 393 58 c 0
 383 47 378 41 366 32 c 0
 352 22 346 11 327 8 c 0
 311 5 296 4 283 4 c 0
 261 4 241 7 214 8 c 0
 195 9 185 9 167 17 c 0
 146 26 137 36 121 50 c 0
 105 64 98 74 86 90 c 0
 81 97 75 100 74 108 c 0
 73 119 73 127 73 136 c 0
 73 148 74 160 77 176 c 0
 78 180 84 180 89 180 c 0
 98 180 102 180 111 178 c 0
 115 177 117 175 119 172 c 0
 125 164 125 158 133 150 c 0
 142 141 148 137 159 130 c 0
 169 123 178 121 188 114 c 0
 212 97 228 76 268 76 c 0
 345 76 351 157 374 208 c 0
 380 223 385 231 391 246 c 0
 409 290 421 315 433 360 c 0
 438 378 437 389 438 408 c 0
 439 425 439.4 441.24 439.4 456.936 c 0
 439.4 519.72 433 573.8 433 633 c 0
 433 639 433 645 431 653 c 0
 427 665 422 670 413 680 c 0
 409 684 405 687 399 687 c 0
 368 687 349 683 318 680 c 0
 284 677 265 672 231 670 c 0
 226 670 222 670 218 670 c 0
 207 670 199 671 186 672 c 0
 158 674 142 676 114 680 c 0
 105 681 102 684 94 686 c 0
 80 691 70 691 58 698 c 0
 40 709 23 714 21 732 c 0x90
EndSplineSet
Validated: 1
EndChar

StartChar: K
Encoding: 75 75 20
Width: 639
Flags: HMW
VStem: 21 45 216 84
LayerCount: 2
Fore
SplineSet
111 375 m 0
 127 446 140 501 158 567 c 0
 164 591 167 605 175 629 c 0
 183 653 187 667 195 691 c 0
 204 721 200 739 216 767 c 0
 225 781 236 787 254 793 c 0
 259 795 263 795 268 795 c 0
 275 795 282 793 288 789 c 0
 298 781 300 773 300 764 c 0
 300 762 300 761 300 759 c 0
 298 742 287 735 279 719 c 0
 245 638 209 544 185 464 c 0
 183 455 182 448 182 441 c 0
 182 437 183 433 183 429 c 0
 183 399.333333333 187.777777778 388.111111111 196.555555556 388.111111111 c 0
 214.111111111 388.111111111 247.666666667 433 291 465 c 0
 319 485 337 495 363 516 c 0
 408 551 430 574 475 609 c 0
 523 645 536 658 590 693 c 0
 593 695 595 696 598 696 c 0
 609 696 619 683 619 671 c 0
 619 666 618 662 614 659 c 0
 549 599 496 562 434 489 c 0
 425 479 423 469 423 459 c 0
 423 347 482 200 528 114 c 0
 533 105 550 106 550 96 c 0
 550 87 539 83 528 81 c 0
 523 80 519 80 515 80 c 0
 507 80 500 82 494 87 c 0
 460 116 443 135 423 171 c 0
 399 213 399 239 389 285 c 0
 380 323 379 345 374 384 c 0
 374 387 373 390 373 393 c 0
 373 403 375 412 375 421 c 0
 375 430 373 439 363 447 c 0
 360 449 357 450 355 450 c 0
 344 450 333 431 321 423 c 0
 276 393 247 380 209 345 c 0
 190 327 201 304 179 288 c 0
 177 287 176 286 174 286 c 0
 111 286 133 228 108 156 c 0
 102 139 60 -0 47 -0 c 0
 46 -0 45 -0 44 0 c 0
 26 4 23 18 21 33 c 0
 20 38 20 43 20 48 c 0
 20 63 24 75 29 93 c 0
 58 204 82 264 111 375 c 0
EndSplineSet
Validated: 1
EndChar

StartChar: a
Encoding: 97 97 21
Width: 585
Flags: HMW
HStem: 119 0G<174 176> 128 1 128 1
VStem: 166 14<122 123> 166 17 166 19
LayerCount: 2
Fore
SplineSet
368 175 m 0x80
 354 164 347 157 330 149 c 0
 313 141 301 139 281 132 c 0
 263 125 253 120 233 115 c 0
 208 109 193 107 168 105 c 0
 158 104 150 104 142 104 c 0
 132 104 123 105 111 106 c 0
 99 108 93 110 83 114 c 0
 70 119 61 123 50 131 c 0
 30.6718876065 145.056809013 20.6059883212 168.718876065 20.6059883212 194.552104016 c 0
 20.6059883212 212.825434689 25.642509389 232.185116149 36 250 c 0
 43 263 50 270 59 282 c 0
 95 330 130 372 177 410 c 0
 188 419 196 423 209 431 c 0
 232 446 245 454 268 468 c 0
 289 480 299 488 321 499 c 0
 335 506 344 508 359 513 c 0
 379.607017798 521.768943744 408.09570897 525.731989089 436.964681336 525.731989089 c 0
 473.93938002 525.731989089 511.537887488 519.231056256 534 508 c 0
 542 504 542 497 541 491 c 0
 540 486 536 484 531 481 c 0
 523 477 519 474 509 474 c 0
 494 474 486 479 471 481 c 0
 460 483 454 484 442 483 c 0
 425 482 414 481 399 476 c 0
 372 468 357 462 333 450 c 0
 309 438 297 431 276 416 c 0
 252 399 241 388 220 370 c 0
 209 361 204 354 194 344 c 0
 185 336 180 332 172 323 c 0
 159 308 154 298 143 283 c 0
 131 265 124 256 113 238 c 0
 104.637605325 226.292647455 87.8836532869 208.291626888 87.8836532869 189.844731182 c 0
 87.8836532869 186.232280943 88.5261552073 182.602731716 90 179 c 0
 94 169 99 163 111 157 c 0
 122 152 131 152 144 151 c 0
 151 150 157 150 162 150 c 0
 171 150 178 151 189 152 c 0
 238 156 307 190 337 217 c 0
 379 250 416 303 416 372 c 2
 416 399 l 2
 416 409 413 416 413 424 c 0
 413 427 414 430 415 434 c 0
 417 441 421 446 429 451 c 0
 440 457 447 460 460 461 c 0
 472 462 479 460 490 455 c 0
 498 452 501 449 504 444 c 0
 508.768894869 432.077762827 510.520946294 419.691395894 510.520946294 407.038522953 c 0
 510.520946294 382.546475312 503.956187913 357.055856784 500 332 c 0
 493 282 483 239 483 174 c 2
 483 136 l 2
 483 112.609964517 486.381659897 104.8049703 491.848305184 104.8049703 c 0
 500.638387413 104.8049703 514.819193707 124.98476166 529 133 c 0
 534 136 539 136 546 136 c 0
 554 136 560 136 563 132 c 0
 567 127 566 121 563 115 c 0
 553 96 544 86 530 68 c 0
 523 60 519 54 509 47 c 0
 499 40 493 37 480 32 c 0
 468.680519879 27.8384264262 459.106764175 25.9490655852 451.011197831 25.9490655852 c 0
 410.473920127 25.9490655852 407 73.3219248054 407 120 c 0
 407 135 409 142 410 157 c 0
 410.582040645 165.148569024 410.865962535 171.914951095 410.865962535 177.478973164 c 0
 410.865962535 194.038446779 408.351100036 199.947913516 403.695628207 199.947913516 c 0
 396.47771853 199.947913516 384.114245921 185.742830614 368 175 c 0x80
EndSplineSet
Validated: 1
EndChar

StartChar: b
Encoding: 98 98 22
Width: 480
Flags: HMW
HStem: 412 38
VStem: 133 50 398 60<250 312>
LayerCount: 2
Fore
SplineSet
193 412 m 0
 143 409 152 333 143 290 c 0
 138 265 136 251 130 226 c 0
 123.828711777 201.93197593 106.993680021 164.15342446 106.993680021 135.462475531 c 0
 106.993680021 117.662403636 113.473569938 103.360196488 133 98 c 0
 138 97 142 96 146 96 c 0
 158 96 169 101 183 106 c 0
 212 116 224 127 250 140 c 0
 271 151 284 156 303 168 c 0
 319 178 329 184 343 196 c 0
 354 206 358 214 368 226 c 0
 378 239 388 245 393 260 c 0
 397 272 398 281 398 292 c 0
 398 296 398 301 398 306 c 0
 398 318 401 325 393 336 c 0
 383 352 371 359 355 372 c 0
 321 401 257 412 197 412 c 0
 196 412 195 412 193 412 c 0
190 498 m 0
 188 486 184 479 188 467 c 0
 190 458 194 455 205 452 c 0
 212 450 217 450 223 450 c 0
 230 450 237 450 245 450 c 0
 248 450 251 450 255 450 c 0
 280 447 294 446 318 440 c 0
 344 433 361 429 383 416 c 0
 403 404 410 394 425 378 c 0
 437 364 445 355 453 338 c 0
 459 322 457 312 458 296 c 0
 459 285 460 277 460 268 c 0
 460 262 459 257 458 250 c 0
 454 231 450 220 440 202 c 0
 430 185 420 177 405 162 c 0
 391 149 384 143 368 132 c 0
 349 120 338 114 318 104 c 0
 296 92 282 87 258 76 c 0
 232 65 219 55 190 48 c 0
 183 46 177 46 171 46 c 0
 163 46 155 47 145 48 c 0
 127 50 121 59 103 60 c 0
 94 61 89 57 83 52 c 0
 74 44 77 30 65 28 c 0
 53 26 52 39 43 46 c 0
 35 52 25 53 23 60 c 0
 21 66 20 70 20 75 c 0
 20 83 22 90 23 100 c 0
 24 119 26 129 30 148 c 0
 34 164 36 174 40 190 c 0
 44 208 44 218 48 236 c 0
 50 251 51 259 55 274 c 0
 59 290 61 300 65 316 c 0
 69 332 69 340 73 356 c 0
 75 368 81 374 83 386 c 0
 84 393 87 398 83 404 c 0
 77 414 64 415 58 426 c 0
 52 435 44 444 53 452 c 0
 57 456 62 457 68 457 c 0
 72 457 77 457 82 457 c 0
 85 457 89 457 93 458 c 0
 102 460 106 460 109 467 c 0
 111 471 111 475 111 478 c 0
 111 485 112 491 112 499 c 0
 112 500 113 501 113 502 c 0
 114 516 117 524 120 538 c 0
 163 748 l 0
 167 757 163 766 173 772 c 0
 182 778 192 772 203 772 c 0
 214 772 222 777 230 770 c 0
 241 759 245 748 245 734 c 0
 245 732 245 730 245 728 c 0
 208 586 l 0
 203 570 199 562 195 546 c 0
 191 527 193 517 190 498 c 0
EndSplineSet
Validated: 1
EndChar

StartChar: c
Encoding: 99 99 23
Width: 571
Flags: HMW
HStem: 102 110 472 64
VStem: 22 80
LayerCount: 2
Fore
SplineSet
394 519 m 0
 405 512 397 502 393 492 c 0
 389 483 386 477 376 472 c 0
 370.5 469.5 365.5 468.75 360.375 468.75 c 0
 355.25 468.75 350 469.5 344 470 c 0
 332.189453125 470.84375 326.784179688 476.668945312 316.9765625 476.668945312 c 0
 315.158203125 476.668945312 313.189453125 476.46875 311 476 c 0
 291 472 283 465 267 454 c 0
 238 435 223 423 198 402 c 0
 180 388 169 380 157 363 c 0
 141 341 137 326 127 302 c 0
 119 286 117 276 112 260 c 0
 107 241 102 231 102 212 c 0
 102 191 104 180 109 159 c 0
 111 149 111 142 119 134 c 0
 134 118 146 109 166 98 c 0
 175 93 182 94 192 94 c 0
 217 95 232 97 256 102 c 0
 275 106 285 110 301 118 c 0
 336 134 352 146 386 164 c 0
 416 180 429 195 461 206 c 0
 477 211 489 214 503 214 c 0
 510 214 518 213 526 212 c 0
 540 209 549 202 551 190 c 0
 552 187 551 185 551 182 c 0
 551 168 544 157 541 140 c 0
 539 128 546 119 536 110 c 0
 528.717773438 103.446289062 519.844726562 101.134765625 510.153320312 101.134765625 c 0
 506.536132812 101.134765625 502.8046875 101.456054688 499 102 c 0
 483 104 478 114 462 118 c 0
 453 120 447 119 439 116 c 0
 411 106 397 97 371 86 c 0
 336 72 318 62 282 50 c 0
 260 43 246 41 222 38 c 0
 200 36 186 32 168 32 c 0
 161 32 154 33 146 34 c 0
 122 38 111 47 93 60 c 0
 75 74 69 85 57 102 c 0
 43 121 32 130 26 152 c 0
 22 167 20 178 20 190 c 0
 20 199 21 208 22 220 c 0
 24 249 29 266 41 294 c 0
 55 325 67 342 89 370 c 0
 118 407 140 425 172 460 c 0
 188 477 194 488 214 501 c 0
 234 514 249 518 274 526 c 0
 289 531 299 536 315 536 c 0
 317 536 317 536 319 536 c 0
 349 534 370 534 394 519 c 0
EndSplineSet
Validated: 1
EndChar

StartChar: d
Encoding: 100 100 24
Width: 627
Flags: HMW
HStem: 80 42<209 305> 454 46
VStem: 21 75 347 71 411 65
LayerCount: 2
Fore
SplineSet
377 448 m 0xf0
 375 454 367 456 359 454 c 0
 337 448 325 441 306 430 c 0
 268 408 250 394 216 369 c 0
 191 350 177 340 156 318 c 0
 138 300 125 290 116 268 c 0
 103 237 96 216 96 187 c 0
 96 183 96 179 96 174 c 0
 97 162 110 158 122 152 c 0
 153 137 173 130 209 122 c 0
 217 120 223 120 229 120 c 0
 239 120 249 121 261 122 c 0
 262 122 264 122 265 122 c 0
 279 122 292 120 304 120 c 0
 314 120 325 121 334 128 c 0
 346 136 347 146 347 157 c 0
 347 162 347 168 347 173 c 0
 347 176 347 179 347 182 c 0
 351 213 350 230 352 261 c 0
 353 275 354 284 356 298 c 0
 361 323 370 337 374 362 c 0
 375 366 374 370 374 374 c 0
 374 382 373 390 373 399 c 0
 373 401 374 403 374 406 c 0
 375 418 379 427 379 437 c 0
 379 440 378 444 377 448 c 0xf0
476 748 m 0xe8
 475 663 465 615 456 530 c 0
 442 401 424 329 419 200 c 0xf0
 419 196 418 192 418 188 c 0
 418 171 422 156 441 148 c 0
 444 147 446 146 448 146 c 0
 461 146 471 163 486 170 c 0
 504 178 515 181 531 190 c 0
 545 197 547 206 562 212 c 0
 572 216 582 217 591 212 c 0
 602 206 611 198 606 188 c 0
 597 170 582 164 562 152 c 0
 534 135 517 127 486 114 c 0
 470 108 460 109 442 104 c 0
 430 100 420 99 411 90 c 0xe8
 407 86 421 83 419 78 c 0xf0
 415 70 410 63 400 63 c 0
 386 64 382 75 370 80 c 0
 354 86 345 92 326 92 c 0
 314 92 311 80 299 80 c 0
 288 80 277 79 267 79 c 0
 230 79 203 82 160 87 c 0
 135 90 119 94 97 104 c 0
 73 115 60 123 44 141 c 0
 30 155 25 166 21 184 c 0
 20 188 20 191 20 194 c 0
 20 206 24 215 29 228 c 0
 35 244 42 253 52 267 c 0
 77 300 90 319 119 350 c 0
 134 366 146 373 164 388 c 0
 178 401 181 410 197 422 c 0
 226 443 244 453 276 471 c 0
 296 482 307 489 329 496 c 0
 343 500 351 500 366 500 c 0
 374 500 383 490 385 496 c 0
 387 499 387 502 387 505 c 0
 387 514 382 521 382 531 c 0
 382 532 382 533 382 534 c 0
 391 622 389 672 411 759 c 0
 413 768 430 765 441 765 c 0
 450 765 455 762 461 759 c 0
 467 756 476 754 476 748 c 0xe8
EndSplineSet
Validated: 1
EndChar

StartChar: e
Encoding: 101 101 25
Width: 690
Flags: HMW
HStem: 24 52
LayerCount: 2
Fore
SplineSet
302 432 m 4
 244 388 221 356 179 302 c 4
 173 294 173 284 182 278 c 4
 200 266 214 266 238 264 c 4
 243 264 247 263 251 263 c 4
 269 263 282 267 302 270 c 4
 342 277 364 282 404 292 c 4
 420 296 432 298 446 306 c 4
 471 320 490 327 506 348 c 4
 523 369 531 386 531 409 c 4
 531 412 531 415 531 418 c 4
 530 438 515 447 497 461 c 4
 485 471 475 476 456 478 c 4
 451 478 446 479 442 479 c 4
 429 479 418 476 404 472 c 4
 363 460 334 456 302 432 c 4
617 160 m 4
 625 165 630 169 639 167 c 4
 650 164 656 158 662 150 c 4
 668 142 674 136 669 128 c 4
 654 105 641 92 613 77 c 4
 565 52 536 43 482 28 c 4
 442 17 419 14 377 11 c 4
 340 8 314 6 285 6 c 4
 268 6 249 7 227 8 c 4
 193 10 174 14 142 22 c 4
 116 28 98 30 77 44 c 4
 58 56 54 69 43 86 c 4
 33 101 26 109 24 126 c 4
 22 141 20 152 20 164 c 4
 20 173 22 183 26 194 c 4
 46 247 58 278 97 324 c 4
 141 376 176 400 234 443 c 4
 263 465 282 476 317 492 c 4
 356 509 379 520 423 526 c 4
 432 527 440 528 448 528 c 4
 465 528 480 525 498 518 c 4
 549 498 586 488 617 450 c 4
 626 439 629 429 629 418 c 4
 629 403 623 389 618 372 c 4
 610 346 599 332 577 311 c 4
 556 291 539 282 509 272 c 4
 434 246 389 232 309 218 c 4
 291 215 277 214 263 214 c 4
 244 214 226 216 202 218 c 4
 179 220 164 236 146 236 c 4
 142 236 138 236 134 234 c 4
 109 224 115 202 111 180 c 4
 109 168 108 158 108 149 c 4
 108 136 110 125 116 110 c 4
 121 96 130 90 146 83 c 4
 178 69 198 63 234 60 c 4
 248 59 261 58 272 58 c 4
 296 58 317 61 347 64 c 4
 398 69 427 74 476 86 c 4
 507 94 525 100 551 114 c 4
 580 129 589 144 617 160 c 4
EndSplineSet
Validated: 1
EndChar

StartChar: f
Encoding: 102 102 26
Width: 617
Flags: HMW
HStem: 262 49
VStem: 110.66 85
LayerCount: 2
Fore
SplineSet
55.6591796875 225 m 0
 45.6591796875 222 37.6591796875 226 29.6591796875 232 c 0
 21.6591796875 238 24.6591796875 244 23.6591796875 252 c 0
 21.6591796875 262 18.6591796875 267 20.6591796875 277 c 0
 21.6591796875 282 25.6591796875 285 30.6591796875 288 c 0
 39.6591796875 293 47.6591796875 294 57.6591796875 296 c 0
 71.6591796875 299 79.6591796875 300 93.6591796875 302 c 0
 109.659179688 304 119.659179688 304 135.659179688 308 c 0
 137.659179688 309 138.659179688 311 138.659179688 313 c 0
 142.659179688 334 141.659179688 347 147.659179688 368 c 0
 155.659179688 394 162.659179688 404 169.659179688 430 c 0
 170.659179688 434 171.659179688 437 171.659179688 440 c 0
 171.659179688 446 174.659179688 452 174.659179688 458 c 0
 174.659179688 461 174.659179688 464 175.659179688 467 c 0
 180.659179688 486 187.659179688 495 195.659179688 513 c 0
 200.659179688 524 202.659179688 529 206.659179688 540 c 0
 210.659179688 554 211.659179688 563 215.659179688 577 c 0
 217.659179688 585 218.659179688 590 224.659179688 598 c 0
 232.659179688 608 237.659179688 614 242.659179688 625 c 0
 248.659179688 638 248.659179688 645 255.659179688 659 c 0
 265.659179688 680 272.659179688 691 283.659179688 712 c 4
 288.659179688 721 290.659179688 727 295.659179688 736 c 0
 299.659179688 743 300.659179688 747 304.659179688 754 c 0
 309.659179688 764 308.659179688 770 315.659179688 780 c 0
 320.659179688 787 327.659179688 790 337.659179688 791 c 0
 347.659179688 792 352.659179688 789 358.659179688 784 c 0
 372.659179688 775 377.659179688 769 385.659179688 757 c 0
 396.659179688 739 397.659179688 726 408.659179688 708 c 0
 424.659179688 683 436.659179688 670 457.659179688 647 c 0
 466.659179688 637 472.659179688 632 484.659179688 627 c 0
 494.659179688 623 503.659179688 622 514.659179688 625 c 0
 530.659179688 630 534.659179688 639 548.659179688 646 c 0
 559.659179688 652 563.659179688 657 575.659179688 658 c 0
 581.659179688 658 584.659179688 653 585.659179688 648 c 0
 586.659179688 641 584.659179688 636 580.659179688 629 c 0
 575.659179688 620 572.659179688 614 562.659179688 609 c 0
 548.659179688 602 538.659179688 602 522.659179688 598 c 0
 508.659179688 595 502.659179688 590 488.659179688 590 c 0
 472.659179688 590 462.659179688 592 447.659179688 598 c 0
 433.659179688 603 428.659179688 610 418.659179688 618 c 0
 408.659179688 626 402.659179688 630 394.659179688 640 c 0
 385.659179688 653 385.659179688 661 377.659179688 675 c 0
 371.659179688 686 371.659179688 693 362.659179688 703 c 0
 360.659179688 705 355.659179688 704 353.659179688 702 c 0
 345.659179688 694 345.659179688 689 340.659179688 680 c 0
 329.659179688 659 322.659179688 645 308.659179688 625 c 0
 304.659179688 619 298.659179688 619 295.659179688 613 c 0
 281.659179688 583 277.659179688 564 269.659179688 533 c 0
 264.659179688 514 257.659179688 504 249.659179688 486 c 0
 245.659179688 479 245.659179688 476 242.659179688 469 c 0
 231.659179688 445 230.659179688 431 222.659179688 406 c 0
 211.659179688 373 203.659179688 354 193.659179688 321 c 0
 192.659179688 316 188.659179688 309 194.659179688 309 c 0
 210.659179688 308 225.659179688 308 238.659179688 308 c 0
 278.659179688 308 310.659179688 311 358.659179688 311 c 0
 400.659179688 311 432.659179688 312 465.659179688 312 c 0
 503.659179688 312 540.659179688 311 588.659179688 307 c 0
 597.659179688 306 597.659179688 298 597.659179688 292 c 0
 597.659179688 287 597.659179688 279 589.659179688 278 c 0
 533.659179688 266 499.659179688 263 440.659179688 260 c 0
 431.659179688 259 423.659179688 259 415.659179688 259 c 0
 385.659179688 259 362.659179688 262 331.659179688 262 c 0
 325.659179688 262 319.659179688 262 313.659179688 262 c 0
 308.659179688 262 304.659179688 262 299.659179688 262 c 0
 269.659179688 262 239.659179688 265 214.659179688 265 c 0
 199.659179688 265 186.659179688 264 175.659179688 260 c 0
 172.659179688 259 171.659179688 254 171.659179688 247 c 0
 171.659179688 234 175.659179688 214 177.659179688 198 c 0
 178.659179688 190 187.659179688 187 193.659179688 179 c 0
 197.659179688 174 196.659179688 169 202.659179688 166 c 0
 208.659179688 163 214.659179688 166 222.659179688 163 c 0
 230.659179688 160 233.659179688 156 239.659179688 150 c 0
 247.659179688 142 252.659179688 137 257.659179688 127 c 0
 259.659179688 123 261.659179688 119 257.659179688 116 c 0
 251.659179688 112 244.659179688 112 238.659179688 115 c 0
 224.659179688 121 222.659179688 130 210.659179688 137 c 0
 205.659179688 140 196.659179688 143 195.659179688 138 c 0
 192.659179688 127 192.659179688 119 192.659179688 110 c 0
 192.659179688 97 194.659179688 85 195.659179688 69 c 0
 195.659179688 64 204.659179688 64 204.659179688 60 c 0
 205.659179688 50 207.659179688 43 207.659179688 36 c 0
 207.659179688 29 206.659179688 21 202.659179688 12 c 0
 198.659179688 5 188.659179688 7 179.659179688 5 c 0
 173.659179688 4 167.659179688 2 162.659179688 5 c 0
 146.659179688 14 135.659179688 20 127.659179688 34 c 0
 113.659179688 59 111.659179688 75 110.659179688 102 c 0
 110.659179688 106 110.659179688 110 110.659179688 113 c 0
 110.659179688 142 115.659179688 162 119.659179688 193 c 0
 123.659179688 217 122.659179688 234 128.659179688 255 c 0
 128.659179688 256 128.659179688 256 128.659179688 257 c 0
 128.659179688 259 126.659179688 261 123.659179688 261 c 0
 113.659179688 261 93.6591796875 252 82.6591796875 247 c 0
 68.6591796875 241 69.6591796875 229 55.6591796875 225 c 0
EndSplineSet
Validated: 1
EndChar

StartChar: g
Encoding: 103 103 27
Width: 382
Flags: HMW
HStem: -190 60<-111 -29>
LayerCount: 2
Fore
SplineSet
-13 298 m 0
 12 359 63 378 118 424 c 0
 146 447 164 459 198 476 c 0
 220 487 237 491 263 495 c 0
 269 496 275 496 280 496 c 0
 288 496 295 495 302 490 c 0
 327 472 337 457 351 433 c 0
 358 421 362 411 362 400 c 0
 362 397 362 394 361 391 c 0
 359 373 349 365 341 348 c 0
 330 322 322 308 311 282 c 0
 300 255 294 240 283 213 c 0
 273 190 267 177 256 154 c 0
 237 118 225 98 206 62 c 0
 186 24 175 2 156 -36 c 0
 144 -62 145 -80 123 -102 c 0
 87 -138 63 -158 11 -178 c 0
 -17 -189 -39 -191 -65 -191 c 0
 -78 -191 -92 -190 -107 -190 c 0
 -116 -190 -118 -181 -119 -174 c 0
 -120 -171 -120 -167 -120 -164 c 0
 -120 -156 -118 -150 -114 -140 c 0
 -112 -135 -110 -131 -102 -130 c 0
 -98 -130 -94 -129 -90 -129 c 0
 -75 -129 -63 -132 -49 -132 c 0
 -43 -132 -36 -132 -29 -130 c 0
 -14 -127 -14 -116 -2 -108 c 0
 19 -95 37 -94 56 -78 c 0
 67 -68 62 -58 68 -46 c 0
 76 -33 82 -26 91 -14 c 0
 111 16 123 31 141 62 c 0
 153 84 158 97 168 120 c 0
 179 146 185 160 197 186 c 0
 207 206 214 217 223 237 c 0
 229 250 231 257 236 270 c 0
 241 282 242 288 247 300 c 0
 249 307 255 312 255 319 c 0
 255 322 252 325 248 326 c 0
 244 327 240 326 238 324 c 0
 230 318 231 312 223 306 c 0
 213 297 204 294 193 286 c 0
 184 280 180 275 171 269 c 0
 151 255 139 246 118 234 c 0
 104 226 96 223 81 218 c 0
 70 214 62 212 51 210 c 0
 42 209 37 208 28 210 c 0
 19 212 14 214 8 218 c 0
 0 223 -2 226 -7 233 c 0
 -12 239 -16 242 -17 249 c 0
 -19 256 -17 261 -17 268 c 0
 -16 280 -18 286 -13 298 c 0
261 446 m 0
 189 402 149 375 83 326 c 0
 71 317 71 308 61 298 c 0
 55 292 47 290 43 283 c 0
 39 276 38 270 42 264 c 0
 43 261 49 262 53 264 c 0
 72 276 97 278 116 290 c 0
 157 316 194 351 226 372 c 0
 254 390 263 396 297 420 c 0
 302 424 300 430 298 434 c 0
 293 440 289 442 280 445 c 0
 274 447 267 450 261 446 c 0
EndSplineSet
Validated: 1
EndChar

StartChar: h
Encoding: 104 104 28
Width: 558
VWidth: 0
Flags: HMW
VStem: 332 52
LayerCount: 2
Fore
SplineSet
179 333 m 1
 163 294 l 2
 157 278 152 268 146 252 c 0
 138 234 134 224 126 206 c 0
 119.302249748 191.116110551 101.527991239 129.157061011 101.527991239 107.087305488 c 0
 101.527991239 102.174226452 102.408845276 99.2379750644 104.488845585 99.2379750644 c 0
 105.620513359 99.2379750644 107.107144277 100.107144277 109 102 c 0
 137 127 146 145 168 172 c 0
 178 184 182 191 192 202 c 0
 216 230 229 246 254 272 c 0
 276 296 288 311 314 333 c 0
 370 380 395 414 456 457 c 0
 467.528144435 464.755297165 478.353356695 468.117268244 488.070461601 468.117268244 c 0
 515.999574078 468.117268244 534.774445911 440.343522178 534.774445911 409.284909438 c 0
 534.774445911 399.595120448 532.947012701 389.585602275 529 380 c 0
 520 358 513 346 503 324 c 0
 488 289 438 199 438 168 c 0
 438 167 438 165 438 164 c 0
 439.503979313 154.675328258 446.165213233 152.407952293 453.710875563 152.407952293 c 0
 460.854566513 152.407952293 468.790965512 154.440188203 473.894378945 154.440188203 c 0
 477.15665469 154.440188203 479.261315314 153.609775564 479.261315314 150.88729418 c 0
 479.261315314 147.411635686 475.831060094 140.852212231 467 129 c 0
 436 93 423 68 384 38 c 0
 381.027459287 35.0274592872 376.695534222 33.7802910214 371.7813066 33.7802910214 c 0
 355.203832252 33.7802910214 332 47.9725407128 332 58 c 0
 332 77 345 86 354 104 c 0
 362 119 365 128 371 144 c 0
 383 172 392 187 402 216 c 0
 413 247 413 265 424 296 c 0
 433.88016438 320.630832327 438.222013469 336.93482698 438.222013469 346.585419793 c 0
 438.222013469 354.375109457 435.393182142 357.829929077 430.364734284 357.829929077 c 0
 396.855481899 357.829929077 265.665577528 204.408172048 223 158 c 0
 171 101 153 60 97 6 c 0
 93.1700120429 2.17001204291 81.9150720141 0.332084397751 69.4775529173 0.332084397751 c 0
 52.6884339343 0.332084397751 33.7444578255 3.68109639199 28 10 c 0
 21 17 20 24 20 32 c 0
 20 37 21 42 21 48 c 0
 21 69 26 80 32 101 c 0
 44 142 52 164 67 204 c 0
 79 237 88 255 102 288 c 0
 117 324 123 344 138 380 c 0
 158 428 172 454 193 502 c 0
 205 529 213 543 224 570 c 0
 244 621 276 775 328 792 c 0
 332.637990333 793.530058667 336.670134892 794.259943668 340.142564026 794.259943668 c 0
 352.821714087 794.259943668 358.038425472 784.528709123 358.038425472 768.488047257 c 0
 358.038425472 697.044621176 254.553572275 500.43993699 246 481 c 2
 179 333 l 1
EndSplineSet
Validated: 1
EndChar

StartChar: i
Encoding: 105 105 29
Width: 372
Flags: HMW
HStem: 593 54
VStem: 179.729 84
LayerCount: 2
Fore
SplineSet
217 431 m 4
 238 424 261 419 263 401 c 4
 263 400 263 400 263 399 c 4
 263 382 244 373 232 357 c 4
 224 347 221 340 217 329 c 4
 208 307 205 295 193 274 c 4
 183 256 181 250 172 231 c 4
 163 212 160 198 150 179 c 4
 142 165 134 154 126 141 c 4
 117 127 117 106 106 93 c 4
 77 57 96 71 80 45 c 4
 78 41 71 39 66 40 c 4
 57 41 48 42 46 49 c 4
 42 59 40 67 40 75 c 4
 40 82 41 89 43 98 c 4
 49 122 64 132 75 156 c 4
 85 179 87 193 97 217 c 4
 107 241 111 255 123 277 c 4
 128 286 128 291 132 301 c 4
 141 324 143 335 152 358 c 4
 157 371 161 377 167 389 c 4
 172 399 175 403 180 413 c 4
 182 418 182 422 188 425 c 4
 198 430 206 434 217 431 c 4
296 680 m 4
 328 670 349 663 370 634 c 4
 376.859272412 623.974909551 380.656143651 612.279418463 380.656143651 600.676254893 c 4
 380.656143651 590.28858367 377.613091248 579.974909551 371 571 c 4
 366 563 358 561 350 561 c 4
 341 561 331 564 322 567 c 4
 295 578 283 592 261 613 c 4
 254.875 620.875 251.8125 629.515625 251.8125 638.921875 c 4
 251.8125 640.265625 251.875 641.625 252 643 c 4
 254 655 260 659 269 668 c 4
 278 676 284 684 296 680 c 4
EndSplineSet
Validated: 1
EndChar

StartChar: j
Encoding: 106 106 30
Width: 312
Flags: HMW
HStem: 55733 7308G<-448 -350> 190204 20828
VStem: 1087 726 1208 696 1375 287
LayerCount: 2
Fore
SplineSet
227 615 m 0xc8
 222 621 212 616 210 622 c 0
 205 629 205 636 210 642 c 0
 218 653 225 660 240 664 c 0
 249 667 258 669 266 662 c 0xc8
 278 649 282 639 282 623 c 0xe0
 282 616 270 621 266 615 c 0
 262 609 267 603 266 596 c 0
 265 589 265 582 256 579 c 0
 248 576 241 580 236 586 c 0
 228 595 235 605 227 615 c 0xc8
210 434 m 0
 217 443 226 449 237 449 c 0
 242 449 247 448 252 445 c 0
 273 434 277 415 282 394 c 0xe0
 284 381 285 369 285 358 c 0
 285 340 283 324 283 304 c 0
 283 300 283 297 283 293 c 0
 284 261 292 240 292 212 c 0
 292 206 292 200 291 193 c 0
 286 146 276 122 261 76 c 0
 252 45 250 28 235 1 c 0
 210 -40 192 -64 157 -100 c 0
 132 -126 114 -139 82 -157 c 0
 53 -173 35 -180 1 -184 c 0
 -9 -186 -18 -186 -27 -186 c 0
 -42 -186 -53 -184 -71 -180 c 0
 -83 -177 -90 -170 -95 -158 c 0
 -97 -150 -100 -143 -100 -136 c 0
 -100 -131 -99 -125 -97 -119 c 0
 -73 -64 -50 -36 -19 14 c 0
 -7 34 1 47 19 64 c 0
 29 72 37 76 52 76 c 0
 58 76 59 69 55 64 c 0
 44 38 31 27 19 2 c 0
 5 -26 -2 -42 -14 -71 c 0
 -19 -81 -26 -84 -27 -96 c 0
 -28 -104 -29 -110 -29 -116 c 0
 -29 -123 -28 -128 -20 -134 c 0
 -12 -142 -6 -129 3 -123 c 0
 65 -80 108 -63 157 -8 c 0
 188 27 193 58 205 101 c 0
 217 152 217 183 219 235 c 0xd0
 220 258 220 275 220 292 c 0
 220 309 220 326 220 349 c 0
 220 358 224 363 220 371 c 0
 218 380 207 381 206 390 c 0xe0
 205 399 202 407 202 414 c 0
 202 421 204 428 210 434 c 0
EndSplineSet
Validated: 1
EndChar

StartChar: k
Encoding: 107 107 31
Width: 657
Flags: W
VStem: 20 61<15.4204 114.314>
LayerCount: 2
Fore
SplineSet
380 799 m 0
 389 795 395 788 394 780 c 0
 390 760 379 750 369 731 c 0
 324 643 294 594 255 505 c 0
 253 500 259 494 265 495 c 0
 286 500 296 506 312 518 c 0
 422 601 474 658 586 737 c 0
 595 743 606 736 616 731 c 0
 626 726 644 721 636 714 c 0
 557 637 499 603 414 531 c 0
 408 525 400 522 401 514 c 0
 405 494 420 485 426 465 c 0
 466 325 493 245 519 103 c 0
 519.171875 101.970703125 519.254882812 100.962890625 519.254882812 99.978515625 c 0
 519.254882812 89.4853515625 509.798828125 81.5712890625 497 77 c 0
 486 73 474 78 469 87 c 0
 435 146 416 181 401 245 c 0
 382 327 394 376 384 459 c 0
 383 468 384.790768412 481.747875038 374 481 c 0
 172 467 170.162399343 275.026398485 89 88 c 0
 87 83 81 80 81 75 c 0
 82 61 90 54 92 41 c 0
 93 31 97 24 91 15 c 0
 83 6 75 2 61 0 c 0
 53 -1 48 2 44 7 c 0
 33 20 28 28 24 43 c 0
 22 50 20 56 20 61 c 0
 20 66 22 70 24 76 c 0
 114 315 168 448 266 686 c 0
 276 712 284 726 299 750 c 0
 307 764 310 772 324 783 c 0
 334 791 341 791 355 795 c 0
 364 798 371 802 380 799 c 0
EndSplineSet
Validated: 1
EndChar

StartChar: AE
Encoding: 198 198 32
Width: 864
Flags: HMW
HStem: 392 52 756 30
VStem: 343 61 367 118<368 474>
LayerCount: 2
Fore
SplineSet
511 444 m 0xc0
 513 444.615234375 514.858398438 444.875976562 516.6171875 444.875976562 c 0
 526.295898438 444.875976562 533 437 544 437 c 0
 561 437 571 440 586 446 c 0
 622 461 641 472 675 491 c 0
 699 504 714 512 735 528 c 0
 744 535 742 544 754 549 c 0
 768 556 780 558 795 558 c 0
 798 558 800 558 804 558 c 0
 815 558 827 555 829 546 c 0
 829 543 829 539 829 536 c 0
 829 524 825 515 814 506 c 0
 774 477 742 469 695 449 c 0
 636 424 606 402 541 392 c 0
 536 391 532 391 528 391 c 0
 505 391 485 399 476 416 c 0
 475 418 475 419 475 421 c 0
 475 432 496 439 511 444 c 0xc0
466 636 m 0
 464 643 476 644 485 648 c 0
 491 651 499 649 504 654 c 0
 512 662 509 671 519 678 c 0
 560 707 587 720 634 743 c 0
 677 765 701 782 750 794 c 0
 756 796 762 796 768 796 c 0
 780 796 792 793 804 786 c 0
 814 781 810 770 806 762 c 0
 804 756 795 757 789 756 c 0
 785.686523438 755.526367188 782.65234375 755.389648438 779.79296875 755.389648438 c 0
 775.84765625 755.389648438 772.232421875 755.650390625 768.670898438 755.650390625 c 0
 763.909179688 755.650390625 759.240234375 755.18359375 754 753 c 0
 714 736 695 720 657 699 c 0
 634 686 619 682 597 666 c 0
 569 644 560 626 530 605 c 0
 522 600 512 599 504 603 c 0
 485 612 474 619 466 636 c 0
346 579 m 0
 320 526 321 492 300 438 c 0
 280 389 257 365 241 315 c 0
 240 310 254 313 259 315 c 0
 300 331 321 344 361 362 c 0xe0
 369 365 380 364 380 371 c 0xd0
 380 378 380 386 380 392 c 0
 380 455 375 496 364 564 c 0
 362 572 350 586 346 579 c 0
326 687 m 0
 330 693 340 690 349 689 c 0
 359 688 366 688 375 684 c 0
 382 681 386 674 392 675 c 0
 401 676 407 676 419 675 c 0
 434 674 439 669 444 660 c 0
 460 627 461 605 466 570 c 0
 472 523 474 497 474 450 c 0xd0
 474 405 468 376 468 334 c 0
 468 330 468 326 469 321 c 0
 470 281 475 259 477 219 c 0
 477 210 471 205 477 197 c 0
 484 189 495 181 504 186 c 0
 619 251 672 297 781 369 c 0
 791 376 795 384 807 387 c 0
 819 389 830 388 836 380 c 0
 840 374 844 367 844 361 c 0
 844 356 842 351 836 347 c 0
 722 263 652 221 526 149 c 0
 518 144 510 143 501 143 c 0
 496 143 490 143 484 144 c 0
 467 146 456 150 444 158 c 0
 433.877929688 163.904296875 430.87109375 185.462890625 426.576171875 185.462890625 c 0
 425.779296875 185.462890625 424.938476562 184.721679688 424 183 c 0
 406 152 417 130 410 96 c 0
 407 87 405 82 397 74 c 0
 392 69 387 65 379 66 c 0
 370 67 361 71 361 78 c 0
 361 84 361 91 361 97 c 0
 361 167 372 214 372 282 c 0
 372 291 371 300 371 309 c 0
 371 316 360 321 352 318 c 0
 297 296 265 284 221 249 c 0
 195 228 196 206 180 179 c 0
 162 151 152 135 132 108 c 0
 115 84 106 69 84 48 c 0
 76 41 69 40 56 39 c 0
 47 38 41 38 34 42 c 0
 25 46 21 51 20 59 c 0
 20 61 20 64 20 66 c 0
 20 80 23 88 27 104 c 0
 42 150 50 176 71 221 c 0
 96 275 116 303 144 356 c 0
 157 382 161 397 176 422 c 0
 194 453 209 469 226 501 c 0
 267 573 280 617 326 687 c 0
EndSplineSet
Validated: 1
EndChar

StartChar: germandbls
Encoding: 223 223 33
Width: 591
Flags: HMW
HStem: 346 34
VStem: 76.4565 55 152.457 44 457.456 46
LayerCount: 2
Fore
SplineSet
186 714 m 0
 287 714 339 746 439 756 c 0
 443 757 448 757 452 757 c 0
 469 757 482 752 501 747 c 0
 512 744 519 743 528 735 c 0
 542 722 551 713 556 696 c 0
 557 692 557 689 557 686 c 0
 557 676 553 669 548 658 c 0
 540 642 533 633 522 619 c 0
 511 605 505 598 491 585 c 0
 450 546 424 527 383 488 c 0
 354 461 341 444 312 418 c 0
 301 408 291 404 282 394 c 0
 278 390 276 385 281 382 c 0
 291 377 300 381 312 380 c 0
 352 378 377 381 416 374 c 0
 450 368 469 361 498 345 c 0
 523 331 536 319 551 298 c 0
 563 279 565 265 567 244 c 0
 568 232 571 222 571 212 c 0
 571 205 570 197 566 189 c 0
 550 151 533 132 503 100 c 0
 488 84 474 79 453 68 c 0
 418 50 398 37 359 26 c 0
 348 23 340 22 331 22 c 0
 321 22 311 23 299 26 c 0
 255 36 232 45 192 64 c 0
 179 71 168 77 168 88 c 0
 168 89 168 89 168 90 c 0
 168.916015625 99.1611328125 181.581054688 104.125976562 192.92578125 104.125976562 c 0
 193.96484375 104.125976562 194.993164062 104.083984375 196 104 c 0
 218 102 226 89 247 82 c 0
 266 76 277 70 296 70 c 0
 298 70 299 70 301 70 c 0
 330 71 345 78 371 88 c 0
 393 96 405 103 424 116 c 0
 439 126 445 135 457 147 c 0
 477 167 492 175 506 198 c 0
 514 212 514 222 514 235 c 0
 514 238 514 242 514 246 c 0
 514 249 514 252 514 254 c 0
 514 266 513 275 503 286 c 0
 481 310 466 325 432 338 c 0
 413 345 398 346 381 346 c 0
 372 346 362 346 352 346 c 0
 349 346 346 346 342 346 c 0
 333 346 326 347 319 347 c 0
 307 347 297 346 282 344 c 0
 262 341 253 331 233 330 c 0
 224 329 219 334 213 339 c 0
 203 347 195 351 191 362 c 0
 189 368 194 373 198 378 c 0
 214 398 224 408 243 426 c 0
 272 454 290 468 319 496 c 0
 364 538 388 563 432 606 c 0
 450 624 460 633 476 652 c 0
 486 663 496 667 498 680 c 0
 498 682 498 685 498 687 c 0
 498 697 495 705 484 710 c 0
 475 714 468 716 459 716 c 0
 450 716 440 714 428 712 c 0
 338 697 288 684 199 664 c 0
 187 661 172 663 168 652 c 0
 166 645 165 638 165 632 c 0
 165 614 172 598 172 577 c 0
 172 576 172 574 172 573 c 0
 171 542 167 525 162 494 c 0
 153 442 145 412 134 360 c 0
 122 303 117 270 101 213 c 0
 100 208 91 207 91 202 c 0
 91 187 97 179 101 164 c 0
 105 152 108 144 109 132 c 0
 109 123 109 118 104 110 c 0
 99 102 96 96 87 92 c 0
 78.6259765625 88.193359375 71.4111328125 84.966796875 62.2666015625 84.966796875 c 0
 59.3984375 84.966796875 56.341796875 85.2841796875 53 86 c 0
 38 89 24 93 22 106 c 0
 21 114 20 120 20 127 c 0
 20 153 28 173 34 202 c 0
 56 310 79 369 101 477 c 0
 111 522 113 547 117 592 c 0
 117 598 118 604 118 609 c 0
 118 619 116 627 113 640 c 0
 109 652 96 657 94 669 c 0
 92 677 91 685 91 692 c 0
 91 699 92 706 98 714 c 0
 106 725 119 724 134 726 c 0
 142 727 146 724 154 722 c 0
 166 719 174 714 186 714 c 0
EndSplineSet
Validated: 1
EndChar

StartChar: ae
Encoding: 230 230 34
Width: 947
Flags: HMW
HStem: 70 41
VStem: -93 78<201 201> 394 89 985 55
LayerCount: 2
Fore
SplineSet
480 502 m 0
 467 509 455 514 441 514 c 0
 438 514 435 513 432 513 c 0
 398 510 379 502 350 489 c 0
 312 472 292 459 259 436 c 0
 233 417 220 405 199 382 c 0
 178 360 170 345 152 322 c 0
 137 303 125 293 114 273 c 0
 107 259 108 250 102 236 c 0
 98 229 92 227 88 220 c 0
 84 213 80 208 83 201 c 0
 89 187 95 179 109 170 c 0
 123 161 134 158 152 156 c 0
 160 155 168 155 175 155 c 0
 185 155 195 156 208 160 c 0
 238 170 252 181 278 196 c 0
 298 208 312 213 328 228 c 0
 348 246 357 257 372 278 c 0
 385 297 392 307 399 328 c 0
 408 353 408 368 410 393 c 0
 411 396 411 399 411 401 c 0
 411 417 407 430 407 443 c 0
 407 452 409 460 413 470 c 0
 418 482 435 478 450 480 c 0
 451.416992188 480.189453125 452.807617188 480.270507812 454.173828125 480.270507812 c 0
 463.002929688 480.270507812 470.783203125 476.849609375 477.970703125 476.849609375 c 0
 481.434570312 476.849609375 484.760742188 477.643554688 488 480 c 0
 497 486 489 497 480 502 c 0
570 498 m 0
 549 490 539 479 525 464 c 0
 513 451 507 442 503 426 c 0
 491 378 481 348 481 302 c 0
 481 297 481 292 482 286 c 0
 482 274 497 268 510 267 c 0
 515 267 519 266 523 266 c 0
 539 266 553 270 568 279 c 0
 604 300 614 321 645 346 c 0
 657 355 668 356 677 368 c 0
 692 387 703 400 703 422 c 0
 703 445 693 459 675 478 c 0
 663 492 649 496 628 500 c 0
 618 502 609 503 600 503 c 0
 590 503 581 502 570 498 c 0
450 561 m 0
 468 558 469 544 485 538 c 0
 495 534 504 534 513 534 c 0
 517 534 521 534 525 534 c 0
 540 534 548 537 563 538 c 0
 587 540 599 543 623 543 c 0
 640 543 650 543 668 540 c 0
 689 536 704 536 720 526 c 0
 735 517 737 506 743 492 c 0
 752 475 755 465 759 447 c 0
 760 439 761 433 761 427 c 0
 761 422 761 416 759 410 c 0
 753 388 748 376 732 357 c 0
 714 335 697 328 675 308 c 0
 658 292 650 280 630 266 c 0
 607 250 592 241 563 232 c 0
 555 230 548 229 541 229 c 0
 536 229 530 229 525 229 c 0
 515 229 506 228 497 222 c 0
 492 219 491 216 491 213 c 0
 491 206 497 198 499 190 c 0
 505 173 510 164 523 150 c 0
 533 137 539 129 557 122 c 0
 576 114 591 111 612 111 c 0
 614 111 617 111 620 111 c 0
 642 112 652 121 672 128 c 0
 703 140 722 144 750 160 c 0
 780 177 797 188 822 210 c 0
 838 224 845 234 855 252 c 0
 869 276 863 295 883 316 c 0
 886.5 320 891.75 321.5 897.5 321.5 c 0
 903.25 321.5 909.5 320 915 318 c 0
 924 315 927 309 927 302 c 0
 924 278 922 263 909 242 c 0
 892 212 882 194 852 171 c 0
 807 135 774 120 720 94 c 0
 693 81 674 73 643 70 c 0
 634 69 627 69 620 69 c 0
 599 69 582 72 557 76 c 0
 545 78 540 90 529 86 c 0
 510 78 512 63 495 51 c 0
 483 41 475 32 458 30 c 0
 453 29 447 29 441 29 c 0
 430 29 419 31 417 40 c 0
 410 64 408 85 408 105 c 0
 408 123 409 141 409 160 c 0
 409 175 408 190 405 208 c 0
 404 214 393 216 388 213 c 0
 373 204 375 191 360 182 c 0
 327 162 304 155 267 140 c 0
 242 130 227 122 199 117 c 0
 178 113 162 111 145 111 c 0
 134 111 123 112 110 114 c 0
 82 119 64 124 45 142 c 0
 27 161 20 177 20 201 c 0
 20 230 32 245 45 272 c 0
 60 302 73 317 94 344 c 0
 122 379 138 399 173 429 c 0
 222 470 253 491 308 525 c 0
 332 540 347 548 375 555 c 0
 394 560 409 563 426 563 c 0
 434 563 442 562 450 561 c 0
EndSplineSet
Validated: 1
EndChar

StartChar: L
Encoding: 76 76 35
Width: 608
VWidth: 0
Flags: W
HStem: 26 56.9974<81.5998 306.011> 99 57<428.627 558.266>
VStem: 20 49<92.1826 265.073>
LayerCount: 2
Back
Fore
SplineSet
107 476 m 28
 132 537 142 572 172 632 c 28
 197 683 203 717 248 759 c 20
 251 761 254 762 257 762 c 4
 269 762 284 749 287 738 c 4
 291 723 293 711 293 699 c 4
 293 681 289 664 284 641 c 12
 283 634 276 628 267 629 c 28
 256 630 257 643 247 645 c 28
 239 646 233 642 229 636 c 28
 219 618 222 607 214 588 c 28
 199 551 188 531 170 494 c 28
 151 456 138 435 122 396 c 28
 111 370 107 354 99 327 c 28
 91 300 90 285 84 258 c 28
 79 235 76 222 72 199 c 20
 70 187 69 179 69 170 c 4
 69 167 69 163 69 159 c 12
 70 143 70 134 75 119 c 20
 87.3333333333 83.8974358974 100.566732413 82.9973701512 137.755727507 82.9973701512 c 4
 139.765943458 82.9973701512 141.846153846 83 144 83 c 4
 153 83 162 85 173 86 c 12
 207 89 227 91 261 97 c 28
 301 104 323 107 361 118 c 28
 385 125 394 134 418 142 c 28
 438 149 450 152 471 155 c 20
 477 156 481 156 486 156 c 4
 494 156 502 155 511 154 c 12
 523 152 530 150 542 145 c 28
 556 139 564 135 576 127 c 28
 581 123 588 102 588 96 c 4
 588 88 586 82 577 78 c 28
 568 74 561 76 552 79 c 28
 538 83 536 93 522 96 c 20
 514 98 507 99 501 99 c 4
 493 99 485 97 475 95 c 12
 454 91 445 83 425 76 c 28
 395 66 379 59 348 52 c 28
 312 43 290 41 252 35 c 28
 232 32 220 29 200 28 c 20
 181 27 169 26 154 26 c 4
 145 26 135 26 124 27 c 12
 104 28 91 28 75 36 c 28
 57 44 53 54 42 67 c 28
 32 78 25 85 23 98 c 20
 21 109 20 117 20 126 c 4
 20 140 22 154 25 171 c 12
 37 249 47 293 67 369 c 28
 78 412 91 435 107 476 c 28
EndSplineSet
Validated: 1
EndChar

StartChar: l
Encoding: 108 108 36
Width: 233
VWidth: 0
Flags: W
HStem: 26 38<120.379 177.973>
VStem: 20 75<81.8638 302> 92 120<639.17 732.43>
LayerCount: 2
Back
Fore
SplineSet
28 90 m 28xc0
 24 120 20 138 20 168 c 28xc0
 20 194 28 208 30 234 c 28
 34 267 35 285 41 318 c 28
 47 355 54 375 60 412 c 28
 72 482 80 522 88 592 c 28
 90 627 90 647 92 682 c 20
 92 691 86 698 86 706 c 4
 86 710 86 715 92 719 c 4
 110 733 131 742 160 742 c 4
 161 742 164 742 166 742 c 12
 192 741 208 729 210 715 c 20
 212 710 212 706 212 702 c 4xa0
 212 678 196 660 188 633 c 12
 180 607 176 593 168 567 c 28
 161 537 156 520 150 490 c 28
 142 438 137 408 128 356 c 28
 120 314 113 290 107 248 c 20
 101 209 95 183 95 149 c 4
 95 141 95 133 95 124 c 12
 96 105 104 95 120 78 c 28
 128 70 142 70 154 64 c 28
 166 58 186 55 180 47 c 20
 170 35 152 26 130 26 c 4
 128 26 126 26 124 26 c 12
 80 30 60 42 34 60 c 28
 18 70 29 78 28 90 c 28xc0
EndSplineSet
Validated: 1
EndChar

StartChar: M
Encoding: 77 77 37
Width: 912
VWidth: 0
Flags: W
VStem: 396 51<161.5 378.054> 439 50<470.98 670.626> 719 57<114.607 354.189>
LayerCount: 2
Back
Fore
SplineSet
217 442 m 24x60
 232 488 229 516 250 560 c 24
 264 587 278 602 304 622 c 24
 313 628 324 615 332 622 c 24
 354 645 353 665 371 691 c 24
 385 712 391 726 411 743 c 24
 419 750 428 752 439 751 c 24
 453 749 461 746 467 736 c 24
 481 714 481 699 485 676 c 24
 489 650 489 636 489 610 c 24x60
 489 573 484 552 482 515 c 24
 480 485 478 468 476 438 c 24
 474 410 471 394 467 366 c 24
 465 344 461 331 459 309 c 24
 455 282 452 266 450 239 c 24
 449 227 447 221 447 209 c 24
 447 197 444 189 449 178 c 16
 449.339751313 176.980746061 449.914981773 176.50170899 450.696513324 176.50170899 c 0
 461.416505406 176.50170899 510.951303676 266.630806302 524 289 c 8
 544 323 551 343 571 378 c 24
 591 414 604 434 625 469 c 24
 640 494 650 507 666 531 c 24
 728 625 757 681 826 773 c 24
 832 781 842 784 854 782 c 24
 869 779 880 774 884 762 c 16
 885 756 886 751 886 746 c 0
 886 730 879 717 876 698 c 8
 868 653 861 627 852 582 c 24
 848 562 848 550 844 530 c 24
 840 510 836 500 831 480 c 24
 823 449 819 432 810 401 c 24
 804 377 800 364 794 340 c 24
 790 325 787 316 785 301 c 24
 781 280 780 268 779 247 c 24
 777 210 777 189 776 152 c 16
 775 137 772 127 772 114 c 0
 772 109 773 105 774 99 c 8
 776 89 780 83 791 77 c 24
 800 72 810 70 819 76 c 24
 844 95 847 115 869 136 c 24
 874 140 881 140 886 137 c 24
 892 132 890 127 891 120 c 24
 892 114 893 110 891 105 c 24
 881 86 875 76 859 60 c 24
 845 45 835 38 816 27 c 24
 807 22 801 20 791 21 c 24
 773 23 762 25 747 34 c 24
 735 42 728 50 726 63 c 16
 719 96 719 119 719 148 c 0
 719 156 719 164 719 174 c 8
 719 214 724 236 729 276 c 24
 734 319 736 344 745 387 c 24
 753 422 759 441 769 476 c 24
 775 501 780 516 786 541 c 24
 792 564 796 578 802 601 c 24
 807 617 811 625 815 641 c 24
 817 651 817 656 816 666 c 24
 816 671 817 681 812 679 c 24
 801 674 801 665 795 656 c 24
 774 624 764 606 744 574 c 24
 706 511 687 476 649 413 c 24
 634 388 624 373 610 348 c 24
 604 337 602 330 596 318 c 24
 586 300 577 291 567 273 c 24
 552 245 543 229 531 201 c 24
 525 186 525 176 517 162 c 24
 512 150 508 144 499 134 c 24
 491 126 488 121 477 116 c 24
 467 112 458 109 447 112 c 24
 433 115 426 121 417 130 c 24
 405 144 396 153 396 170 c 24xa0
 396 287 405 353 417 470 c 24
 419 496 429 510 434 536 c 24
 436 552 435 562 436 578 c 16
 437 600 439 613 439 632 c 0
 439 636 439 641 439 646 c 8
 439 656 443 663 434 671 c 24
 429 676 419 674 414 669 c 24
 399 656 396 646 387 629 c 24
 351 562 331 502 301 425 c 24
 272 353 219 294 191 221 c 24
 163 152 145 57 102 0 c 24
 91 -15 81 -24 62 -32 c 16
 58 -34 54 -35 50 -35 c 0
 43 -35 37 -33 29 -30 c 8
 23 -28 19 -24 20 -18 c 24
 22 4 28 16 37 38 c 24
 47 63 56 76 67 101 c 24
 81 131 88 148 104 177 c 24
 123 212 141 228 157 264 c 24
 165 282 159 293 165 312 c 24
 173 338 182 352 192 378 c 24
 202 403 209 417 217 442 c 24x60
EndSplineSet
Validated: 1
EndChar

StartChar: m
Encoding: 109 109 38
Width: 958
VWidth: 0
Flags: W
HStem: 451 82.0479<810.142 849.856>
VStem: 119 73<399.141 444.606> 406 77<190.42 343.811> 415 75<243.282 412.813> 813 84<104.094 188.161> 855 83<238.121 446.719>
LayerCount: 2
Back
Fore
SplineSet
105 359 m 24xd0
 109 381 113 395 119 417 c 24
 122 428 122 436 129 446 c 24
 132 451 137 455 145 454 c 24
 157 453 165 450 172 443 c 24
 184 431 190 422 192 408 c 16
 193 405 193 402 193 399 c 0
 193 384 188 372 185 355 c 8
 179 316 175 295 170 256 c 24
 169 250 165 245 170 240 c 24
 173 237 180 238 184 241 c 24
 190 244 190 249 194 254 c 24
 199 260 205 263 211 270 c 24
 223 284 229 293 240 307 c 24
 260 331 272 346 291 370 c 24
 309 393 317 406 334 428 c 24
 351 450 359 465 380 486 c 24
 391 498 398 505 415 510 c 24
 424 513 432 509 440 506 c 24
 454 500 466 496 473 485 c 24
 484 469 481 458 484 440 c 24
 488 420 489 410 490 390 c 16
 490 386 490 382 490 378 c 0xd0
 490 362 489 351 488 333 c 0
 486 295 483 271 483 237 c 0
 483 231 483 223 483 216 c 8
 483 205 485 199 493 190 c 24
 496 187 503 189 506 192 c 24
 516 202 518 209 526 220 c 24
 538 236 545 245 558 261 c 24
 587 296 602 316 633 349 c 24
 657 375 675 388 700 413 c 24
 730 443 745 462 776 492 c 24
 792 508 800 518 822 529 c 16
 827.634765625 531.817382812 833.587890625 533.047851562 839.678710938 533.047851562 c 0
 844.397460938 533.047851562 849.198242188 532.309570312 854 531 c 8
 872 527 884 523 895 512 c 24
 915 491 925 476 932 452 c 16
 937 432 938 417 938 401 c 0
 938 390 937 379 937 366 c 0
 937 362 938 359 938 355 c 0
 938 347 938 340 938 333 c 0xe4
 938 325 938 317 936 307 c 8
 928 265 915 242 906 200 c 24
 900 175 898 160 897 134 c 16
 897 133 l 0
 897 124 903 118 903 111 c 0
 903 109 903 106 901 104 c 8
 895 95 883 94 869 91 c 24
 859 89 851 87 843 91 c 24
 829 98 820 104 817 116 c 16
 814 127 813 136 813 145 c 0xc8
 813 159 816 171 819 189 c 8
 820 197 830 201 833 209 c 24
 841 234 841 249 845 274 c 24
 847 291 848 301 850 318 c 24
 852 338 854 351 855 371 c 16
 856 382 855 391 855 400 c 0
 855 409 856 417 855 428 c 8
 855 435 856 441 850 447 c 24
 847 450 839 453 833 451 c 24
 823 448 823 442 817 436 c 24
 795 414 783 401 762 379 c 24
 738 354 722 340 698 314 c 24
 669 282 653 263 626 230 c 24
 606 206 598 189 575 166 c 24
 552 144 539 129 506 113 c 16
 495 108 486 107 476 107 c 0
 469 107 461 107 452 108 c 8
 438 109 426 112 419 120 c 24
 407 135 409 146 406 163 c 16
 405 168 405 173 405 177 c 0
 405 186 406 194 406 205 c 0
 406 220 405 231 405 243 c 0
 405 249 405 256 406 263 c 8xe4
 408 289 415 303 417 329 c 16
 417 334 418 340 418 344 c 0
 418 358 416 369 415 386 c 0
 415 387 415 388 415 389 c 0
 415 394 416 398 416 402 c 0
 416 406 415 409 412 413 c 8
 408 417 399 412 396 408 c 24
 380 388 381 372 365 351 c 24
 354 337 340 331 327 317 c 24
 307 295 298 280 279 258 c 24
 262 238 247 228 233 207 c 24
 210 174 207 154 184 121 c 24
 166 95 150 82 125 59 c 24
 114 49 109 41 93 35 c 24
 83 31 74 32 62 34 c 24
 47 37 31 37 24 47 c 16
 21 51 20 55 20 59 c 0
 20 66 23 74 28 82 c 8
 30 86 43 82 45 86 c 24
 55 112 51 128 58 155 c 24
 62 170 68 178 73 193 c 24
 79 211 83 222 87 240 c 24
 96 286 97 313 105 359 c 24xd0
EndSplineSet
Validated: 1
EndChar

StartChar: O
Encoding: 79 79 39
Width: 907
VWidth: 0
Flags: W
HStem: 18 46<213.425 474.701> 706 59<421.085 530.578>
VStem: 20 60<191.374 328.164> 840 47<302.614 477.041>
LayerCount: 2
Back
Fore
SplineSet
84 188 m 1052
88 191 m 28
 100 174 114 169 129 154 c 28
 140 143 144 133 156 123 c 28
 175 107 185 99 209 88 c 28
 228 79 241 76 262 71 c 28
 284 66 297 65 319 64 c 20
 333 63 344 63 355 63 c 4
 370 63 385 63 404 64 c 12
 418 64 425 64 439 68 c 28
 475 78 496 85 531 98 c 28
 566 111 585 120 617 135 c 28
 645 148 661 156 686 171 c 28
 716 189 734 199 759 221 c 28
 778 237 783 248 797 267 c 28
 807 281 811 289 819 304 c 28
 828 322 833 333 837 352 c 20
 839 364 840 373 840 382 c 4
 840 390 839 398 838 407 c 12
 836 428 836 440 827 460 c 28
 821 477 812 484 801 500 c 28
 789 518 782 529 766 546 c 28
 748 564 734 571 714 587 c 28
 693 604 683 615 661 631 c 28
 640 646 626 655 602 667 c 28
 587 675 577 678 559 682 c 28
 555 683 553 680 549 680 c 28
 544 679 538 676 536 679 c 28
 530 687 543 701 531 704 c 20
 525 705 520 706 515 706 c 4
 500 706 487 700 468 697 c 12
 449 694 437 692 421 684 c 28
 402 675 394 666 379 653 c 28
 364 640 358 632 344 619 c 28
 324 599 312 589 292 569 c 28
 267 543 255 528 231 502 c 28
 206 476 191 462 167 435 c 28
 151 417 141 407 127 387 c 28
 118 374 113 366 108 351 c 28
 102 334 102 324 96 306 c 28
 91 291 83 283 81 267 c 20
 80 262 80 258 80 254 c 4
 80 241 82 231 84 216 c 12
 85 206 82 199 88 191 c 28
69 386 m 28
 85 413 93 427 113 452 c 28
 129 472 141 481 161 500 c 28
 182 521 196 531 217 552 c 28
 231 565 237 573 251 586 c 28
 269 604 279 614 297 632 c 28
 319 654 329 667 353 688 c 28
 371 705 382 714 402 729 c 28
 416 740 423 748 441 755 c 28
 459 762 471 764 491 765 c 20
 495 765 499 765 503 765 c 4
 513 765 522 764 531 759 c 12
 545 751 541 739 553 730 c 28
 563 723 573 726 584 721 c 28
 599 714 607 710 622 701 c 28
 636 693 642 688 656 679 c 28
 672 668 680 660 696 650 c 28
 715 637 729 633 747 619 c 28
 772 599 784 584 806 562 c 28
 818 550 826 543 837 530 c 28
 852 513 862 504 872 484 c 28
 880 467 880 456 881 438 c 20
 884 406 887 384 887 358 c 4
 887 347 886 335 884 321 c 12
 883 306 872 300 864 286 c 28
 849 261 849 244 827 223 c 28
 775 175 739 153 674 114 c 28
 643 95 621 91 586 78 c 28
 552 65 532 59 498 48 c 28
 473 40 460 32 434 27 c 28
 396 20 375 21 336 19 c 20
 324 18 313 18 303 18 c 4
 295 18 287 18 277 20 c 12
 239 28 219 35 184 50 c 28
 160 60 147 68 127 82 c 28
 103 99 90 108 71 130 c 28
 55 149 50 163 39 184 c 28
 34 192 31 197 29 205 c 28
 24 222 22 231 21 248 c 20
 21 251 20 253 20 256 c 4
 20 268 23 278 26 292 c 12
 28 303 31 309 36 320 c 28
 48 346 54 361 69 386 c 28
EndSplineSet
Validated: 1
EndChar

StartChar: o
Encoding: 111 111 40
Width: 699
VWidth: 0
Flags: HMW
LayerCount: 2
Back
Fore
SplineSet
459 445 m 6
 459 457 445 465 429 465 c 4
 423 465 416 464 410 464 c 12
 311 452 253 401 194 349 c 28
 169 326 154 312 135 286 c 28
 123 270 117 259 115 241 c 20
 115 234 114 228 114 222 c 4
 114 207 117 195 123 178 c 12
 127 165 134 158 145 148 c 28
 161 134 172 123 194 117 c 20
 212 113 226 111 241 111 c 4
 253 111 267 112 283 114 c 12
 383 126 460 182 519 238 c 20
 550.834555789 269.834555789 563.45525891 312.561040797 563.45525891 350.895335622 c 4
 563.45525891 401.580701302 541.391791686 444.587656104 512.504621282 444.587656104 c 4
 500.786818023 444.587656104 487.946214452 437.511114084 475 421 c 4
 470 414 460 406 453 406 c 4
 447 406 443 410 443 422 c 12
 443 430 458 432 459 440 c 21
 459 445 l 6
36 313 m 12
 56 368 209 448 263 476 c 28
 289 488 308 491 339 500 c 28
 350 504 360 502 370 508 c 28
 397 520 397 543 441 543 c 4
 486 543 525 522 555 508 c 20
 630.373133658 467.87329575 668.697472277 411.868536484 668.697472277 352.581715043 c 4
 668.697472277 302.534244803 641.387416024 250.147965706 586 203 c 12
 552 174 528 159 486 135 c 20
 426.344158982 100.583168643 323.987165131 55.6372859035 225.009004051 55.6372859035 c 4
 194.573239646 55.6372859035 164.456964575 59.8871944074 136 70 c 4
 61.9439668649 93.6979306032 20.2452803876 148.656348656 20.2452803876 225.127769128 c 4
 20.2452803876 251.917915925 25.3629735854 281.348360425 36 313 c 12
EndSplineSet
Validated: 1
EndChar

StartChar: P
Encoding: 80 80 41
Width: 459
VWidth: 0
Flags: W
HStem: 752 34<208.27 369.338>
VStem: 48.0449 48<139.167 197.928 200.072 330.252 423.234 601.485> 54.0449 42<139.167 257.928 260.164 357.58 423.234 601.485> 65.0449 35<540.089 601.485>
LayerCount: 2
Back
Fore
SplineSet
29.044921875 704 m 24x90
 49.044921875 719 65.044921875 722 91.044921875 732 c 24
 119.044921875 742 136.044921875 746 166.044921875 755 c 24
 190.044921875 762 201.044921875 768 225.044921875 774 c 24
 250.044921875 780 264.044921875 786 290.044921875 786 c 16
 293.044921875 786 296.044921875 786 299.044921875 786 c 0
 311.044921875 786 320.044921875 783 334.044921875 783 c 8
 356.044921875 783 370.044921875 782 390.044921875 776 c 24
 404.044921875 772 408.044921875 768 416.044921875 759 c 24
 427.044921875 746 432.044921875 737 434.044921875 723 c 16
 438.044921875 709 439.044921875 700 439.044921875 688 c 0
 439.044921875 684 438.044921875 680 438.044921875 676 c 8
 438.044921875 660 437.044921875 650 429.044921875 635 c 24
 417.044921875 609 407.044921875 595 388.044921875 571 c 24
 369.044921875 547 353.044921875 535 331.044921875 512 c 24
 312.044921875 494 304.044921875 483 284.044921875 466 c 24
 258.044921875 443 241.044921875 431 213.044921875 408 c 24
 195.044921875 395 187.044921875 387 169.044921875 374 c 24
 159.044921875 366 158.044921875 359 144.044921875 354 c 24
 138.044921875 352 133.044921875 358 125.044921875 359 c 24
 117.044921875 360 111.044921875 362 106.044921875 358 c 24
 96.044921875 349 98.044921875 342 98.044921875 331 c 16
 98.044921875 315 96.044921875 302 96.044921875 290 c 0
 96.044921875 276 96.044921875 264 96.044921875 249 c 0
 96.044921875 241 96.044921875 232 96.044921875 222 c 8xc0
 96.044921875 205 93.044921875 196 91.044921875 179 c 16
 89.044921875 167 81.044921875 160 81.044921875 149 c 0
 81.044921875 148 81.044921875 147 81.044921875 146 c 8
 81.044921875 141 90.044921875 135 96.044921875 138 c 24
 106.044921875 142 101.044921875 149 106.044921875 156 c 24
 116.044921875 168 116.044921875 177 131.044921875 186 c 24
 137.044921875 189 149.044921875 185 150.044921875 180 c 16
 151.044921875 176 153.044921875 172 153.044921875 169 c 0
 153.044921875 161 150.044921875 155 148.044921875 146 c 8
 143.044921875 131 137.044921875 123 131.044921875 108 c 24
 125.044921875 95 121.044921875 88 116.044921875 76 c 24
 111.044921875 62 116.044921875 54 110.044921875 40 c 24
 109.044921875 35 106.044921875 29 96.044921875 30 c 24xa0
 81.044921875 32 76.044921875 39 65.044921875 46 c 24x90
 57.044921875 51 50.044921875 56 48.044921875 62 c 24
 42.044921875 78 42.044921875 87 42.044921875 103 c 24
 42.044921875 117 47.044921875 125 48.044921875 139 c 24xc0
 50.044921875 162 54.044921875 176 54.044921875 199 c 24xa0
 54.044921875 222 48.044921875 236 48.044921875 259 c 24xc0
 48.044921875 284 53.044921875 298 54.044921875 323 c 16
 54.044921875 327 58.044921875 332 58.044921875 336 c 0
 58.044921875 360 54.044921875 375 54.044921875 402 c 0
 54.044921875 418 54.044921875 429 54.044921875 442 c 0
 54.044921875 448 54.044921875 455 54.044921875 463 c 0xa0
 53.044921875 486 45.044921875 499 45.044921875 520 c 0
 45.044921875 522 45.044921875 525 45.044921875 527 c 8
 46.044921875 549 64.044921875 560 65.044921875 582 c 24x90
 66.044921875 593 56.044921875 598 54.044921875 608 c 24
 53.044921875 616 52.044921875 620 54.044921875 628 c 24xa0
 55.044921875 632 59.044921875 638 65.044921875 636 c 24
 84.044921875 631 98.044921875 627 104.044921875 615 c 16
 106.044921875 610 108.044921875 606 108.044921875 602 c 0
 108.044921875 591 100.044921875 581 100.044921875 568 c 8
 100.044921875 551 100.044921875 541 100.044921875 524 c 24
 100.044921875 513 101.044921875 506 100.044921875 495 c 24x90
 99.044921875 481 96.044921875 473 96.044921875 459 c 16xc0
 96.044921875 450 94.044921875 444 94.044921875 437 c 0
 94.044921875 433 96.044921875 428 98.044921875 423 c 0
 107.294921875 411.75 117.607421875 407.125 128.591796875 407.125 c 0
 161.544921875 407.125 200.544921875 448.75 235.044921875 478 c 8
 255.044921875 494 260.044921875 505 279.044921875 523 c 24
 304.044921875 548 322.044921875 560 346.044921875 586 c 24
 365.044921875 607 373.044921875 619 384.044921875 642 c 24
 392.044921875 659 395.044921875 669 396.044921875 687 c 24
 397.044921875 695 393.044921875 700 391.044921875 708 c 24
 386.044921875 718 386.044921875 725 375.044921875 732 c 24
 365.044921875 739 356.044921875 738 341.044921875 742 c 24
 323.044921875 746 313.044921875 752 294.044921875 752 c 24
 275.044921875 752 267.044921875 746 248.044921875 742 c 24
 220.044921875 736 204.044921875 736 178.044921875 728 c 24
 158.044921875 722 147.044921875 717 128.044921875 708 c 24
 114.044921875 701 99.044921875 699 94.044921875 688 c 16
 93.044921875 686 93.044921875 684 93.044921875 682 c 0
 93.044921875 673 103.044921875 667 103.044921875 658 c 0
 103.044921875 657 103.044921875 657 103.044921875 656 c 8
 102.044921875 650 98.044921875 646 88.044921875 644 c 24
 82.044921875 643 77.044921875 647 75.044921875 650 c 24
 69.044921875 656 73.044921875 662 65.044921875 666 c 24
 57.044921875 671 52.044921875 668 42.044921875 671 c 24
 34.044921875 673 22.044921875 673 21.044921875 679 c 24
 19.044921875 689 19.044921875 696 29.044921875 704 c 24x90
EndSplineSet
Validated: 1
EndChar

StartChar: p
Encoding: 112 112 42
Width: 649
VWidth: 0
Flags: W
HStem: 500 52<234.935 511.222> 500 45<209.142 291.972> 502 63<273.596 517.94>
VStem: -99.3027 119.303<-167.26 -53.5834>
LayerCount: 2
Back
Fore
SplineSet
398 502 m 0x30
 394 502 378 499 376 499 c 0
 355 499 345 499 323 500 c 0
 309 500 299 500 289 500 c 0x90
 169 500 215 457 190 370 c 16
 178 319 153 277 153 218 c 0
 153 214 154 211 156 210 c 0
 158 209 163 211 165 211 c 8
 190 214 201 225 220 237 c 24
 248 255 258 269 284 288 c 24
 322 315 348 327 384 355 c 16
 442.307514964 399.945376118 517.953247828 452.2687173 517.953247828 481.722232333 c 0
 517.953247828 496.067843272 500.008049268 504.988117503 453.373955315 504.988117503 c 0
 438.11357686 504.988117503 419.781084256 504.032901197 398 502 c 0x30
186 578 m 24
 205 578 194 552 214 547 c 16
 220 545 228 545 234 545 c 0x50
 254 545 271 551 293 552 c 8x90
 328 554 349 555 384 557 c 24
 430 560 455 564 503 565 c 16x30
 513 566 522 566 531 566 c 0
 546 566 559 565 575 560 c 8
 596 554 609 546 620 531 c 16
 626 522 629 515 629 507 c 0
 629 502 629 497 628 491 c 8
 624 477 617 470 605 459 c 24
 574 427 553 413 518 383 c 24
 490 359 476 345 445 322 c 24
 393 285 359 267 304 231 c 24
 264 204 241 188 201 160 c 24
 172 140 159 126 129 106 c 24
 113 95 100 92 86 80 c 24
 71 67 65 58 59 42 c 24
 39 -7 21 -62 21 -120 c 0
 21 -123 20 -127 20 -130 c 0
 14.2026121117 -149.876758474 -16.9735336158 -197.875924284 -49.1013652031 -197.875924284 c 0
 -55.7659734946 -197.875924284 -62.4715342508 -195.810448447 -69 -191 c 0
 -91.3037273364 -174.180795779 -99.302746508 -152.415103688 -99.302746508 -129.466784599 c 0
 -99.302746508 -89.6521653092 -75.2247630152 -46.2777004022 -60 -19 c 8
 -48 3 -40 14 -26 35 c 16
 -14.1881307913 51.0641421238 -9.07323378436 58.8686851988 -9.07323378436 66.0075901602 c 0
 -9.07323378436 73.9782856253 -15.449495367 81.1191925871 -26 98 c 8
 -28 104 -31 108 -26 113 c 24
 -14 122 2 117 11 127 c 24
 25 145 29 174 31 178 c 0
 49.2998522573 212.104270116 131.255453528 360.373742267 131.255453528 439.787035464 c 0
 131.255453528 455.84404584 127.904861087 469.086007711 120 478 c 8
 112 488 98 488 93 498 c 16
 91 504 88 510 88 515 c 0
 88 520 89 525 93 531 c 8
 99 540 109 541 120 547 c 24
 145 560 155 578 186 578 c 24
EndSplineSet
Validated: 1
EndChar

StartChar: n
Encoding: 110 110 43
Width: 531
VWidth: 0
Flags: HMW
LayerCount: 2
Back
Fore
SplineSet
31 33 m 24
 20 33 20 42 20 50 c 0
 20 57 23 64 24 73 c 0
 35 138 47 206 71 266 c 0
 83 299 103 333 122 374 c 0
 132 396 130 410 134 433 c 16
 136 443 131 467 147 467 c 2
 150 467 l 1
 150.479492188 466.940429688 151.001953125 466.912109375 151.5625 466.912109375 c 0
 158.083007812 466.912109375 169.63671875 470.658203125 176.688476562 470.658203125 c 0
 179.130859375 470.658203125 181.033203125 470.208984375 182 469 c 0
 188 462 189 456 189 447 c 24
 189 436 184 431 180 421 c 24
 175 407 170 389 162 375 c 0
 156 363 155 365 149 352 c 24
 141 333 134 322 129 302 c 16
 127 290 115 257 115 249 c 0
 115 247 119 256 119 256 c 2
 120 256 122 257 124 259 c 8
 160 293 161 318 185 356 c 24
 201 381 207 396 226 420 c 24
 254 457 300 483 344 509 c 0
 362 519 378 533 406 533 c 0
 418 533 434 530 445 529 c 0
 473 526 493 518 505 501 c 24
 509 496 511 493 511 487 c 2
 511 457 l 2
 511 424 506 399 497 371 c 24
 491 354 483 344 477 327 c 24
 455 272 439 220 414 166 c 24
 409 157 406 151 402 142 c 24
 400 135 393 130 397 124 c 24
 399 120 409 122 414 124 c 24
 419 127 418 142 429 142 c 24
 435 142 439 138 437 134 c 24
 425 114 409 106 395 86 c 24
 385 73 382 65 377 51 c 24
 373 40 361 38 352 29 c 0
 347.586914062 25.138671875 342.56640625 23.7119140625 336.600585938 23.7119140625 c 0
 331.750976562 23.7119140625 326.27734375 24.6552734375 320 26 c 8
 312 27 310 33 310 38 c 24
 310 55 315 64 321 81 c 24
 349 153 380 218 410 290 c 24
 428 327 444 364 455 406 c 16
 459 422 465 442 465 460 c 0
 465 471 462 481 457 489 c 8
 453 496 453 502 444 506 c 24
 436 509 428 508 419 506 c 24
 359 486 306 456 277 411 c 25
 245 375 222 338 197 299 c 24
 166 248 151 218 122 167 c 24
 111 147 106 134 94 114 c 24
 84 95 70 79 64 57 c 24
 62 49 64 43 56 37 c 24
 48 32 41 33 31 33 c 24
EndSplineSet
Validated: 1
EndChar

StartChar: N
Encoding: 78 78 44
Width: 716
VWidth: 0
Flags: W
HStem: 4 21G<379.868 434.917> 757.937 20G<663.819 671.058>
VStem: 20 65<16.1539 45.6733> 318 43<207.418 488.465>
LayerCount: 2
Back
Fore
SplineSet
653 773 m 0
 655.504882812 776.33984375 660.796875 777.936523438 666.840820312 777.936523438 c 0
 675.275390625 777.936523438 685.173828125 774.826171875 691 769 c 0
 699 762 698 760 693 745 c 0
 681.036695526 707.116202499 673.06237236 706.780675619 666 675 c 0
 665 667 662 659 661 657 c 0
 660 655 655 644 653 632 c 0
 648 608 638 582 633 573 c 0
 629 566 620 541 615 523 c 0
 603.126512852 485.895352661 601.790032417 479.580064834 587 450 c 0
 569.537019525 423.805529288 543.82139745 356.797235216 541 322 c 0
 538.243243243 288 467.833906569 4 402 4 c 0
 357.736962697 4 352.34789741 94.1300924304 343 139 c 0
 339 163 336 191 335 200 c 0
 334 210 330 235 326 257 c 0
 324 279 319 311 318 330 c 0
 316 375 313 393 311 396 c 0
 310 397 308 414 307 433 c 0
 306 452 302 475 300 484 c 0
 296 493 292 506 290 514 c 0
 284 534 270 568 265 578 c 0
 259 590 251 588 251 574 c 0
 251 568 249 560 247 556 c 0
 246 552 243 543 242 536 c 0
 241 529 237 515 233 506 c 0
 229 496 226 483 225 477 c 0
 107 168 l 0
 105 165 103 155 102 144 c 0
 101 133 96 112 92 97 c 0
 88 82 85 64 85 58 c 0
 81.5829510207 34.0806571447 82.7898089879 19.2715387343 53 13 c 0
 41 10 38 10 30 14 c 0
 23 17 20 19 20 30 c 0
 20 34 21 39 21 46 c 0
 22 60 24 74 25 77 c 0
 26 82 30 94 35 123 c 0
 40 152 54 186 73 214 c 4
 137 390 l 5
 143.590293765 413.066028179 147.563381845 420.908454613 156 442 c 1
 186.380364072 487.570546109 204 597.165339154 211 603 c 0
 216.431638131 607.527395191 221 624 221 634 c 0
 221 635 221 636 221 637 c 0
 220 644 233 658 242 658 c 0
 248 658 277 638 285 628 c 0
 309 596 332 540 338 498 c 0
 339 490 342 477 343 471 c 0
 345 464 350 447 352 433 c 0
 353 418 357 402 358 397 c 0
 358 391 361 374 361 359 c 0
 363.719622151 244.775869673 390.685407358 205.662667556 396 110 c 0
 396 100 399 89 401 86 c 0
 406 79 407 79 411 84 c 0
 415 87 419 98 423 108 c 0
 427 119 430.248635445 129.366993696 432 132 c 0
 441.312208531 146 453.681021061 249.017225273 487 289 c 0
 488 292 491 301 493 310 c 0
 494 318 498 328 500 331 c 0
 502 334 506 345 508 356 c 0
 526.003302342 423.103217819 521.096900194 409.193800387 543 453 c 0
 545 458 551 472 555 483 c 0
 557 494 564 505 566 509 c 0
 568 512 572 521 573 528 c 0
 574 536 578 544 580 547 c 0
 586 558 591 567 593 577 c 0
 594 583 597 589 598 590 c 0
 599 592 602 601 603 610 c 0
 605.680891319 636.808913189 620.726536821 652.995952517 626 682 c 0
 628 692 633 703 635 707 c 0
 639 710 643 725 645 740 c 0
 647 755 651 770 653 773 c 0
EndSplineSet
Validated: 1
EndChar

StartChar: q
Encoding: 113 113 45
Width: 634
VWidth: 0
Flags: HMW
LayerCount: 2
Back
SplineSet
274.217773438 359 m 28
 285.155273438 375 294.530273438 383 300.780273438 400 c 28
 307.030273438 415 308.592773438 424 305.467773438 440 c 28
 303.905273438 450 303.905273438 459 289.842773438 464 c 28
 269.530273438 471 253.905273438 469 230.467773438 467 c 28
 213.280273438 466 205.467773438 462 191.405273438 456 c 28
 175.780273438 448 166.405273438 443 155.467773438 432 c 28
 141.405273438 417 138.280273438 406 128.905273438 390 c 28
 122.655273438 378 117.967773438 372 113.280273438 360 c 28
 108.592773438 346 107.030273438 338 103.905273438 324 c 28
 100.780273438 308 97.6552734375 300 99.2177734375 284 c 28
 100.780273438 272 108.592773438 266 113.280273438 255 c 28
 117.967773438 245 108.592773438 236 121.092773438 229 c 28
 135.155273438 221 149.217773438 225 167.967773438 225 c 28
 174.217773438 225 178.905273438 226 182.030273438 230 c 28
 205.467773438 256 216.405273438 272 235.155273438 299 c 28
 252.342773438 322 258.592773438 336 274.217773438 359 c 28
302.342773438 298 m 28
 267.967773438 238 250.780273438 202 221.092773438 141 c 28
 207.030273438 110 200.780273438 92 188.280273438 61 c 28
 177.342773438 35 166.405273438 20 158.592773438 -6 c 28
 153.905273438 -21 157.030273438 -29 158.592773438 -44 c 28
 160.155273438 -59 160.155273438 -68 167.967773438 -82 c 28
 175.780273438 -96 174.217773438 -108 194.530273438 -116 c 28
 224.217773438 -128 249.217773438 -132 283.592773438 -128 c 28
 342.967773438 -121 371.092773438 -104 427.342773438 -88 c 28
 474.217773438 -75 499.217773438 -67 546.092773438 -56 c 28
 569.530273438 -51 583.592773438 -48 608.592773438 -47 c 28
 621.092773438 -46 628.905273438 -47 638.280273438 -52 c 28
 642.967773438 -54 642.967773438 -60 638.280273438 -62 c 28
 582.030273438 -84 546.092773438 -92 488.280273438 -111 c 28
 427.342773438 -131 392.967773438 -144 330.467773438 -162 c 28
 314.842773438 -167 303.905273438 -167 286.717773438 -168 c 28
 253.905273438 -170 232.030273438 -177 202.342773438 -168 c 28
 167.967773438 -158 158.592773438 -143 136.717773438 -124 c 28
 122.655273438 -112 111.717773438 -103 111.717773438 -88 c 28
 110.155273438 -34 116.405273438 -3 132.030273438 49 c 28
 146.092773438 97 164.842773438 122 186.717773438 168 c 28
 191.405273438 177 210.155273438 184 199.217773438 190 c 28
 182.030273438 199 164.842773438 190 142.967773438 190 c 28
 124.217773438 190 111.717773438 186 94.5302734375 190 c 28
 78.9052734375 194 71.0927734375 200 64.8427734375 210 c 28
 52.3427734375 233 49.2177734375 248 47.6552734375 273 c 28
 46.0927734375 296 47.6552734375 308 53.9052734375 331 c 28
 60.1552734375 357 64.8427734375 372 77.3427734375 396 c 28
 89.8427734375 419 97.6552734375 431 116.405273438 452 c 28
 128.905273438 466 139.842773438 473 157.030273438 484 c 28
 174.217773438 495 182.030273438 504 203.905273438 510 c 28
 225.780273438 516 239.842773438 516 263.280273438 515 c 28
 280.467773438 514 291.405273438 514 305.467773438 507 c 28
 322.655273438 498 325.780273438 489 338.280273438 477 c 28
 344.530273438 470 344.530273438 463 353.905273438 458 c 28
 360.155273438 455 372.655273438 461 374.217773438 456 c 28
 378.905273438 441 371.092773438 433 366.405273438 418 c 28
 360.155273438 398 355.467773438 386 346.092773438 366 c 28
 336.717773438 347 332.030273438 336 319.530273438 317 c 28
 314.842773438 309 307.030273438 306 302.342773438 298 c 28
EndSplineSet
Fore
SplineSet
248 359 m 24
 259 375 268 383 274 400 c 16
 278 410 280 417 280 426 c 0
 280 430 280 435 279 440 c 8
 278 450 278 459 264 464 c 16
 252 468 244 469 234 469 c 0
 225 469 215 468 204 467 c 8
 186 466 179 462 165 456 c 24
 150 448 140 443 129 432 c 24
 115 417 112 406 102 390 c 24
 96 378 91 372 86 360 c 24
 81 346 80 338 78 324 c 16
 75 311 72 303 72 292 c 0
 72 290 72 287 72 284 c 8
 74 272 78.0432585493 264.093418801 86 255 c 0
 93 247 89 252 102 246 c 0
 109.320202583 242.621444962 116 241 123 241 c 0
 131 241 139 242 148 242 c 8
 155 242 159 243 162 247 c 24
 186 273 189.376091126 272.450005641 209 299 c 0
 226 322 232 336 248 359 c 24
276 298 m 24
 241 238 225 202 195 141 c 24
 181 110 174 92 161 61 c 24
 150 35 140 20 132 -6 c 16
 131 -12 130 -16 130 -21 c 0
 130 -28 131 -35 132 -44 c 8
 134 -59 134 -68 141 -82 c 24
 149 -96 148 -108 168 -116 c 16
 190 -125 210 -130 232 -130 c 0
 240 -130 249 -129 258 -128 c 8
 318 -121 345 -104 401 -88 c 24
 449 -75 472 -67 520 -56 c 24
 544 -51 558 -48 582 -47 c 24
 595 -46 601 -47 611 -52 c 24
 616 -54 616 -60 611 -62 c 24
 555 -84 519 -92 461 -111 c 24
 400 -131 366 -144 304 -162 c 24
 289 -167 278 -167 260 -168 c 16
 240 -169 222 -172 206 -172 c 0
 196 -172 188 -171 176 -168 c 8
 141 -158 132 -143 110 -124 c 24
 96 -112 85 -103 85 -88 c 16
 85 -83 85 -78 85 -73 c 0
 85 -28 91 2 105 49 c 8
 119 97 138 122 160 168 c 24
 165 177 184 184 172 190 c 16
 166 193 161 194 155 194 c 0
 144 194 131 190 116 190 c 0
 104 190 94 188 84 188 c 0
 79 188 73 189 68 190 c 8
 52 194 45 200 39 210 c 24
 26 233 22 248 21 273 c 16
 21 278 20 284 20 288 c 0
 20 303 22 313 28 331 c 8
 34 357 39 372 51 396 c 24
 64 419 71 431 90 452 c 24
 102 466 112 473 130 484 c 24
 148 495 155 504 178 510 c 16
 192 514 205 515 219 515 c 0
 225 515 230 515 236 515 c 8
 254 514 265 514 279 507 c 24
 296 498 299 489 311 477 c 24
 318 470 318 463 328 458 c 24
 334 455 346 461 348 456 c 16
 349 453 349 450 349 447 c 0
 349 437 344 430 340 418 c 8
 334 398 330 386 320 366 c 24
 310 347 305 336 292 317 c 24
 288 309 281 306 276 298 c 24
EndSplineSet
Validated: 1
EndChar

StartChar: R
Encoding: 82 82 46
Width: 508
VWidth: 0
Flags: HMW
LayerCount: 2
Back
Fore
SplineSet
84 222 m 0
 102 250 117 331 131 376 c 0
 132 381 134 400 139 422 c 0
 151 472 150 454 160 504 c 0
 169 548 168 535 177 581 c 0
 177 587 178 592 178 596 c 0
 178 614 168 615 168 634 c 0
 168 652 172 680 180 683 c 0
 185 685 190 691 190 695 c 0
 190 706 206 694 215 694 c 0
 226 694 237 704 243 724 c 0
 255.766864226 761.692646763 306.602346783 783.122971133 356.184693502 783.122971133 c 0
 388.159514045 783.122971133 419.613187608 774.210650139 440 755 c 0
 480 717 488 710 488 687 c 0
 488 680 487 672 487 661 c 0
 487 586 435 538 399 492 c 0
 354 438 311 396 275 369 c 0
 251 352 243 345 243 341 c 0
 243 336 259 333 263 329 c 0
 265 327 271 317 281 309 c 0
 291 301 303 288 308 280 c 0
 322 257 404 142 439 142 c 0
 444 142 450 144 454 144 c 0
 462 144 465 141 465 135 c 0
 465 129 461 120 455 109 c 0
 444 92 436 87 421 85 c 0
 417 85 414 84 412 84 c 0
 402 84 398 88 391 99 c 0
 386 108 372 125 361 135 c 0
 316 173 254 319 185 319 c 0
 180 319 178 316 180 313 c 0
 182 310 182 302 178 296 c 0
 168 277 144 222 135 195 c 0
 114 139 98 35 50 0 c 0
 36 -10 37 -8 27 3 c 0
 23 7 20 13 20 19 c 0
 20 30 28 44 28 54 c 0
 28 98 56 176 84 222 c 0
367 742 m 0
 353 747 340 752 340 751 c 2
 340 751 333 749 327 747 c 0
 315 742 292 720 271 688 c 0
 266 681 263 670 263 662 c 0
 263 654 256 641 250 633 c 0
 239 620 233 606 233 556 c 0
 233 523 227 481 223 465 c 0
 219 449 215 427 215 418 c 0
 215 408 211 402 209 403 c 0
 195 411 213 386 224 386 c 0
 236 386 253 399 287 431 c 0
 339.068650698 478.903158642 434.033630339 582.716139277 434.033630339 660.792924201 c 0
 434.033630339 695.178413425 415.614460521 724.57217453 367 742 c 0
EndSplineSet
Validated: 1
EndChar

StartChar: Q
Encoding: 81 81 47
Width: 753
VWidth: 0
Flags: W
HStem: 0 21G<692.5 718> 9 51<183.233 369.801> 615.075 125.925<319.936 375.965> 695.063 50.9365<264.956 339.971> 703 87<371 449.914>
VStem: 20 61<150.915 374.487> 338 65<646.615 683.672> 598 50<279.231 521.266>
LayerCount: 2
Back
SplineSet
538.001953125 206 m 28
 559.251953125 219 558.001953125 236 569.251953125 255 c 24
 583.001953125 279 596.751953125 290 604.251953125 316 c 24
 613.001953125 343 610.501953125 359 609.251953125 387 c 24
 608.001953125 420 605.501953125 438 599.251953125 470 c 24
 593.001953125 500 588.001953125 518 575.501953125 547 c 24
 564.251953125 573 555.501953125 587 540.501953125 612 c 24
 525.501953125 636 518.001953125 649 499.251953125 671 c 24
 490.501953125 682 484.251953125 690 469.251953125 694 c 24
 451.751953125 699 434.251953125 702 420.501953125 692 c 24
 408.001953125 684 424.251953125 671 418.001953125 659 c 24
 410.501953125 644 403.001953125 635 388.001953125 624 c 24
 375.501953125 615 365.501953125 607 349.251953125 610 c 24
 338.001953125 612 341.751953125 623 343.001953125 632 c 24
 344.251953125 644 353.001953125 650 353.001953125 662 c 24
 353.001953125 671 355.501953125 684 344.251953125 684 c 24
 316.751953125 683 301.751953125 673 280.501953125 659 c 24
 258.001953125 644 250.501953125 631 233.001953125 611 c 24
 211.751953125 588 198.001953125 576 183.001953125 550 c 24
 165.501953125 520 163.001953125 501 150.501953125 470 c 24
 140.501953125 445 130.501953125 432 123.001953125 406 c 24
 115.501953125 379 116.751953125 363 113.001953125 335 c 24
 110.501953125 315 108.001953125 303 108.001953125 283 c 24
 108.001953125 263 109.251953125 251 113.001953125 231 c 24
 118.001953125 201 118.001953125 184 130.501953125 155 c 24
 140.501953125 133 148.001953125 120 168.001953125 102 c 24
 181.751953125 89 195.501953125 87 214.251953125 79 c 24
 226.751953125 73 233.001953125 69 248.001953125 66 c 24
 269.251953125 62 281.751953125 60 303.001953125 62 c 24
 324.251953125 64 336.751953125 68 355.501953125 74 c 24
 385.501953125 84 400.501953125 91 429.251953125 104 c 24
 449.251953125 113 465.501953125 115 478.001953125 130 c 24
 486.751953125 139 486.751953125 151 478.001953125 159 c 24
 460.501953125 175 441.751953125 175 419.251953125 186 c 24
 398.001953125 197 389.251953125 205 368.001953125 216 c 24
 351.751953125 225 336.751953125 225 324.251953125 238 c 24
 316.751953125 246 319.251953125 255 325.501953125 263 c 24
 333.001953125 271 341.751953125 276 354.251953125 275 c 24
 379.251953125 272 391.751953125 264 414.251953125 254 c 24
 434.251953125 245 443.001953125 237 463.001953125 227 c 24
 475.501953125 220 481.751953125 215 495.501953125 211 c 24
 511.751953125 207 524.251953125 198 538.001953125 206 c 28
120.501953125 555 m 24
 134.251953125 578 139.251953125 593 155.501953125 615 c 24
 171.751953125 638 181.751953125 651 203.001953125 672 c 24
 218.001953125 687 230.501953125 693 248.001953125 706 c 24
 263.001953125 717 266.751953125 728 284.251953125 736 c 24
 294.251953125 741 303.001953125 738 315.501953125 738 c 24
 334.251953125 738 344.251953125 736 363.001953125 738 c 24
 373.001953125 739 384.251953125 736 388.001953125 744 c 24
 391.751953125 751 380.501953125 753 373.001953125 759 c 24
 368.001953125 763 356.751953125 762 358.001953125 768 c 24
 360.501953125 779 365.501953125 789 379.251953125 790 c 24
 403.001953125 792 416.751953125 784 438.001953125 776 c 24
 465.501953125 766 480.501953125 758 504.251953125 743 c 24
 530.501953125 726 543.001953125 716 564.251953125 695 c 24
 590.501953125 669 605.501953125 654 624.251953125 624 c 24
 646.751953125 588 658.001953125 565 669.251953125 526 c 24
 680.501953125 488 681.751953125 465 680.501953125 426 c 24
 679.251953125 376 678.001953125 348 664.251953125 299 c 24
 658.001953125 274 646.751953125 261 630.501953125 239 c 24
 615.501953125 217 601.751953125 207 584.251953125 186 c 24
 579.251953125 181 571.751953125 177 574.251953125 172 c 24
 580.501953125 159 591.751953125 156 604.251953125 147 c 24
 624.251953125 133 636.751953125 126 658.001953125 112 c 24
 676.751953125 99 686.751953125 92 704.251953125 79 c 24
 714.251953125 72 721.751953125 71 729.251953125 62 c 24
 739.251953125 51 744.251953125 44 749.251953125 31 c 24
 751.751953125 24 753.001953125 18 749.251953125 12 c 24
 745.501953125 5 740.501953125 0 730.501953125 0 c 24
 718.001953125 1 713.001953125 8 704.251953125 14 c 24
 681.751953125 28 670.501953125 37 649.251953125 52 c 24
 625.501953125 69 613.001953125 79 589.251953125 96 c 24
 574.251953125 107 569.251953125 126 549.251953125 123 c 24
 524.251953125 119 528.001953125 95 508.001953125 82 c 24
 488.001953125 68 474.251953125 65 450.501953125 55 c 24
 426.751953125 46 413.001953125 42 389.251953125 34 c 24
 365.501953125 26 353.001953125 17 328.001953125 12 c 24
 308.001953125 8 295.501953125 10 274.251953125 10 c 24
 253.001953125 10 240.501953125 8 219.251953125 12 c 24
 190.501953125 18 173.001953125 21 149.251953125 35 c 24
 120.501953125 51 108.001953125 65 88.001953125 87 c 24
 69.251953125 107 58.001953125 119 49.251953125 143 c 24
 39.251953125 172 41.751953125 189 40.501953125 219 c 24
 38.001953125 256 38.001953125 278 39.251953125 315 c 24
 40.501953125 351 40.501953125 372 48.001953125 408 c 24
 53.001953125 435 58.001953125 450 70.501953125 475 c 24
 86.751953125 507 101.751953125 524 120.501953125 555 c 24
EndSplineSet
Fore
SplineSet
301 694 m 8x17
 271 683 259 668 238 648 c 24
 216 626 209 611 191 586 c 24
 166 549 151 528 131 490 c 24
 116 460 109 442 101 410 c 24
 92 375 95 354 91 318 c 24
 87 287 81 269 81 238 c 24
 81 214 82 199 91 176 c 24
 101 152 108 139 128 120 c 24
 148 100 163 90 191 78 c 24
 216 67 232 65 261 62 c 16
 273 61 283 60 292 60 c 0
 304 60 316 61 331 64 c 8
 360 69 376 76 401 88 c 24
 427 101 442 108 461 128 c 24
 469 136 469 146 461 154 c 24
 447 170 431 172 411 184 c 24
 383 200 369 210 341 226 c 24
 329 234 313 234 308 246 c 24
 304 256 311 267 323 270 c 16
 328 271 331 272 335 272 c 0
 346 272 356 267 368 262 c 8
 406 246 422 231 458 214 c 16
 471 208 480 199 492 199 c 0
 494 199 496 199 498 200 c 8
 522 207 527 222 541 238 c 24
 563 265 583 278 591 310 c 16
 596 331 598 348 598 365 c 0
 598 388 595 411 591 440 c 8
 585 491 579 519 561 568 c 24
 553 589 542 599 528 618 c 24
 508 647 504 669 473 690 c 16
 460 698 446 703 432 703 c 0x4f
 424 703 416 702 408 698 c 0
 402 695 400 691 400 686 c 0
 400 680 403 673 403 666 c 0
 403 663 403 659 401 656 c 8
 393 643 383 638 368 630 c 16
 358.762695312 624.611328125 348.932617188 615.075195312 340.334960938 615.075195312 c 0x27
 337.763671875 615.075195312 335.301757812 615.927734375 333 618 c 0
 330 621 329 624 329 627 c 0
 329 636 338 645 338 656 c 8
 338 666 339 674 331 682 c 16
 324.467773438 688.532226562 316.602539062 695.063476562 307.404296875 695.063476562 c 0
 305.336914062 695.063476562 303.202148438 694.734375 301 694 c 8x17
373 746 m 0x17
 375 747 376 748 376 749 c 0
 376 755 347 760 341 770 c 8
 337 776 340 784 348 786 c 16
 358 788 367 790 375 790 c 0x0f
 383 790 392 788 401 786 c 8
 439 775 459 765 491 746 c 24
 515 733 523 722 543 706 c 24
 558 694 567 688 578 674 c 24
 589 660 593 650 601 634 c 24
 611 612 615 599 623 576 c 24
 632 551 638 537 643 512 c 24
 648 490 648 478 648 456 c 24
 648 426 645 408 643 378 c 24
 642 355 642 343 638 320 c 24
 632 288 632 269 618 238 c 24
 610 221 597 215 583 200 c 16
 574.306640625 191.306640625 560.94921875 187.278320312 560.94921875 177.1015625 c 0
 560.94921875 176.7421875 560.965820312 176.375 561 176 c 8
 563 160 577 155 591 144 c 24
 625 117 645 103 683 78 c 24
 698 68 712 66 723 54 c 24
 732 45 735 37 733 26 c 16
 729 15 725 0 711 0 c 0
 710 0 709 0 708 0 c 8x97
 677 4 667 21 643 38 c 24
 601 68 585 91 541 118 c 24
 532 123 522 123 513 118 c 24
 485 103 479 85 451 70 c 24
 402 44 374 28 318 14 c 16
 302 10 289 9 276 9 c 0
 259 9 242 11 221 14 c 8
 185 19 161 21 131 38 c 24
 89 61 71 81 41 114 c 24
 27 129 22 141 21 160 c 16
 20 170 20 180 20 189 c 0
 20 232 26 263 28 312 c 0
 28 319 29 326 29 332 c 0
 29 348 28 362 28 376 c 0
 28 391 29 407 33 426 c 8
 41 461 57 479 73 512 c 24
 91 547 99 567 121 600 c 24
 141 630 153 646 181 672 c 24
 201 691 217 696 241 712 c 24
 259 724 262 739 283 744 c 16
 289 746 295 746 301 746 c 0x57
 318 746 334 741 350 741 c 0x27
 358 741 365 742 373 746 c 0x17
EndSplineSet
Validated: 1
EndChar

StartChar: r
Encoding: 114 114 48
Width: 714
VWidth: 0
Flags: W
HStem: -1 21G<34.7627 51.2627> 493 38<471.87 562.808>
LayerCount: 2
Back
Fore
SplineSet
117.262695312 258 m 24
 119.262695312 264 119.262695312 267 117.262695312 272 c 24
 115.262695312 283 113.262695312 288 109.262695312 300 c 24
 104.262695312 314 96.2626953125 322 94.2626953125 337 c 24
 94.2626953125 347 86.2626953125 354 101.262695312 364 c 16
 106.262695312 367 114.262695312 368 123.262695312 368 c 0
 128.262695312 368 134.262695312 368 139.262695312 367 c 8
 154.262695312 365 156.262695312 360 160.262695312 354 c 24
 168.262695312 342 165.262695312 335 167.262695312 321 c 24
 169.262695312 310 162.262695312 303 170.262695312 292 c 16
 171.262695312 291 172.262695312 290 173.262695312 290 c 0
 187.262695312 290 223.262695312 341 231.262695312 350 c 8
 283.262695312 402 336.262695312 458 405.262695312 493 c 24
 434.262695312 509 447.262695312 519 487.262695312 527 c 16
 499.262695312 530 513.262695312 531 524.262695312 531 c 0
 540.262695312 531 556.262695312 529 576.262695312 526 c 8
 638.357454214 518.238155137 631.013253221 484.624402241 664.262695312 449 c 24
 672.262695312 442 688.262695312 438 690.262695312 429 c 16
 691.262695312 421 694.262695312 415 694.262695312 408 c 0
 694.262695312 400 691.262695312 392 682.262695312 382 c 0
 676.262695312 376 666.262695312 375 653.262695312 375 c 0
 650.262695312 375 645.262695312 375 642.262695312 375 c 8
 626.262695312 376 619.262695312 381 614.262695312 387 c 24
 602.88614156 404.064830629 575.249014707 477.896243872 539 493 c 16
 536 495 532 493 528 493 c 0
 517 493 507 488 499 484 c 8
 470 473 458.32956479 471.884732391 434.262695312 458 c 0
 408.262695312 443 397.262695312 433 376.262695312 416 c 24
 360.262695312 403 350.262695312 395 336.262695312 382 c 24
 321.262695312 368 314.262695312 360 302.262695312 346 c 24
 268.784159961 302.956168834 211.376261234 265.804418658 184.262695312 217 c 28
 168.262695312 186 162.262695312 168 146.262695312 137 c 24
 130.262695312 107 115.262695312 91 104.262695312 61 c 16
 103.262695312 57 101.262695312 54 101.262695312 51 c 0
 101.262695312 42 105.262695312 35 105.262695312 27 c 0
 105.262695312 22 104.262695312 16 96.2626953125 9 c 8
 86.2626953125 0 63.2626953125 0 39.2626953125 -1 c 24
 30.2626953125 -1 22.2626953125 3 20.2626953125 7 c 24
 18.2626953125 15 28.2626953125 20 30.2626953125 28 c 24
 35.2626953125 40 35.2626953125 48 37.2626953125 61 c 24
 38.2626953125 72 44.2626953125 79 46.2626953125 91 c 24
 51.2626953125 107 51.2626953125 115 59.2626953125 132 c 24
 68.2626953125 157 75.2626953125 170 86.2626953125 195 c 24
 98.2626953125 219 108.262695312 234 117.262695312 258 c 24
EndSplineSet
Validated: 1
EndChar

StartChar: s
Encoding: 115 115 49
Width: 406
VWidth: 0
Flags: W
HStem: 3 48.5<88.3658 214.439> 471.062 55.9375<192.198 296.146>
VStem: 226.706 78<78.3281 138.371>
LayerCount: 2
Back
SplineSet
57.341796875 367 m 28
 67.341796875 397 76.091796875 413 99.841796875 438 c 24
 117.341796875 457 136.091796875 460 159.841796875 474 c 24
 178.591796875 485 187.341796875 491 207.341796875 500 c 24
 226.091796875 509 237.341796875 515 258.591796875 520 c 24
 271.091796875 523 279.841796875 520 293.591796875 520 c 24
 308.591796875 520 318.591796875 522 333.591796875 520 c 24
 347.341796875 518 354.841796875 515 367.341796875 508 c 24
 378.591796875 502 383.591796875 496 393.591796875 488 c 24
 399.841796875 483 404.841796875 480 407.341796875 474 c 24
 409.841796875 467 409.841796875 461 403.591796875 456 c 24
 393.591796875 446 384.841796875 442 369.841796875 438 c 24
 359.841796875 435 352.341796875 436 343.591796875 440 c 24
 329.841796875 447 328.591796875 458 314.841796875 464 c 24
 303.591796875 469 296.091796875 468 283.591796875 468 c 24
 271.091796875 468 263.591796875 467 253.591796875 463 c 24
 234.841796875 456 223.591796875 450 207.341796875 440 c 24
 192.341796875 430 184.841796875 424 172.341796875 412 c 24
 163.591796875 404 161.091796875 399 153.591796875 390 c 24
 147.341796875 382 141.091796875 379 137.341796875 370 c 24
 134.841796875 362 134.841796875 357 138.591796875 348 c 24
 142.341796875 338 147.341796875 332 154.841796875 324 c 24
 168.591796875 308 178.591796875 301 193.591796875 286 c 24
 204.841796875 274 208.591796875 266 219.841796875 255 c 24
 231.091796875 244 241.091796875 240 252.341796875 228 c 24
 264.841796875 216 268.591796875 208 279.841796875 196 c 24
 288.591796875 186 296.091796875 181 303.591796875 170 c 24
 313.591796875 156 317.341796875 146 323.591796875 131 c 24
 327.341796875 123 328.591796875 119 328.591796875 111 c 24
 328.591796875 101 327.341796875 96 323.591796875 86 c 24
 317.341796875 72 313.591796875 64 303.591796875 52 c 24
 296.091796875 42 289.841796875 38 278.591796875 30 c 24
 266.091796875 21 257.341796875 18 243.591796875 10 c 24
 236.091796875 6 232.341796875 2 223.591796875 0 c 24
 209.841796875 -2 202.341796875 0 188.591796875 0 c 24
 171.091796875 0 159.841796875 -3 142.341796875 0 c 24
 123.591796875 3 116.091796875 10 98.591796875 16 c 24
 84.841796875 21 73.591796875 22 62.341796875 30 c 24
 54.841796875 35 47.341796875 39 49.841796875 47 c 24
 53.591796875 57 63.591796875 61 73.591796875 67 c 24
 82.341796875 72 87.341796875 78 97.341796875 76 c 24
 109.841796875 74 111.091796875 65 122.341796875 59 c 24
 132.341796875 54 138.591796875 53 149.841796875 50 c 24
 161.091796875 47 167.341796875 46 178.591796875 46 c 24
 188.591796875 46 196.091796875 46 204.841796875 50 c 24
 223.591796875 58 234.841796875 63 248.591796875 76 c 24
 256.091796875 83 256.091796875 90 253.591796875 99 c 24
 249.841796875 114 242.341796875 122 233.591796875 135 c 24
 221.091796875 154 212.341796875 165 197.341796875 182 c 24
 183.591796875 199 173.591796875 207 158.591796875 223 c 24
 142.341796875 240 132.341796875 249 114.841796875 266 c 24
 101.091796875 279 89.841796875 284 78.591796875 299 c 24
 69.841796875 311 68.591796875 320 63.591796875 334 c 24
 59.841796875 347 53.591796875 354 57.341796875 367 c 28
EndSplineSet
Fore
SplineSet
71.7060546875 79 m 20
 72.6923828125 79.140625 73.634765625 79.20703125 74.537109375 79.20703125 c 4
 86.4404296875 79.20703125 91.4814453125 67.6474609375 101.706054688 63 c 12
 111.706054688 58 117.706054688 55 129.706054688 53 c 20
 135.706054688 52 140.706054688 51.5 145.706054688 51.5 c 4
 150.706054688 51.5 155.706054688 52 161.706054688 53 c 12
 172.706054688 54 177.706054688 57 187.706054688 61 c 28
 199.706054688 67 210.706054688 68 219.706054688 78 c 28
 227.706054688 85 227.706054688 92 226.706054688 101 c 28
 225.706054688 112 217.706054688 116 211.706054688 126 c 28
 201.706054688 143 198.706054688 154 184.706054688 170 c 28
 163.706054688 196 146.706054688 209 122.706054688 234 c 28
 103.706054688 253 95.7060546875 265 76.7060546875 283 c 28
 66.7060546875 293 57.7060546875 296 49.7060546875 307 c 28
 40.7060546875 321 40.7060546875 331 36.7060546875 346 c 28
 34.7060546875 356 29.7060546875 361 31.7060546875 371 c 28
 36.7060546875 393 38.7060546875 407 56.7060546875 425 c 28
 80.7060546875 450 100.706054688 459 132.706054688 478 c 28
 161.706054688 495 180.706054688 503 212.706054688 515 c 28
 230.706054688 522 241.706054688 526 261.706054688 527 c 20
 271.706054688 528 279.706054688 528 287.706054688 528 c 4
 300.706054688 528 311.706054688 527 327.706054688 523 c 12
 343.706054688 519 349.706054688 511 361.706054688 502 c 28
 370.706054688 495 377.706054688 492 382.706054688 483 c 28
 386.706054688 475 387.706054688 469 382.706054688 462 c 28
 374.706054688 453 364.706054688 450 352.706054688 446 c 28
 341.706054688 443 332.706054688 441 322.706054688 445 c 28
 308.706054688 450 308.706054688 461 296.706054688 466 c 28
 284.706054688 471 275.706054688 471 261.706054688 471 c 20
 257.956054688 471 254.643554688 471.0625 251.565429688 471.0625 c 4
 242.331054688 471.0625 235.206054688 470.5 224.706054688 466 c 12
 195.706054688 453 181.706054688 444 157.706054688 425 c 28
 141.706054688 412 136.706054688 401 122.706054688 386 c 28
 117.706054688 380 110.706054688 377 109.706054688 370 c 28
 108.706054688 362 111.706054688 357 116.706054688 350 c 28
 132.706054688 328 145.706054688 316 164.706054688 295 c 28
 180.706054688 277 188.706054688 267 206.706054688 250 c 28
 220.706054688 236 230.706054688 229 244.706054688 214 c 28
 260.706054688 198 270.706054688 189 282.706054688 171 c 28
 292.706054688 156 297.706054688 148 301.706054688 131 c 20
 303.706054688 123 304.706054688 116 304.706054688 110 c 4
 304.706054688 104 303.706054688 97 301.706054688 89 c 12
 299.706054688 76 294.706054688 69 284.706054688 59 c 28
 269.706054688 44 255.706054688 39 237.706054688 26 c 28
 225.706054688 17 222.706054688 7 206.706054688 3 c 20
 199.706054688 1 194.706054688 1 188.706054688 1 c 4
 177.706054688 1 166.706054688 3 152.706054688 3 c 4
 142.706054688 3 135.706054688 2 126.706054688 2 c 4
 122.706054688 2 117.706054688 2 112.706054688 3 c 12
 91.7060546875 7 81.7060546875 13 62.7060546875 21 c 28
 48.7060546875 27 40.7060546875 29 29.7060546875 38 c 28
 23.7060546875 42 16.7060546875 48 21.7060546875 53 c 28
 36.7060546875 67 49.7060546875 76 71.7060546875 79 c 20
EndSplineSet
Validated: 1
EndChar

StartChar: t
Encoding: 116 116 50
Width: 570
VWidth: 0
Flags: W
HStem: 16 21G<230.5 245.5> 369 66<52.7904 238.927> 549 58<648.27 761.984> 761 20G<290.5 304>
VStem: 195 91<30.0991 116.95> 212 118<691.544 755.653> 262 83.3156<489.969 673.483> 262 76<489.969 606.641>
LayerCount: 2
Back
Fore
SplineSet
247 763 m 0xf4
 267 773 288 781 293 781 c 0
 315 781 328 750 330 694 c 0xf4
 331.635959502 640.83131618 345.315554721 637.175356975 345.315554721 606.957035147 c 0xf2
 345.315554721 600.232728764 344.63818224 592.19313394 343 582 c 0
 340 567 338 550 338 535 c 0xf1
 338 525 339 517 340 511 c 0
 342 496 345 489 352 489 c 0
 356 489 363 492 373 496 c 0
 399 506 468 529 518 544 c 0
 527 547 541 553 550 557 c 0
 592 575 715 607 745 607 c 0
 760 607 770 602 770 594 c 0
 770 572 748 549 728 549 c 0
 717 549 692 544 674 537 c 0
 655 529 629 522 617 520 c 0
 606 519 580 510 564 501 c 0
 548 493 497 472 452 456 c 0
 408 440 361 421 350 414 c 0
 332 403 329 343 315 267 c 0
 305 214 294 160 288 146 c 0
 283 132 282 119 284 117 c 0
 286 116 286 111 286 105 c 0
 286 97 285 85 283 73 c 0
 277 37 258 16 233 16 c 0
 228 16 223 16 218 18 c 0
 202 22 195 30 195 53 c 0xf8
 195 70 199 96 207 133 c 0
 216 178 229 253 237 300 c 0
 243 337 246 358 246 369 c 0
 246 379 243 382 238 382 c 0
 235 382 232 381 228 380 c 0
 216 377 177 373 139 370 c 0
 128 369 118 369 109 369 c 0
 52 369 20 382 20 406 c 0
 20 409 21 412 22 416 c 0
 31 444 44 458 68 458 c 0
 81 458 97 454 117 446 c 0
 137 438 152 435 163 435 c 0
 173 435 223 449 240 457 c 0
 256 463 262 467 262 498 c 0xf2
 262 512 261 532 259 560 c 0
 255 620 246 667 232 694 c 0
 221 717 212 738 212 741 c 0
 212 744 227 754 247 763 c 0xf4
EndSplineSet
Validated: 1
EndChar

StartChar: u
Encoding: 117 117 51
Width: 469
VWidth: 0
Flags: W
HStem: 13 81.6095<84 149.215>
VStem: 20 83.1984<95.0361 302.061> 91 92<468.804 564.531> 305 102<7.71422 93.718> 338 104<358.511 527.964>
LayerCount: 2
Back
Fore
SplineSet
105 562 m 4xa0
 118 572 135 577 150 577 c 4
 163 577 173 573 176 565 c 4
 180 555 183 544 183 533 c 4xa0
 183 515 177 497 167 480 c 4
 157 465 148 429 144 401 c 4
 140.545443982 376.818107874 103.198449285 214.679669577 103.198449285 136.548290023 c 4
 103.198449285 111.135108677 107.149592266 94.6094938708 117.503317194 94.6094938708 c 4
 121.390055212 94.6094938708 126.179054751 96.9383084795 132 102 c 5
 198 156 225 185 260 240 c 4
 299 296 333 305 344 407 c 4
 346 426 352 449 354 458 c 4
 358 467 355 476 349 479 c 4
 342 482 338 487 338 494 c 4
 338 505 348 520 365 532 c 4
 381 544 392 550 401 550 c 4
 410 550 415 544 422 532 c 4
 427 523 437 512 442 510 c 4
 446 508 442 495 442 479 c 4xc8
 442 435 424 358 422 357 c 4
 417 355 411 341 407 326 c 4
 403 311 394 280 384 258 c 4
 376 237 371 219 371 197 c 4
 371 188 373 178 374 168 c 4
 385 90 388 77 400 67 c 4
 405 63 407 57 407 50 c 4
 407 29 387 1 364 -4 c 4
 358 -5 352 -6 347 -6 c 4
 318 -6 305 13 305 54 c 4
 305 60 305 67 306 74 c 4
 307 81 307 88 307 94 c 4
 307 118 303 134 296 140 c 4
 289 147 284 150 279 150 c 4
 271 150 264 141 250 120 c 4
 239 102 215 76 195 62 c 4
 155 33 152 24 119 16 c 4
 113 15 100 13 91 13 c 4xb0
 77 13 68 13 56 22 c 4
 46 29 35 45 30 58 c 4
 23 77 20 121 20 168 c 4xc0
 20 219 24 272 31 295 c 4
 67 410 91 427 91 478 c 4
 91 482 91 486 91 490 c 4
 90 499 91 494 92 517 c 4
 92 524 90 530 90 535 c 4
 90 547 95 554 105 562 c 4xa0
EndSplineSet
Validated: 1
EndChar

StartChar: v
Encoding: 118 118 52
Width: 611
VWidth: 0
Flags: W
HStem: 7 21G<188.5 196>
LayerCount: 2
Back
Fore
SplineSet
96 474 m 12
 143 406 119 356 138 282 c 28
 144 258 148 244 161 220 c 28
 170 203 171 191 193 182 c 20
 196 181 200 180 203 180 c 4
 212 180 221 185 228 191 c 12
 255 214 262 230 280 257 c 28
 327 323 352 361 396 428 c 28
 424 471 440 494 464 537 c 28
 487 579 485 607 515 647 c 20
 518 652 524 652 530 652 c 4
 536 652 544 651 551 651 c 4
 558 651 566 653 573 653 c 4
 579 653 584 652 586 647 c 4
 589 637 591 628 591 620 c 4
 591 603 586 588 577 569 c 12
 555 523 529 501 499 458 c 28
 465 408 444 380 412 328 c 28
 379 276 365 243 331 191 c 28
 304 149 282 128 254 86 c 28
 236 59 239 38 212 14 c 20
 207 10 200 7 192 7 c 4
 185 7 177 10 173 14 c 12
 148 40 150 60 138 90 c 28
 121 136 113 163 99 209 c 28
 83 260 77 288 61 339 c 20
 49 375 20 398 20 431 c 4
 20 436 21 441 22 446 c 4
 27 463 57 481 78 481 c 4
 86 481 92 479 96 474 c 12
EndSplineSet
Validated: 1
EndChar

StartChar: x
Encoding: 120 120 53
Width: 596
VWidth: 0
Flags: W
HStem: 38 88<83.9797 167.064>
VStem: 192 95<183.354 224.171>
LayerCount: 2
Back
Fore
SplineSet
71 446 m 8
 101 443 84 410 99 390 c 24
 110 375 125 371 139 358 c 24
 164 335 179 320 201 296 c 24
 212 283 210 266 229 262 c 16
 230 262 231 262 232 262 c 0
 244 262 247 277 256 286 c 8
 270 301 279 309 289 326 c 24
 308 358 315 377 331 410 c 24
 346 440 351 459 369 488 c 24
 378 502 381 512 396 522 c 16
 403.592773438 526.83203125 411.662109375 530.234375 419.877929688 530.234375 c 0
 423.565429688 530.234375 427.283203125 529.548828125 431 528 c 8
 449 520 460 510 461 494 c 16
 461 493 461 492 461 491 c 0
 461 473 449 463 439 446 c 8
 413 400 398 374 369 330 c 24
 355 309 345 297 329 278 c 24
 319 266 305 262 299 248 c 16
 293 236 287 225 287 215 c 0
 287 210 288 205 291 200 c 8
 303 180 325 177 349 166 c 24
 390 146 417 137 459 120 c 24
 478 113 488 110 506 102 c 24
 525 94 536 90 551 78 c 24
 563 68 575 60 576 46 c 24
 577 36 568 25 556 26 c 24
 496 32 464 44 409 64 c 24
 371 77 353 91 319 110 c 24
 294 124 287 147 256 150 c 16
 255 150 254 150 253 150 c 0
 232 150 223 134 209 120 c 8
 189 100 188 83 169 62 c 24
 159 51 152 38 136 38 c 24
 111 38 97 48 81 62 c 16
 73 69 65 77 65 85 c 0
 65 88 67 91 69 94 c 8
 88 114 114 111 139 126 c 24
 158 137 168 145 179 160 c 16
 185 170 192 178 192 187 c 0
 192 190 191 194 189 198 c 8
 174 228 151 238 126 264 c 24
 96 295 75 311 49 344 c 16
 36 361 20 373 20 391 c 0
 20 393 20 395 21 398 c 0
 26 421 40 446 67 446 c 0
 68 446 69 446 71 446 c 8
EndSplineSet
Validated: 1
EndChar

StartChar: y
Encoding: 121 121 54
Width: 585
VWidth: 0
Flags: HMW
HStem: 137 11<-125.718 -113.718>
LayerCount: 2
Back
Fore
SplineSet
395.28125 290 m 24
 417.28125 308 432.28125 318 451.28125 338 c 24
 471.28125 360 475.28125 375 496.28125 398 c 24
 504.28125 406 507.28125 413 525.28125 417 c 16
 529.76953125 417.961914062 533.94921875 418.409179688 537.885742188 418.409179688 c 0
 546.231445312 418.409179688 553.487304688 416.397460938 560.28125 413 c 0
 571.28125 407 563.28125 399 561.28125 391 c 0
 556.28125 369 539.28125 360 523.28125 341 c 0
 509.28125 325 512.28125 316 496.28125 301 c 0
 484.28125 288 477.28125 280 466.28125 266 c 24
 448.28125 246 442.28125 234 423.28125 214 c 24
 407.28125 198 395.28125 189 377.28125 172 c 24
 369.28125 164 367.28125 159 362.28125 151 c 24
 346.28125 130 338.28125 117 322.28125 97 c 24
 312.28125 84 302.28125 78 288.28125 66 c 24
 267.28125 46 254.28125 34 233.28125 13 c 24
 227.28125 6 225.28125 2 220.28125 -5 c 24
 212.28125 -17 208.28125 -24 197.28125 -35 c 24
 169.28125 -61 149.28125 -75 120.28125 -101 c 24
 109.28125 -113 108.28125 -122 93.28125 -134 c 24
 83.28125 -142 76.28125 -145 61.28125 -150 c 24
 52.28125 -152 45.28125 -152 36.28125 -150 c 24
 27.28125 -148 18.28125 -145 20.28125 -141 c 24
 31.28125 -118 47.28125 -107 66.28125 -87 c 24
 84.28125 -70 95.28125 -60 115.28125 -44 c 24
 139.28125 -24 160.28125 -15 180.28125 6 c 24
 196.28125 25 192.28125 39 208.28125 57 c 24
 227.28125 81 246.28125 94 270.28125 116 c 24
 280.28125 126 288.28125 131 297.28125 141 c 24
 298.28125 144 302.28125 147 297.28125 148 c 24
 277.28125 152 264.28125 150 243.28125 152 c 0
 231.28125 153 224.28125 156 223.28125 162 c 0
 222.28125 169 220.28125 170 220.28125 175 c 0
 220.28125 195 220.28125 210 220.28125 233 c 0
 220.28125 247 218.28125 255 218.28125 267 c 0
 218.28125 270 218.28125 273 218.28125 277 c 0
 218.28125 292 222.28125 303 222.28125 315 c 0
 222.28125 322 220.28125 330 216.28125 339 c 8
 208.28125 356 183.28125 362 168.28125 379 c 24
 159.28125 389 155.28125 396 156.28125 406 c 0
 158.28125 416 158.28125 422 177.28125 426 c 0
 178.28125 426 181.28125 426 182.28125 426 c 0
 211.814172838 426 252.130548986 394.082243244 260.28125 368 c 20
 266.28125 353 267.28125 341 267.28125 329 c 0
 267.28125 323 267.28125 317 267.28125 310 c 0
 267.28125 304 267.28125 297 268.28125 289 c 8
 269.28125 273 271.28125 263 276.28125 248 c 24
 277.28125 242 277.28125 239 281.28125 233 c 24
 285.28125 227 287.28125 223 297.28125 218 c 24
 299.28125 216 306.28125 216 310.28125 218 c 24
 324.28125 226 325.28125 232 335.28125 241 c 24
 359.28125 260 371.28125 270 395.28125 290 c 24
EndSplineSet
Validated: 1
EndChar

StartChar: z
Encoding: 122 122 55
Width: 761
VWidth: 0
Flags: W
HStem: -48 86<597.615 662.635> 0 60<282.917 590.754> 150 65<30.4702 219.293> 167 54<167.8 236.949> 204 67<517 589.576> 430 74<232.004 611.322> 436 90<190.472 386.986>
LayerCount: 2
Back
Fore
SplineSet
217 38 m 0x8c
 228 35 238 34 247 34 c 0
 273 34 296 43 327 46 c 8
 381 51 411 57 465 60 c 16
 491 61 510 63 531 63 c 0
 545 63 559 62 577 60 c 8x40
 606 57 621 49 647 38 c 24
 658 33 668 30 670 20 c 16
 672 15 672 11 672 7 c 0
 672 -2 669 -10 665 -20 c 0
 660 -32 661 -48 646 -48 c 0
 645 -48 l 8x80
 615 -47 605 -27 580 -16 c 24
 564 -9 555 -2 537 0 c 16
 521 2 509 2 496 2 c 0
 479 2 462 1 440 0 c 8
 376 -3 341 -8 277 -12 c 24
 238 -15 216 -15 177 -18 c 16
 153 -20 138 -26 116 -26 c 0
 113 -26 110 -26 107 -26 c 8
 97 -25 88 -20 87 -12 c 16
 87 -10 87 -8 87 -6 c 0
 87 4 92 11 97 20 c 8
 108 41 114 54 130 72 c 24
 145 89 156 96 175 110 c 16
 198 128 238 129 238 153 c 0
 238 154 237 155 237 156 c 0
 236 164 229 167 220 167 c 0x50
 205 167 184 160 167 160 c 0
 131 160 105 150 76 150 c 0x20
 65 150 53 152 40 156 c 0
 27 160 20 171 20 182 c 0
 20 190 23 198 30 204 c 0x08
 40 213 52 215 64 215 c 0x20
 74 215 84 213 95 213 c 0
 99 213 103 214 107 214 c 8
 149 218 175 217 217 220 c 16
 223 220 229 221 235 221 c 0
 250 221 265 219 278 219 c 0
 294 219 309 221 327 228 c 8
 389 253 413 282 467 318 c 24
 512 348 538 366 580 398 c 16
 590 405 612 415 612 421 c 0
 612 422 610 423 607 424 c 0
 584 430 564 432 545 432 c 0
 523 432 501 430 475 430 c 0
 470 430 465 430 460 430 c 8x14
 400 432 365 435 305 436 c 16
 303 436 301 436 299 436 c 0
 275 436 257 432 237 432 c 0
 227 432 217 433 205 436 c 8
 186 441 177 453 175 468 c 16
 174 472 174 476 174 479 c 0
 174 491 179 501 190 512 c 8
 200 523 214 525 230 526 c 16
 231 526 231 526 232 526 c 0x02
 246 526 253 518 267 516 c 8
 313 510 341 506 387 504 c 16
 415 503 437 502 459 502 c 0
 485 502 511 503 545 504 c 8
 576 505 594 510 625 510 c 24
 651 510 666 510 690 502 c 24
 709 496 721 490 730 476 c 16
 737 466 741 457 741 447 c 0
 741 442 740 437 737 432 c 8
 725 409 702 405 680 388 c 24
 639 357 619 337 575 308 c 24
 555 294 526 298 517 278 c 16
 517 277 517 277 517 276 c 0
 517 272 523 271 531 271 c 0
 535 271 541 271 546 271 c 0
 550 271 554 271 557 270 c 8
 569 267 581 270 590 262 c 16
 599 254 607 245 607 236 c 0
 607 233 607 231 605 228 c 8
 596 213 578 212 557 208 c 16
 540 205 527 204 514 204 c 0
 507 204 500 205 493 205 c 0
 486 205 478 204 470 204 c 0
 468 204 466 204 464 204 c 0
 453 204 443 205 434 205 c 0
 425 205 417 204 407 200 c 8
 365 183 348 164 310 142 c 24
 289 129 275 123 255 110 c 24
 239 99 226 96 217 80 c 16
 213 71 207 60 207 51 c 0
 207 45 209 40 217 38 c 0x8c
EndSplineSet
Validated: 1
EndChar

StartChar: Z
Encoding: 90 90 56
Width: 1249
VWidth: 0
Flags: W
HStem: 21 68<201.561 297.786> 67 60<585.828 876.436> 83 44<668.932 900.935> 404 59<340.344 481.996 589.644 645.995> 471 44<1036.94 1227.17> 687 64<382.311 700.891>
VStem: 790 99<595.762 652.813>
LayerCount: 2
Back
SplineSet
484.87109375 747.06640625 m 0
 494.337890625 751.87890625 571.088867188 749.598632812 632.375 742.68359375 c 0
 673.92578125 737.99609375 728.865234375 734.12890625 753.91015625 734.12890625 c 0
 778.83984375 734.12890625 806.225585938 729.268554688 814.157226562 723.435546875 c 0
 822.467773438 717.325195312 830.92578125 714.439453125 833.89453125 716.703125 c 0
 836.69140625 718.8359375 851.553710938 718.23828125 866.095703125 715.41015625 c 0
 901.99609375 708.426757812 928.853515625 669.970703125 917.74609375 641.455078125 c 0
 913.200195312 629.78515625 910.625 610.564453125 911.801757812 597.098632812 c 0
 913.384765625 578.994140625 904.233398438 565.416015625 873.3671875 540.069335938 c 0
 812.599609375 490.16796875 824.545898438 486.427734375 992.82421875 502.666992188 c 0
 1219.27441406 524.520507812 1289.29394531 516.637695312 1244.56542969 474.327148438 c 0
 1233.67871094 464.029296875 1213.99414062 454.772460938 1201.61621094 454.12890625 c 0
 1189.17480469 453.481445312 1138.77050781 447.166015625 1090.98730469 440.267578125 c 0
 1043.20410156 433.368164062 999.189453125 429.579101562 994.3828125 431.950195312 c 0
 989.62890625 434.295898438 979.321289062 432.28515625 972.048828125 427.59375 c 0
 964.58203125 422.776367188 908.166015625 416.93359375 845.83984375 414.524414062 c 0
 783.513671875 412.115234375 730.1171875 406.627929688 726.3828125 402.247070312 c 0
 722.80859375 398.053710938 711.3203125 396.75 701.97265625 399.475585938 c 0
 690.669921875 402.770507812 676.0859375 397.495117188 661.4609375 384.822265625 c 0
 648.663085938 373.732421875 628.32421875 362.754882812 615.235351562 359.87109375 c 0
 602.559570312 357.079101562 584.49609375 344.029296875 575.762695312 331.356445312 c 0
 567.029296875 318.68359375 552.76953125 307.990234375 544.599609375 307.990234375 c 0
 536.315429688 307.990234375 523.6953125 300.861328125 516.553710938 292.1484375 c 0
 509.411132812 283.435546875 499.829101562 276.306640625 495.258789062 276.306640625 c 0
 490.665039062 276.306640625 458.3828125 255.055664062 423.064453125 228.782226562 c 0
 387.748046875 202.508789062 354.303710938 181.2578125 348.2734375 181.2578125 c 0
 342.09375 181.2578125 331.290039062 170.959960938 323.344726562 157.495117188 c 0
 315.397460938 144.029296875 302.793945312 133.732421875 294.258789062 133.732421875 c 0
 285.948242188 133.732421875 281.7109375 130.537109375 284.805664062 126.603515625 c 0
 291.124023438 118.57421875 266.732421875 109.970703125 237.646484375 109.970703125 c 0
 206.013671875 109.970703125 214.79296875 95.7958984375 250.112304688 89.845703125 c 0
 293.740234375 82.49609375 376.485351562 92.234375 367.266601562 103.633789062 c 0
 362.892578125 109.041992188 365.93359375 110.694335938 375.28125 107.990234375 c 0
 383.481445312 105.618164062 430.336914062 107.0625 478.119140625 111.158203125 c 0
 525.90234375 115.254882812 590.978515625 120.102539062 620.948242188 121.798828125 c 0
 760.142578125 129.676757812 836.759765625 136.40234375 846.359375 141.587890625 c 0
 852.203125 144.743164062 871.290039062 149.365234375 889.987304688 152.150390625 c 0
 937.427734375 159.219726562 945.239257812 145.614257812 936.0390625 71.9501953125 c 0
 935.004882812 63.6708984375 924.786132812 62.166015625 895.700195312 66.009765625 c 0
 866.616210938 69.8544921875 860.694335938 68.951171875 872.329101562 62.4453125 c 0
 883.961914062 55.939453125 878.041992188 55.037109375 848.956054688 58.880859375 c 0
 827.142578125 61.7646484375 810.00390625 61.0673828125 810.00390625 57.296875 c 0
 810.00390625 53.5458984375 777.80078125 51.6162109375 737.290039062 52.9404296875 c 0
 691.583984375 54.4345703125 664.576171875 52.2275390625 664.576171875 47 c 0
 664.576171875 42.0478515625 637.048828125 38.68359375 596.538085938 38.68359375 c 0
 559.278320312 38.68359375 449.552734375 31.41796875 353.98828125 22.623046875 c 0
 169.087890625 5.607421875 46.5146484375 4.7470703125 46.5146484375 20.4658203125 c 0
 46.5146484375 25.2177734375 42.73828125 32.05859375 38.2041015625 35.5146484375 c 0
 24.021484375 46.330078125 29.89453125 52.9404296875 103.646484375 109.177734375 c 0
 144.157226562 140.069335938 176.359375 162.34375 176.359375 159.475585938 c 0
 176.359375 156.59765625 191.2109375 166.208007812 210.021484375 181.2578125 c 0
 248.634765625 212.1484375 354.141601562 281.803710938 390.34375 300.305664062 c 0
 417.3515625 314.107421875 498.375 375.712890625 498.375 382.4453125 c 0
 498.375 385.081054688 475.00390625 386.4921875 445.91796875 385.614257812 c 0
 416.83203125 384.735351562 390.220703125 387.55859375 386.188476562 391.950195312 c 0
 382.33984375 396.143554688 370.607421875 402.220703125 361.2578125 404.864257812 c 0
 343.599609375 409.856445312 324.555664062 455.052734375 336.329101562 464.029296875 c 0
 339.7421875 466.631835938 362.296875 467.640625 386.188476562 466.258789062 c 0
 460.98046875 461.931640625 502.560546875 462.9296875 524.34375 469.57421875 c 0
 539.92578125 474.327148438 541.224609375 473.811523438 529.538085938 467.51171875 c 0
 507.134765625 455.434570312 527.4609375 445.66015625 551.352539062 457.021484375 c 0
 562.431640625 462.290039062 584.073242188 466.40625 600.693359375 466.40625 c 0
 617.3125 466.40625 633.71484375 469.01171875 638.087890625 472.346679688 c 0
 642.76171875 475.911132812 648.787109375 478.498046875 653.150390625 478.815429688 c 0
 665.26953125 479.6953125 755.323242188 551.158203125 788.23046875 586.009765625 c 0
 812.1640625 611.356445312 817.068359375 621.588867188 807.40625 626.009765625 c 0
 800.134765625 629.336914062 795.465820312 633.693359375 796.794921875 635.911132812 c 0
 806.185546875 651.572265625 795.459960938 657.796875 765.336914062 654.169921875 c 0
 746.969726562 651.958984375 672.3671875 655.662109375 598.615234375 662.4453125 c 0
 498.89453125 671.6171875 446.875976562 672.819335938 392.940429688 667.198242188 c 0
 353.467773438 663.083984375 318.373046875 662.544921875 315.508789062 666.009765625 c 0
 306.66015625 676.711914062 290.623046875 673.138671875 290.623046875 660.465820312 c 0
 290.623046875 653.154296875 280.235351562 648.583984375 263.615234375 648.583984375 c 0
 241.801757812 648.583984375 237.60546875 645.614257812 241.801757812 633.138671875 c 0
 244.731445312 624.42578125 242.013671875 618.383789062 235.568359375 619.27734375 c 0
 229.284179688 620.1484375 223.91796875 613.732421875 223.64453125 605.01953125 c 0
 222.82421875 578.880859375 145.196289062 571.827148438 145.196289062 597.890625 c 0
 145.196289062 604.227539062 138.96484375 608.98046875 130.654296875 608.98046875 c 0
 110.763671875 608.98046875 105.791015625 647 122.262695312 673.138671875 c 0
 151.759765625 719.946289062 200.250976562 732.889648438 376.840820312 741.08984375 c 0
 435.010742188 743.791015625 483.73046875 746.486328125 484.87109375 747.06640625 c 0
EndSplineSet
Fore
SplineSet
196 107 m 24x5e
 191 102 193 92 201 91 c 16
 213 89 223 89 233 89 c 0x9e
 254 89 273 92 299 93 c 8
 354 96 384 99 439 103 c 24
 514 108 556 112 631 117 c 16
 702 122 744 127 810 127 c 0
 815 127 820 127 826 127 c 0
 836 127 845 127 853 127 c 0x5e
 870 127 884 126 896 115 c 0
 899 113 901 109 901 106 c 0
 901 97 891 87 879 83 c 8x3e
 824 67 789 71 731 67 c 24x5e
 660 62 620 65 549 59 c 24
 477 53 435 45 361 37 c 24
 323 33 304 31 266 29 c 24
 201 25 164 22 99 21 c 16x9e
 83 21 68 18 55 18 c 0
 45 18 35 20 26 27 c 0
 22 30 20 34 20 38 c 0
 20 47 31 58 39 67 c 8
 58 90 76 98 101 117 c 24
 129 137 147 147 176 167 c 24
 231 204 265 224 319 263 c 24
 351 286 369 300 399 325 c 24
 433 352 466 361 481 397 c 16
 481 398 482 399 482 400 c 0
 482 404 476 405 469 405 c 0
 461 405 451 404 442 404 c 0
 438 404 434 404 431 405 c 8
 397 412 376 410 346 423 c 16
 329 431 309 439 309 452 c 0
 309 454 310 457 311 459 c 0
 314 465 321 467 328 467 c 0
 339 467 353 463 366 463 c 8
 405 463 427 459 466 459 c 16
 497 459 520 457 545 457 c 0
 562 457 580 458 601 461 c 8
 621 464 630 475 646 485 c 24
 675 503 694 511 716 533 c 24
 746 561 759 580 779 613 c 16
 786 625 790 633 790 643 c 0
 790 646 790 649 789 653 c 8
 787 663 778 669 766 671 c 24
 714 681 683 680 629 683 c 24
 568 686 532 687 471 687 c 16
 435 687 409 690 381 690 c 0
 363 690 343 689 321 685 c 8
 275 678 250 666 209 647 c 24
 183 635 180 606 149 605 c 16
 148 605 148 605 147 605 c 0
 121 605 107 624 96 643 c 0
 94 648 93 653 93 657 c 0
 93 667 98 675 106 685 c 8
 125 706 139 718 169 725 c 24
 233 741 273 737 339 743 c 24
 390 747 420 751 471 751 c 24
 541 751 581 748 651 741 c 24
 713 735 750 733 811 719 c 24
 836 713 855 709 869 691 c 16
 885 671 889 654 889 632 c 0
 889 628 889 625 889 621 c 8
 888 598 877 586 861 567 c 24
 837 538 795 535 789 501 c 16
 789 500 788 500 788 499 c 0
 788 494 792 492 798 492 c 0
 811 492 833 500 849 501 c 8
 895 503 923 505 969 507 c 16
 1042 510 1087 515 1153 515 c 0
 1163 515 1174 515 1186 515 c 8
 1204 515 1229 515 1229 501 c 24
 1229 483 1207 477 1186 471 c 24
 1135 457 1103 459 1049 451 c 24
 983 442 945 436 879 427 c 24
 819 419 785 415 726 407 c 24
 680 400 653 402 609 389 c 24
 578 380 564 368 539 351 c 24
 498 323 479 304 439 275 c 24
 390 240 360 223 311 189 c 24
 266 157 236 143 196 107 c 24x5e
EndSplineSet
Validated: 1
EndChar

StartChar: Y
Encoding: 89 89 57
Width: 564
VWidth: 0
Flags: W
HStem: 765 20G<110.5 120.5 521.5 531>
VStem: 20 66<6.09904 224.484> 43 66<141.707 618.6>
LayerCount: 2
Back
Fore
SplineSet
94 778 m 4xa0
 100 783 107 785 114 785 c 4
 127 785 141 777 144 765 c 4
 145 762 145 757 145 749 c 4
 145 734 143 711 140 688 c 4
 135 654 129 608 128 587 c 4
 126 566 119 524 114 494 c 4
 111 473 109 455 109 441 c 4xa0
 109 419 114 407 122 407 c 4
 151.89060688 407 294.884615385 588 295 591 c 4
 295.729190346 609.958949007 464.448045689 767.942484893 512 777 c 4
 516 778 520 778 523 778 c 4
 539 778 544 767 544 740 c 4
 544 726 536 714 512 697 c 4
 361.868264293 591.907785005 309.21332935 513.296756897 200 376 c 4
 169.624146281 333.473804793 116.685186112 304.277791682 113 249 c 4
 111 234 104 209 98 191 c 4
 90 167 86 140 86 112 c 4
 86 80 92 47 102 16 c 4
 107 1 104 -3 90 -7 c 4
 84 -8 79 -9 74 -9 c 4
 55 -9 38 -1 28 12 c 4
 22 21 20 55 20 94 c 4xc0
 20 141 23 195 30 215 c 4
 36 230 42 287 43 341 c 4
 44 394 47 455 49 476 c 4
 51 497 54 527 55 542 c 4
 64 678 79 765 94 778 c 4xa0
EndSplineSet
Validated: 1
EndChar

StartChar: X
Encoding: 88 88 58
Width: 581
VWidth: 0
Flags: W
HStem: 4 47<507.43 553.763> 756 20G<504 509.5>
VStem: 229 84<378.913 467.032> 456 74<685.938 760.174>
LayerCount: 2
Back
Fore
SplineSet
481 763 m 0
 494 772 501 776 507 776 c 0
 512 776 517 773 523 768 c 0
 528 764 530 756 530 747 c 0
 530 717 496 656 476 644 c 0
 468 638 458 626 452 615 c 0
 444 599 414 562 402 551 c 0
 396 546 379 525 369 507 c 0
 363 496 352 483 344 476 c 0
 323 459 313 439 313 423 c 0
 313 388 347 362 362 324 c 0
 383 271 414 234 444 173 c 0
 458 150 477 118 487 101 c 0
 507 68 523 54 544 51 c 0
 554 49 561 39 561 28 c 0
 561 22 559 16 554 11 c 0
 549 6 540 4 528 4 c 0
 518 4 507 6 496 10 c 0
 432 32 388 173 358 222 c 0
 328 270 306 311 298 333 c 0
 289 355 281 370 270 370 c 0
 262 370 254 364 243 348 c 0
 191 278 150 217 102 141 c 0
 89 120 83 112 73 112 c 0
 68 112 62 114 53 118 c 0
 33 127 20 137 20 142 c 0
 20 143 21 144 23 145 c 0
 28 146 30 151 28 156 c 0
 28 157 28 157 28 158 c 0
 28 176 93 233 107 257 c 0
 145 307 229 373 229 443 c 0
 229 461 223 480 209 498 c 0
 203 508 184 538 168 567 c 0
 154 596 95 669 95 691 c 0
 95 695 96 699 98 703 c 0
 104 713 114 718 124 718 c 0
 165 718 183 640 207 611 c 0
 217 598 224 583 224 579 c 0
 224 564 269 498 279 498 c 0
 285 498 301 509 313 523 c 0
 324 537 343 556 353 565 c 0
 385 594 440 675 456 732 c 0
 460 741 471 755 481 763 c 0
EndSplineSet
Validated: 1
EndChar

StartChar: V
Encoding: 86 86 59
Width: 642
VWidth: 0
Flags: W
HStem: 24 66<148.677 214.073>
VStem: 44 50<263.243 641.737>
LayerCount: 2
Back
Fore
SplineSet
595 758 m 0
 609 758 622 753 622 739 c 0
 622 689.970067857 582 661.759870143 582 603 c 0
 582 585 582 566 568 566 c 0
 558 566 546 576 538 593 c 0
 530 610 531 610 521 600 c 0
 441.820103398 529.617869687 437.227946015 493.15370893 384 397 c 0
 378 387 368 374 362 368 c 0
 352 359 345 345 340 335 c 0
 335 324 335 318 324 299 c 0
 305 266 278 210 274 186 c 0
 272 167 267 159 245 121 c 0
 225.982801139 86.7690420498 232.146427187 24 196 24 c 0
 37.613016413 24 53.7396630632 165.983155625 44 474 c 4
 42 579 36 619 28 639 c 0
 22 654 20 666 20 674 c 0
 20 689 28 698 44 698 c 0
 54 698 63 695 71 688 c 0
 85 676 84 681 94 426 c 0
 95.3716091121 321.757707477 101 292.990408669 101 259 c 0
 101 224 121 135 132 135 c 0
 134 135 140 127 145 116 c 0
 153 101 164 90 172 90 c 0
 180 90 180 101 180 112 c 0
 181 121 185 129 191 129 c 0
 196 129 202 138 204 150 c 0
 206 161 212 174 214 179 c 0
 218 184 230 214 242 244 c 0
 254 275 281 326 300 359 c 0
 474 628 l 1
 474 628 571.5427019 758 595 758 c 0
EndSplineSet
Validated: 1
EndChar

StartChar: U
Encoding: 85 85 60
Width: 772
VWidth: 0
Flags: W
HStem: -6 68<158.899 269.048> 752 20G<120.5 130>
VStem: 20 80<289.07 540.231> 33 56<121.15 370.156> 652 100<592.266 726.898>
LayerCount: 2
Back
Fore
SplineSet
230 64 m 8xd8
 279 84 298 106 338 136 c 24
 364 156 378 168 400 192 c 24
 426 220 439 236 463 266 c 24
 487 296 500 313 520 344 c 24
 546 384 556 409 580 450 c 24
 600 485 615 504 633 540 c 24
 647 569 658 585 663 616 c 16
 663 618 663 619 663 621 c 0
 663 638 653 648 653 666 c 0
 653 673 652 679 652 685 c 0
 652 694 653 702 660 712 c 8
 672 729 686 738 710 744 c 16
 715.124023438 745.463867188 720.918945312 746.392578125 726.451171875 746.392578125 c 0
 736.033203125 746.392578125 744.830078125 743.607421875 748 736 c 0
 751 729 752 723 752 717 c 0
 752 703 746 690 743 672 c 8
 737 630 735 605 723 564 c 24
 712 528 698 509 680 474 c 24
 662 439 653 420 633 386 c 24
 611 349 599 328 573 292 c 24
 544 253 524 232 493 194 c 24
 469 165 458 147 430 120 c 24
 402 93 382 80 350 56 c 24
 320 33 309 13 270 0 c 16
 257 -4 246 -6 235 -6 c 0
 218 -6 201 -2 180 0 c 8
 148 3 125 2 100 18 c 24xe8
 68 38 58 58 43 88 c 24
 32 110 34 125 33 148 c 16xd8
 27 235 20 288 20 366 c 0
 20 378 20 391 20 404 c 8
 21 453 32 480 40 528 c 24
 46 567 49 589 53 628 c 24
 58 670 52 695 63 736 c 24
 67 750 74 759 90 764 c 16
 102 768 115 772 126 772 c 0
 134 772 142 770 148 764 c 0
 156 757 158 749 158 741 c 0
 158 730 152 718 150 704 c 8
 146 676 134 661 128 634 c 24
 119 595 116 572 110 532 c 24
 106 506 102 492 100 466 c 16
 100 461 100 457 100 453 c 0
 100 442 101 432 101 421 c 0
 101 417 100 413 100 408 c 8xe8
 99 384 95 370 93 346 c 24
 91 323 90 311 90 288 c 24
 90 263 93 249 93 224 c 16
 93 206 89 193 89 178 c 0
 89 171 91 163 93 154 c 8
 99 132 109 121 128 104 c 24
 146 89 159 83 183 74 c 16
 196 69 206 62 218 62 c 0
 222 62 226 62 230 64 c 8xd8
EndSplineSet
Validated: 1
EndChar

StartChar: T
Encoding: 84 84 61
Width: 920
VWidth: 0
Flags: W
HStem: 1 21G<358 373> 596 88<38.4464 175.788> 635 60<156.515 332.903>
VStem: 337 106<28.355 370.165> 337 96<13.6355 98.3452> 351 74<160.708 465.886 466.143 632.682>
LayerCount: 2
Back
Fore
SplineSet
800 817 m 0xa8
 818 819 830 821 840 821 c 0
 856 821 864 817 878 810 c 0
 892 802 900 791 900 783 c 0
 900 777 897 773 890 769 c 0
 884 766 855 763 826 761 c 0
 757 757 681 743 637 726 c 0
 617 718 567 704 526 694 c 0
 485 684 445 672 437 668 c 0
 429 663 425 532 425 400 c 0xa4
 425 268 429 137 437 133 c 0
 441 131 443 127 443 119 c 0xb0
 443 109 439 93 433 70 c 0xa8
 421 18 416 11 391 4 c 0
 383 2 376 1 370 1 c 0
 346 1 337 18 337 62 c 0xb0
 337 73 337 85 338 99 c 0
 346 212 351 318 351 387 c 0
 351 434 349 464 345 466 c 0
 339 469 336 475 341 481 c 0
 344 485 345 504 345 527 c 0
 345 570 340 627 333 633 c 0
 331 634 325 635 317 635 c 0xa4
 277 635 175 621 128 606 c 0
 106 599 95 596 85 596 c 0
 74 596 67 600 51 609 c 0
 31 621 20 633 20 646 c 0
 20 655 24 664 33 673 c 0
 41 681 49 684 68 684 c 0xc4
 78 684 90 683 107 682 c 0
 120 681 133 680 146 680 c 0
 170 680 193 682 212 687 c 0
 234 691 262 695 278 695 c 0
 280 695 281 695 283 695 c 0
 284 695 285 695 286 695 c 0
 301 695 320 703 337 714 c 0
 356 728 371 733 395 733 c 0
 399 733 403 733 407 733 c 0
 411 733 415 733 419 733 c 0
 457 733 486 738 531 754 c 0
 611 783 637 790 703 801 c 0
 742 808 785 815 800 817 c 0xa8
EndSplineSet
Validated: 1
EndChar

StartChar: S
Encoding: 83 83 62
Width: 481
VWidth: 0
Flags: W
HStem: 278 36<97.0581 291.643> 316 43<313.813 424.5> 747 35<335.328 439.812> 756 45.2773<278.063 404.201>
VStem: 20 47<338.887 455.787> 411 50<188.788 315.988>
LayerCount: 2
Back
Fore
SplineSet
299 795 m 0xdc
 314.004882812 799.287109375 323.553710938 801.27734375 329.184570312 801.27734375 c 0xdc
 334.061523438 801.27734375 336 799.784179688 336 797 c 0
 336 789 367 782 394 782 c 0xec
 399 782 403 783 407 783 c 0
 415.333007812 784 421.77734375 784.555664062 426.741210938 784.555664062 c 0
 436.666992188 784.555664062 440.666992188 782.333007812 442 777 c 0
 444 772 444 763 440 756 c 0xdc
 436 749 432 747 416 747 c 0xec
 409 747 399 747 386 748 c 0
 361 750 332 754 322 755 c 0
 319 756 317 756 315 756 c 0
 305 756 296 750 275 732 c 0
 232.304768167 694.641672146 196.62427211 643.977832203 171 597 c 0
 157 569 132 530 120 518 c 0
 96.6630655296 494.66306553 73.4057489257 445.057489257 67 381 c 0
 67 377 67 374 67 371 c 0
 67 358 72 352 92 336 c 0
 114 317 120 314 146 314 c 0
 150 314 155 314 161 314 c 0
 185 314 207 316 211 318 c 0
 216 321 237 324 257 326 c 0
 277 328 305 334 317 339 c 0
 329 344 350 350 362 352 c 0
 374 354 394 357 405 358 c 0
 408 359 411 359 414 359 c 0
 435 359 454 345 454 329 c 0
 454 323 457 317 459 316 c 0
 460 315 461 312 461 306 c 0
 461 297 459 283 456 266 c 0
 451 240 446 211 445 201 c 0
 441.132777748 183.597499864 434.888980007 153.888980007 426 145 c 0
 420 139 410 125 402 113 c 0
 377.381408935 66.2246769767 349.740987793 57.5926234741 297 51 c 0
 282 49 264 45 259 43 c 0
 254 40 227 34 199 29 c 0
 170 24 146 17 144 13 c 0
 134 1 113 -7 95 -7 c 0
 84 -7 74 -4 70 3 c 0
 65 12 68 17 84 28 c 0
 95 36 109.024993925 43.1369549369 120 46 c 2
 120 46 165 57.0014648438 166 58 c 0
 167 58.9985351562 189.418521577 67.2647142226 227.999988852 76.1880139869 c 0
 240.498202813 79.0786585779 254.851071473 82.3297889712 271 86 c 0
 299.024666358 91.6049332715 346.191532329 106.248992028 366 132 c 0
 376 146 387 177 395 210 c 0
 399 227 405 251 409 263 c 0
 411 269 411 276 411 282 c 0
 411 300 403 316 392 316 c 0
 387 316 354 308 316 297 c 0
 282 287 243 278 228 278 c 0
 227 278 227 278 226 278 c 0
 214 278 182 276 154 274 c 0
 139 273 128 272 119 272 c 0
 102 272 94 275 82 282 c 0
 40 305 26 320 21 349 c 0
 20 354 20 360 20 366 c 0
 20 400 31 446 45 460 c 0
 66.5949381365 488.793250849 81.3719719199 520.039948945 116 583 c 0
 156.447272135 648.72681722 162.018925233 661.222710279 221 732 c 0
 241 758 281 791 299 795 c 0xdc
EndSplineSet
Validated: 1
EndChar

StartChar: w
Encoding: 119 119 63
Width: 974
VWidth: 0
Flags: W
HStem: 25 21G<145.361 155.361> 38 75<528.361 563.977> 245 63<361.843 447.138>
VStem: 81.3613 66<99.2805 281.765>
LayerCount: 2
Back
Fore
SplineSet
77.361328125 364 m 8x70
 109.361328125 348 120.361328125 334 138.361328125 311 c 24
 150.361328125 295 150.361328125 284 151.361328125 266 c 16
 151.361328125 261 151.361328125 256 151.361328125 252 c 0
 151.361328125 230 148.361328125 215 147.361328125 190 c 0
 146.361328125 179 146.361328125 171 146.361328125 163 c 0
 146.361328125 155 146.361328125 147 147.361328125 136 c 0
 147.361328125 135 147.361328125 133 147.361328125 132 c 0
 147.361328125 126 145.361328125 120 145.361328125 115 c 0
 145.361328125 110 147.361328125 105 151.361328125 99 c 8
 156.361328125 92 169.361328125 88 178.361328125 92 c 24
 204.361328125 105 210.361328125 119 228.361328125 137 c 24
 266.361328125 176 283.361328125 200 319.361328125 239 c 24
 342.361328125 263 346.361328125 282 380.361328125 301 c 16
 389.361328125 306 398.361328125 308 408.361328125 308 c 0
 417.361328125 308 426.361328125 307 436.361328125 307 c 0
 437.361328125 307 439.361328125 307 441.361328125 307 c 0
 451.361328125 307 459.361328125 309 467.361328125 309 c 0
 472.361328125 309 478.361328125 309 483.361328125 306 c 8
 498.361328125 297 491.361328125 286 495.361328125 273 c 24
 503.361328125 244 506.361328125 227 514.361328125 198 c 24
 517.409179688 185.807617188 528.361328125 113 528.361328125 113 c 6
 529.361328125 113 530.361328125 114 531.361328125 114 c 8
 561.361328125 119 563.361328125 138 579.361328125 155 c 24
 626.361328125 209 648.361328125 241 693.361328125 295 c 24
 725.361328125 332 745.361328125 351 777.361328125 388 c 24
 817.361328125 434 832.361328125 462 875.361328125 508 c 24
 897.361328125 531 910.361328125 545 940.361328125 563 c 16
 954.361328125 571 967.361328125 578 983.361328125 578 c 0
 986.361328125 578 990.361328125 579 993.361328125 578 c 8
 1014.36132812 574 1013.36132812 560 1021.36132812 546 c 24
 1024.36132812 540 1025.36132812 535 1021.36132812 530 c 24
 1012.36132812 517 1003.36132812 511 987.361328125 501 c 24
 963.361328125 485 939.361328125 483 919.361328125 465 c 24
 893.361328125 442 889.361328125 424 869.361328125 398 c 24
 840.361328125 360 827.361328125 337 793.361328125 300 c 24
 768.361328125 273 743.361328125 262 718.361328125 235 c 24
 691.361328125 206 682.361328125 187 657.361328125 157 c 24
 636.361328125 132 622.361328125 118 600.361328125 93 c 24
 592.361328125 84 589.361328125 77 579.361328125 70 c 24
 562.361328125 58 554.361328125 49 531.361328125 43 c 16
 521.361328125 40 511.361328125 38 501.361328125 38 c 0x70
 494.361328125 38 486.361328125 39 480.361328125 43 c 8
 461.361328125 55 466.361328125 68 464.361328125 84 c 16
 463.361328125 90 462.361328125 96 462.361328125 101 c 0
 462.361328125 114 464.361328125 125 464.361328125 139 c 0
 464.361328125 143 465.361328125 148 464.361328125 153 c 8
 461.361328125 179 459.361328125 194 449.361328125 218 c 24
 445.361328125 228 442.361328125 236 428.361328125 240 c 16
 420.361328125 243 411.361328125 245 403.361328125 245 c 0
 396.361328125 245 389.361328125 243 382.361328125 240 c 8
 361.361328125 230 359.361328125 219 348.361328125 204 c 24
 328.361328125 176 326.361328125 157 304.361328125 130 c 24
 286.361328125 109 268.361328125 100 245.361328125 81 c 24
 227.361328125 66 219.361328125 57 201.361328125 43 c 24
 193.361328125 36 191.361328125 28 178.361328125 27 c 16
 169.361328125 26 159.361328125 25 151.361328125 25 c 0xb0
 139.361328125 25 128.361328125 26 117.361328125 32 c 8
 95.361328125 43 90.361328125 55 86.361328125 73 c 16
 82.361328125 88 81.361328125 101 81.361328125 113 c 0
 81.361328125 132 84.361328125 150 84.361328125 174 c 0
 84.361328125 193 87.361328125 207 87.361328125 222 c 0
 87.361328125 230 87.361328125 238 84.361328125 247 c 8
 77.361328125 269 59.361328125 279 44.361328125 299 c 24
 35.361328125 313 23.361328125 319 21.361328125 334 c 16
 20.361328125 337 20.361328125 341 20.361328125 344 c 0
 20.361328125 352 22.361328125 359 33.361328125 365 c 0
 39.361328125 368 46.361328125 370 53.361328125 370 c 0
 61.361328125 370 69.361328125 368 77.361328125 364 c 8x70
EndSplineSet
Validated: 1
EndChar

StartChar: W
Encoding: 87 87 64
Width: 1236
VWidth: 0
Flags: HMW
HStem: 15 21G<170 182> 34 111<589 657> 339 92<452 525>
VStem: 93 78<124 393> 548 72<124 186> 550 79<140 304>
LayerCount: 2
Back
Fore
SplineSet
89 514 m 8xb4
 127 490 141 470 162 436 c 24
 176 412 176 396 177 370 c 16
 177 363 177 356 177 350 c 0
 177 318 173 295 172 258 c 0
 171 242 171 230 171 218 c 0
 171 206 171 194 172 178 c 0
 172 176 172 175 172 173 c 0
 172 164 170 155 170 147 c 0
 170 139 172 132 177 124 c 0
 181.348632812 116.752929688 190.423828125 111.606445312 199.278320312 111.606445312 c 0
 202.641601562 111.606445312 205.97265625 112.348632812 209 114 c 8
 240 133 248 153 269 180 c 24
 314 237 335 272 377 330 c 24
 405 366 409 394 449 422 c 16
 460 430 471 431 483 431 c 0
 493 431 504 430 516 430 c 0
 518 430 520 430 522 430 c 0
 534 431 543 434 553 434 c 0
 559 434 566 432 572 428 c 8
 590 415 582 399 587 380 c 24
 597 337 599 313 609 270 c 24
 615 240 624 224 629 194 c 16
 629 193 629 192 629 191 c 0xb4
 629 178 620 160 620 151 c 0
 620 147 621 146 625 146 c 0
 626 146 627 146 629 146 c 8
 665 153 668 181 687 206 c 24
 743 285 768 333 822 412 c 24
 860 467 884 496 922 550 c 24
 970 618 988 659 1039 726 c 24
 1065 760 1081 780 1117 806 c 16
 1134 818 1148 829 1167 829 c 0
 1171 829 1175 829 1179 828 c 8
 1204 822 1203 802 1213 782 c 24
 1217 773 1218 766 1213 758 c 24
 1202 739 1191 731 1172 716 c 24
 1143 693 1116 688 1092 662 c 24
 1061 628 1056 602 1032 564 c 24
 997 508 982 474 942 420 c 24
 912 380 882 363 852 324 c 24
 820 282 809 254 779 210 c 24
 754 173 738 153 712 116 c 24
 702 103 699 93 687 82 c 24
 667 64 657 51 629 42 c 16
 617 38 604 34 593 34 c 0
 584 34 577 36 569 42 c 8
 547 59 551 78 549 102 c 16
 548 111 548 120 548 128 c 0x78
 548 147 550 163 550 183 c 0
 550 189 550 197 549 204 c 8
 545 242 544 264 532 300 c 24
 527 314 523 326 507 332 c 16
 497 336 487 339 477 339 c 0
 468 339 460 337 452 332 c 8
 427 318 424 300 412 278 c 24
 388 237 385 209 359 170 c 24
 338 139 317 126 289 98 c 24
 268 76 258 63 237 42 c 24
 227 32 224 20 209 18 c 16
 198 16 187 15 177 15 c 0
 163 15 150 18 137 26 c 8
 111 42 104 60 99 86 c 16
 95 108 93 127 93 145 c 0
 93 173 97 199 97 234 c 0
 97 262 101 282 101 305 c 0
 101 316 100 328 97 342 c 8
 88 374 67 388 49 418 c 24
 38 438 24 448 22 470 c 16
 21 475 20 479 20 484 c 0
 20 496 24 507 37 516 c 0
 44 521 52 523 60 523 c 0
 70 523 80 519 89 514 c 8xb4
EndSplineSet
Validated: 1
EndChar

StartChar: period
Encoding: 46 46 65
Width: 189
VWidth: 0
Flags: HMW
LayerCount: 2
Back
Fore
SplineSet
67.1044921875 106 m 0
 70.1044921875 121 91.1044921875 133 113.104492188 133 c 0
 122.104492188 133 131.104492188 131 139.104492188 128 c 0
 161.104492188 118 169.104492188 90 169.104492188 60 c 0
 169.104492188 34 163.104492188 8 151.104492188 -6 c 0
 131.104492188 -30 119.104492188 -40 109.104492188 -40 c 0
 85.1044921875 -40 79.1044921875 14 61.1044921875 72 c 0
 60.3232421875 74.3427734375 60 76.5341796875 60 78.646484375 c 0
 60 87.3525390625 65.4951171875 94.7333984375 67.1044921875 106 c 0
EndSplineSet
Validated: 1
EndChar

StartChar: parenleft
Encoding: 40 40 66
Width: 543
VWidth: 0
Flags: W
HStem: 27 25<304.231 492.477>
VStem: 60 45<163.007 300>
LayerCount: 2
Back
SplineSet
135.703125 248 m 28
 140.703125 277 150.703125 294 165.703125 321 c 28
 191.953125 367 209.453125 392 240.703125 436 c 28
 276.953125 486 299.453125 514 338.203125 562 c 28
 370.703125 602 389.453125 624 423.203125 664 c 28
 445.703125 691 458.203125 707 481.953125 734 c 28
 495.703125 749 501.953125 759 518.203125 772 c 28
 528.203125 780 535.703125 784 548.203125 786 c 28
 559.453125 788 568.203125 788 576.953125 782 c 28
 584.453125 776 583.203125 769 581.953125 760 c 28
 579.453125 746 576.953125 738 568.203125 726 c 28
 563.203125 719 555.703125 718 545.703125 714 c 28
 541.953125 713 536.953125 711 535.703125 714 c 28
 531.953125 721 544.453125 732 535.703125 733 c 28
 523.203125 734 520.703125 724 513.203125 716 c 28
 469.453125 669 446.953125 643 405.703125 594 c 28
 363.203125 543 341.953125 513 301.953125 462 c 28
 274.453125 427 255.703125 409 231.953125 372 c 28
 211.953125 340 200.703125 321 190.703125 286 c 28
 180.703125 252 171.953125 230 181.953125 196 c 28
 191.953125 164 210.703125 150 238.203125 125 c 28
 256.953125 108 271.953125 101 296.953125 90 c 28
 319.453125 80 333.203125 75 358.203125 69 c 28
 393.203125 60 413.203125 55 450.703125 53 c 28
 488.203125 51 509.453125 55 546.953125 60 c 28
 566.953125 63 578.203125 68 598.203125 72 c 28
 605.703125 73 611.953125 76 618.203125 73 c 28
 626.953125 69 641.953125 61 633.203125 56 c 28
 605.703125 42 585.703125 42 553.203125 38 c 28
 500.703125 31 470.703125 25 418.203125 28 c 28
 374.453125 31 348.203125 37 308.203125 52 c 28
 265.703125 68 241.953125 79 208.203125 105 c 28
 176.953125 129 158.203125 145 141.953125 177 c 28
 129.453125 203 130.703125 220 135.703125 248 c 28
EndSplineSet
Fore
SplineSet
63 248 m 8
 68 277 78 294 93 321 c 24
 119 367 137 392 168 436 c 24
 204 486 227 514 266 562 c 24
 298 602 317 624 351 664 c 24
 373 691 385 707 409 734 c 24
 423 749 430 759 446 772 c 24
 456 780 464 784 476 786 c 24
 487 788 495 788 504 782 c 24
 512 776 510 769 509 760 c 24
 507 746 505 738 496 726 c 24
 491 719 483 718 473 714 c 24
 469 713 464 711 463 714 c 24
 459 721 472 733 463 733 c 24
 451 733 449 724 441 716 c 24
 397 669 374 643 333 594 c 24
 291 543 269 513 229 462 c 24
 201 427 183 409 159 372 c 24
 139 340 128 321 118 286 c 16
 111 263 105 245 105 225 c 0
 105 216 106 207 109 196 c 8
 119 164 138 150 166 125 c 24
 185 108 199 101 224 90 c 24
 246 80 261 75 286 69 c 24
 321 60 340 55 378 53 c 16
 385 53 391 52 397 52 c 0
 424 52 443 56 474 60 c 8
 494 63 506 68 526 72 c 24
 534 73 540 76 546 73 c 24
 555 69 570 61 561 56 c 24
 533 42 513 42 481 38 c 16
 438 32 410 27 372 27 c 0
 364 27 356 27 346 28 c 8
 302 31 276 37 236 52 c 24
 194 68 170 79 136 105 c 24
 105 129 85 145 69 177 c 16
 62 192 60 204 60 217 c 0
 60 226 61 236 63 248 c 8
EndSplineSet
Validated: 1
EndChar

StartChar: parenright
Encoding: 41 41 67
Width: 304
VWidth: 0
Flags: W
HStem: 752 30<62.5986 116.665>
VStem: 179.499 64<72.1016 104.236> 292.499 32<311.161 548.479>
LayerCount: 2
Back
SplineSet
288.430664062 423 m 28
 289.680664062 440 293.430664062 450 292.180664062 467 c 28
 290.930664062 487 287.180664062 498 282.180664062 518 c 28
 277.180664062 541 277.180664062 554 267.180664062 576 c 28
 257.180664062 598 248.430664062 610 233.430664062 630 c 28
 214.680664062 655 203.430664062 668 179.680664062 690 c 28
 159.680664062 709 145.930664062 719 122.180664062 734 c 28
 108.430664062 743 97.1806640625 745 82.1806640625 752 c 28
 74.6806640625 755 64.6806640625 754 62.1806640625 760 c 28
 58.4306640625 768 58.4306640625 777 68.4306640625 782 c 28
 77.1806640625 786 84.6806640625 778 94.6806640625 775 c 28
 120.930664062 766 137.180664062 763 159.680664062 751 c 28
 178.430664062 741 187.180664062 732 202.180664062 718 c 28
 217.180664062 704 225.930664062 695 238.430664062 679 c 28
 259.680664062 653 273.430664062 640 288.430664062 611 c 28
 303.430664062 581 308.430664062 563 314.680664062 530 c 28
 322.180664062 487 325.930664062 463 323.430664062 420 c 28
 320.930664062 364 312.180664062 333 302.180664062 278 c 28
 298.430664062 253 295.930664062 240 288.430664062 215 c 28
 273.430664062 168 264.680664062 141 243.430664062 96 c 28
 238.430664062 85 235.930664062 75 222.180664062 70 c 28
 210.930664062 66 199.680664062 71 192.180664062 78 c 28
 182.180664062 88 175.930664062 99 182.180664062 110 c 28
 185.930664062 117 198.430664062 102 207.180664062 107 c 28
 217.180664062 113 214.680664062 122 219.680664062 132 c 28
 237.180664062 172 248.430664062 194 263.430664062 235 c 28
 268.430664062 249 270.930664062 258 273.430664062 272 c 28
 278.430664062 304 279.680664062 322 283.430664062 354 c 28
 285.930664062 381 285.930664062 396 288.430664062 423 c 28
EndSplineSet
Fore
SplineSet
288.499023438 423 m 24
 288.499023438 440 292.499023438 450 292.499023438 467 c 24
 292.499023438 487 287.499023438 498 282.499023438 518 c 24
 277.499023438 541 277.499023438 554 267.499023438 576 c 24
 257.499023438 598 248.499023438 610 233.499023438 630 c 24
 214.499023438 655 203.499023438 668 179.499023438 690 c 24
 159.499023438 709 146.499023438 719 122.499023438 734 c 24
 108.499023438 743 97.4990234375 745 82.4990234375 752 c 24
 74.4990234375 755 64.4990234375 754 62.4990234375 760 c 24
 58.4990234375 768 58.4990234375 777 68.4990234375 782 c 24
 77.4990234375 786 84.4990234375 778 94.4990234375 775 c 24
 120.499023438 766 137.499023438 764 159.499023438 752 c 24
 178.499023438 742 187.499023438 732 202.499023438 718 c 24
 217.499023438 704 226.499023438 695 238.499023438 679 c 24
 259.499023438 653 273.499023438 640 288.499023438 611 c 24
 303.499023438 581 308.499023438 563 314.499023438 530 c 16
 320.499023438 496 324.499023438 474 324.499023438 445 c 0
 324.499023438 437 324.499023438 429 323.499023438 420 c 8
 321.499023438 364 312.499023438 333 302.499023438 278 c 24
 298.499023438 253 296.499023438 240 288.499023438 215 c 24
 273.499023438 168 264.499023438 141 243.499023438 96 c 24
 238.499023438 85 236.499023438 75 222.499023438 70 c 24
 211.499023438 66 200.499023438 71 192.499023438 78 c 16
 185.499023438 85 179.499023438 93 179.499023438 101 c 0
 179.499023438 104 180.499023438 107 182.499023438 110 c 8
 186.499023438 117 198.499023438 102 207.499023438 107 c 24
 217.499023438 113 214.499023438 122 219.499023438 132 c 24
 237.499023438 172 248.499023438 194 263.499023438 235 c 24
 268.499023438 249 271.499023438 258 273.499023438 272 c 24
 278.499023438 304 279.499023438 322 283.499023438 354 c 24
 285.499023438 381 288.499023438 396 288.499023438 423 c 24
EndSplineSet
Validated: 1
EndChar

StartChar: less
Encoding: 60 60 68
Width: 754
VWidth: 0
Flags: W
HStem: 113 39<110.386 286.072 288.604 466.459> 130 32<148.134 406.738> 725 57<690.622 724.972>
LayerCount: 2
Back
Fore
SplineSet
63.3857421875 142 m 28xa0
 97.3857421875 187 120.385742188 209 159.385742188 251 c 28
 209.385742188 306 237.385742188 337 289.385742188 391 c 28
 339.385742188 443 369.385742188 470 419.385742188 522 c 28
 455.385742188 559 473.385742188 581 509.385742188 617 c 28
 543.385742188 650 562.385742188 668 598.385742188 699 c 28
 623.385742188 720 640.385742188 730 665.385742188 751 c 28
 674.385742188 758 677.385742188 763 685.385742188 770 c 28
 690.385742188 775 691.385742188 782 699.385742188 782 c 28
 714.385742188 782 722.385742188 777 734.385742188 771 c 28
 749.385742188 765 760.385742188 763 769.385742188 751 c 28
 774.385742188 744 764.385742188 740 760.385742188 733 c 28
 749.385742188 712 749.385742188 697 733.385742188 678 c 28
 729.385742188 673 718.385742188 671 713.385742188 675 c 28
 707.385742188 680 709.385742188 687 713.385742188 693 c 28
 719.385742188 704 727.385742188 708 735.385742188 719 c 28
 737.385742188 723 742.385742188 726 740.385742188 731 c 28
 738.385742188 736 733.385742188 740 725.385742188 739 c 28
 716.385742188 737 718.385742188 728 710.385742188 725 c 28
 702.385742188 722 695.385742188 729 690.385742188 725 c 28
 636.385742188 685 611.385742188 660 563.385742188 615 c 28
 519.385742188 574 497.385742188 548 455.385742188 505 c 28
 381.385742188 430 339.385742188 388 264.385742188 313 c 28
 236.385742188 285 221.385742188 269 193.385742188 241 c 28
 184.385742188 232 181.385742188 227 173.385742188 218 c 28
 164.385742188 207 161.385742188 200 153.385742188 189 c 28
 149.385742188 183 146.385742188 180 144.385742188 174 c 28
 140.385742188 166 125.385742188 157 135.385742188 154 c 20
 139.385742188 153 143.385742188 152 147.385742188 152 c 4xa0
 163.385742188 152 176.385742188 161 194.385742188 161 c 4
 230.385742188 161 259.385742188 162 287.385742188 162 c 4
 313.385742188 162 338.385742188 161 370.385742188 157 c 12
 431.385742188 149 462.385742188 131 523.385742188 117 c 28
 618.385742188 95 678.385742188 96 769.385742188 64 c 20
 772.669921875 62.8271484375 774.02734375 61.103515625 774.02734375 59.0625 c 4
 774.02734375 52.40234375 759.5703125 42.357421875 750.385742188 37 c 12
 740.385742188 32 731.385742188 35 720.385742188 37 c 28
 659.385742188 48 625.385742188 55 565.385742188 70 c 28
 503.385742188 85 470.385742188 99 408.385742188 114 c 28
 379.385742188 121 363.385742188 124 334.385742188 127 c 28
 306.385742188 130 292.385742188 130 264.385742188 130 c 20
 249.385742188 130 239.385742188 131 227.385742188 131 c 4
 221.385742188 131 216.385742188 131 208.385742188 130 c 12x60
 179.385742188 126 164.385742188 118 135.385742188 114 c 20
 127.385742188 113 120.385742188 113 114.385742188 113 c 4
 106.385742188 113 99.3857421875 113 89.3857421875 115 c 12
 78.3857421875 117 69.3857421875 119 63.3857421875 126 c 28
 58.3857421875 131 59.3857421875 137 63.3857421875 142 c 28xa0
EndSplineSet
Validated: 1
EndChar

StartChar: greater
Encoding: 62 62 69
Width: 722
VWidth: 0
Flags: W
HStem: 37 35.8828<379.864 407.644> 37 24.6602<360.839 410.718> 710 33.959<63.8683 95.3299> 730 12<143.535 160.474>
LayerCount: 2
Back
SplineSet
335.142578125 611.940429688 m 24
 297.318359375 623.509765625 275.068359375 631.51953125 237.243164062 642.200195312 c 24
 209.430664062 650.209960938 192.743164062 651.099609375 166.043945312 660.889648438 c 24
 148.243164062 667.120117188 139.342773438 672.459960938 123.768554688 682.25 c 24
 112.642578125 689.370117188 109.305664062 697.379882812 97.0673828125 703.610351562 c 24
 89.28125 708.059570312 78.1552734375 702.719726562 72.5927734375 709.83984375 c 24
 63.693359375 719.629882812 58.130859375 729.419921875 65.91796875 739.209960938 c 24
 72.5927734375 748.110351562 84.830078125 743.66015625 97.0673828125 743.66015625 c 24
 117.09375 743.66015625 128.217773438 742.76953125 148.243164062 740.990234375 c 24
 153.805664062 740.990234375 157.143554688 741.879882812 161.592773438 739.209960938 c 24
 164.930664062 736.540039062 167.155273438 732.98046875 163.818359375 730.309570312 c 24
 158.255859375 725.860351562 141.568359375 731.200195312 146.017578125 726.75 c 24
 159.3671875 713.400390625 171.60546875 710.73046875 190.518554688 703.610351562 c 24
 262.831054688 676.91015625 305.106445312 663.559570312 378.530273438 639.530273438 c 24
 407.456054688 630.629882812 424.142578125 627.0703125 453.068359375 618.169921875 c 24
 483.10546875 608.379882812 499.793945312 603.9296875 528.717773438 592.360351562 c 24
 542.067382812 587.01953125 547.630859375 580.790039062 559.868164062 575.450195312 c 24
 591.017578125 561.209960938 611.043945312 557.650390625 639.967773438 541.629882812 c 24
 668.892578125 525.610351562 678.90625 510.48046875 707.831054688 493.5703125 c 24
 717.842773438 487.33984375 730.080078125 492.6796875 737.868164062 484.669921875 c 24
 744.54296875 477.549804688 746.768554688 467.759765625 737.868164062 461.530273438 c 24
 717.842773438 448.1796875 698.930664062 451.740234375 675.568359375 441.950195312 c 24
 655.54296875 433.049804688 643.305664062 427.709960938 627.73046875 413.469726562 c 24
 604.3671875 391.219726562 597.692382812 375.200195312 577.66796875 351.169921875 c 24
 557.642578125 326.25 545.405273438 312.900390625 524.268554688 288.870117188 c 24
 504.243164062 265.73046875 492.005859375 254.16015625 473.092773438 230.129882812 c 24
 448.618164062 198.98046875 438.60546875 179.400390625 414.130859375 147.360351562 c 24
 395.21875 121.549804688 374.081054688 110.870117188 361.842773438 82.3896484375 c 24
 358.505859375 73.490234375 367.40625 64.58984375 378.530273438 61.919921875 c 24
 390.767578125 59.25 398.555664062 77.0498046875 409.6796875 71.7099609375 c 24
 421.91796875 65.48046875 425.255859375 49.4599609375 414.130859375 43.23046875 c 24
 397.443359375 33.4404296875 380.755859375 37.8896484375 360.731445312 43.23046875 c 24
 337.368164062 48.5703125 311.78125 50.349609375 308.443359375 69.0400390625 c 24
 303.993164062 90.400390625 334.030273438 95.740234375 347.379882812 114.4296875 c 24
 401.893554688 191.860351562 424.142578125 239.919921875 481.993164062 315.5703125 c 24
 513.143554688 357.400390625 536.505859375 377.870117188 574.331054688 415.25 c 24
 601.030273438 441.059570312 637.743164062 445.509765625 646.642578125 478.440429688 c 24
 652.206054688 500.690429688 625.504882812 511.370117188 602.143554688 523.830078125 c 24
 553.193359375 548.75 519.818359375 554.08984375 466.41796875 571.889648438 c 24
 415.243164062 588.799804688 386.318359375 595.919921875 335.142578125 611.940429688 c 24
EndSplineSet
Fore
SplineSet
333.70703125 612 m 28x80
 294.70703125 624 274.70703125 632 235.70703125 642 c 28
 207.70703125 650 191.70703125 651 163.70703125 661 c 28
 145.70703125 667 137.70703125 673 122.70703125 682 c 28
 111.70703125 689 107.70703125 697 95.70703125 704 c 28
 87.70703125 708 76.70703125 703 71.70703125 710 c 28
 61.70703125 720 55.70703125 729 63.70703125 739 c 20
 67.1357421875 742.857421875 71.298828125 743.958984375 75.8818359375 743.958984375 c 4xa0
 81.9931640625 743.958984375 88.849609375 742 95.70703125 742 c 4
 108.70703125 742 117.70703125 743 128.70703125 743 c 4
 133.70703125 743 139.70703125 743 146.70703125 742 c 12
 152.70703125 742 155.70703125 742 160.70703125 739 c 28
 162.70703125 737 164.70703125 733 162.70703125 730 c 28
 156.70703125 726 139.70703125 731 143.70703125 727 c 28
 157.70703125 713 169.70703125 711 188.70703125 704 c 28
 260.70703125 677 304.70703125 664 376.70703125 640 c 28
 405.70703125 631 422.70703125 627 451.70703125 618 c 28
 481.70703125 608 497.70703125 604 526.70703125 592 c 28
 540.70703125 587 546.70703125 581 557.70703125 576 c 28
 588.70703125 561 608.70703125 558 637.70703125 542 c 28
 667.70703125 526 677.70703125 511 706.70703125 494 c 28
 716.70703125 487 728.70703125 493 736.70703125 485 c 28
 742.70703125 478 745.70703125 468 736.70703125 462 c 28
 716.70703125 448 697.70703125 452 673.70703125 442 c 28
 653.70703125 433 641.70703125 428 626.70703125 414 c 28
 602.70703125 391 596.70703125 375 576.70703125 351 c 28
 556.70703125 326 543.70703125 313 522.70703125 289 c 28
 502.70703125 266 490.70703125 254 471.70703125 230 c 28
 446.70703125 199 436.70703125 179 412.70703125 147 c 28
 393.70703125 122 372.70703125 111 360.70703125 82 c 28
 356.70703125 74 365.70703125 65 376.70703125 62 c 20
 377.640625 61.7666015625 378.548828125 61.66015625 379.4375 61.66015625 c 4x50
 388.5625 61.66015625 395.481445312 72.8828125 403.764648438 72.8828125 c 4
 405.041992188 72.8828125 406.3515625 72.6162109375 407.70703125 72 c 12
 419.70703125 66 423.70703125 50 412.70703125 43 c 20
 405.70703125 39 397.70703125 37 390.70703125 37 c 4
 380.70703125 37 370.70703125 40 358.70703125 43 c 12
 334.70703125 49 310.70703125 50 306.70703125 69 c 20
 306.70703125 70 306.70703125 72 306.70703125 73 c 4
 306.70703125 91 333.70703125 97 345.70703125 114 c 12
 400.70703125 192 422.70703125 240 480.70703125 316 c 28
 511.70703125 357 534.70703125 378 572.70703125 415 c 28
 598.70703125 441 636.70703125 446 645.70703125 478 c 20
 645.70703125 480 645.70703125 482 645.70703125 484 c 4
 645.70703125 503 622.70703125 512 600.70703125 524 c 12
 551.70703125 549 517.70703125 554 465.70703125 572 c 28
 414.70703125 589 384.70703125 596 333.70703125 612 c 28x80
EndSplineSet
Validated: 1
EndChar

StartChar: bracketright
Encoding: 93 93 70
Width: 551
VWidth: 0
Flags: W
HStem: 114 26<279.473 474.462> 682 25<69.9849 137.569> 742 20<273.09 415.246>
VStem: 436.465 32<184.027 621.716>
LayerCount: 2
Back
Fore
SplineSet
531.46484375 126 m 16
 531.46484375 114 525.46484375 111 515.46484375 111 c 0
 505.46484375 111 492.46484375 114 481.46484375 114 c 8
 432.46484375 114 405.46484375 114 356.46484375 114 c 24
 287.46484375 114 242.46484375 87 188.46484375 70 c 24
 179.46484375 67 171.46484375 69 165.46484375 63 c 24
 160.46484375 58 168.46484375 37 153.46484375 41 c 24
 151.46484375 42 152.46484375 45 151.46484375 46 c 16
 147.46484375 49 119.46484375 61 119.46484375 70 c 0
 119.46484375 72 120.46484375 73 123.46484375 75 c 8
 131.46484375 80 138.46484375 76 148.46484375 79 c 24
 179.46484375 90 194.46484375 100 225.46484375 110 c 24
 260.46484375 122 280.46484375 130 318.46484375 135 c 16
 351.46484375 139 375.46484375 140 401.46484375 140 c 0
 416.46484375 140 431.46484375 140 450.46484375 140 c 8
 458.46484375 140 462.46484375 136 468.46484375 136 c 24
 470.46484375 136 474.46484375 137 474.46484375 140 c 24
 473.46484375 145 467.46484375 146 465.46484375 151 c 24
 454.46484375 171 443.46484375 195 441.46484375 222 c 24
 436.46484375 270 436.46484375 316 436.46484375 367 c 16
 436.46484375 383 436.46484375 396 436.46484375 409 c 0
 436.46484375 434 436.46484375 457 436.46484375 488 c 0
 436.46484375 508 437.46484375 528 437.46484375 548 c 0
 437.46484375 614 434.46484375 676 415.46484375 731 c 8
 414.46484375 736 414.46484375 742 409.46484375 742 c 16
 398.46484375 743 389.46484375 743 380.46484375 743 c 0
 358.46484375 743 340.46484375 741 313.46484375 738 c 8
 282.46484375 735 263.46484375 732 233.46484375 723 c 24
 187.46484375 710 167.46484375 690 118.46484375 683 c 16
 115.46484375 683 112.46484375 682 109.46484375 682 c 0
 91.46484375 682 78.46484375 690 61.46484375 699 c 8
 56.46484375 701 65.46484375 706 70.46484375 707 c 24
 79.46484375 709 85.46484375 705 95.46484375 707 c 24
 137.46484375 717 159.46484375 729 201.46484375 739 c 24
 255.46484375 753 315.46484375 757 376.46484375 760 c 16
 386.46484375 760 402.46484375 762 416.46484375 762 c 0
 433.46484375 762 450.46484375 760 453.46484375 751 c 8
 455.46484375 742 447.46484375 737 448.46484375 728 c 24
 450.46484375 689 457.46484375 667 461.46484375 628 c 16
 467.46484375 561 468.46484375 493 468.46484375 424 c 0
 468.46484375 401 468.46484375 378 468.46484375 354 c 8
 468.46484375 313 468.46484375 274 474.46484375 236 c 24
 478.46484375 211 482.46484375 197 486.46484375 172 c 0
 488.46484375 155 507.46484375 140 521.46484375 132 c 0
 525.46484375 130 531.46484375 130 531.46484375 126 c 16
EndSplineSet
Validated: 1
EndChar

